<mxfile host="app.diagrams.net" agent="Mozilla/5.0 (X11; Linux x86_64) AppleWebKit/537.36 (KHTML, like Gecko) Chrome/131.0.0.0 Safari/537.36" version="26.0.2">
  <diagram name="PÃ¡gina-1" id="-IRaH4uyjkyFHZcSUbGk">
    <mxGraphModel dx="607" dy="-381" grid="1" gridSize="10" guides="1" tooltips="1" connect="1" arrows="1" fold="1" page="1" pageScale="1" pageWidth="827" pageHeight="1169" math="0" shadow="0">
      <root>
        <mxCell id="0" />
        <mxCell id="1" parent="0" />
        <mxCell id="clCzWqrXpFwG12uI4jeE-1" style="edgeStyle=orthogonalEdgeStyle;rounded=0;orthogonalLoop=1;jettySize=auto;html=1;dashed=1;strokeWidth=2;fontSize=14;startArrow=none;startFill=0;endArrow=none;endFill=0;" parent="1" target="clCzWqrXpFwG12uI4jeE-16" edge="1">
          <mxGeometry x="-0.1447" y="-4" relative="1" as="geometry">
            <mxPoint as="offset" />
            <mxPoint x="1770.06" y="2032" as="sourcePoint" />
          </mxGeometry>
        </mxCell>
        <mxCell id="clCzWqrXpFwG12uI4jeE-2" style="edgeStyle=orthogonalEdgeStyle;rounded=0;orthogonalLoop=1;jettySize=auto;html=1;exitX=0.5;exitY=1;exitDx=0;exitDy=0;dashed=1;strokeWidth=2;fontSize=14;startArrow=none;startFill=0;endArrow=none;endFill=0;" parent="1" source="clCzWqrXpFwG12uI4jeE-17" target="clCzWqrXpFwG12uI4jeE-15" edge="1">
          <mxGeometry relative="1" as="geometry">
            <mxPoint x="1520" y="2044.63" as="sourcePoint" />
          </mxGeometry>
        </mxCell>
        <mxCell id="clCzWqrXpFwG12uI4jeE-3" value="" style="shape=image;verticalLabelPosition=bottom;labelBackgroundColor=default;verticalAlign=top;aspect=fixed;imageAspect=0;image=data:image/png,iVBORw0KGgoAAAANSUhEUgAAAgAAAAIACAYAAAD0eNT6AAAABHNCSVQICAgIfAhkiAAAAAlwSFlzAAAOxAAADsQBlSsOGwAAABl0RVh0U29mdHdhcmUAd3d3Lmlua3NjYXBlLm9yZ5vuPBoAABNzSURBVHic7d1rrGVlfcfx3xlGU+WiWFFBxCBe2nqrpNSIRcGKQGOJCbFGq61Jm9bEGrVpo33T1qRNfdMLFVupmkbb2oqkMdKmEqsES6l3COkLQERRQIFYzQzQRsTdF+scPXM4c+bsfdaz1t7r//kkK4M48+xn7XDm/923tdcCVHFcklckuTDJM5M8af3ffyPJfyf5WJKPJjk4yu4AgF7tT/LmJPckmR3huDvJm5IcNcpOAYBeHJfkihx58G89rkxy/Aj7BQD26Ogk12X+4b9xfGl9DQBghVyexYf/xnHZ4LsGABZ2QfY+/DeOlw28dwBgQV9IfwHwuYH3DgAs4LT0N/w3jqcMegZAc/vG3gDQuwsarHl+gzWBEQkAmJ5TV2RNYEQCAKbnCQ3WPLHBmsCIBABMz8MarPnwBmsCIxIAAFCQAACAggQAABQkAACgIAEAAAUJAAAoSAAAQEECAAAKEgAAUJAAAICCBAAAFCQAAKAgAQAABQkAAChIAABAQQIAAAoSAABQkAAAgIIEAAAUJAAAoCABAAAFCQAAKEgAAEBBAgAAChIAAFCQAACAggQAABQkAACgIAEAAAUJAAAoSAAAQEECAAAKEgAAUJAAAICCBAAAFCQAAKAgAQAABQkAAChIAABAQQIAAAoSAABQkAAAgIIEAAAUJAAAoCABAAAFCQAAKEgAAEBBAgAAChIAAFCQAACAggQAABQkAACgIAEAAAUJAAAoSAAAQEECAAAKEgAAUJAAAICCBAAAFCQAAKAgAQAABQkAAChIAABAQQIAAAoSAABQkAAAgIIEAAAUJAAAoCABAAAFCQAAKEgAAEBBAgAAChIAAFCQAACAggQAABQkAACgIAEAAAUJAAAoSAAAQEECAAAKEgAAUJAAAICCBAAAFCQAAKAgAQAABQkAAChIAABAQQIAAAoSAABQkAAAgIIEAAAUJAAAoCABAAAFCQAAKEgAAEBBAgAAChIAAFCQAACAggQAABQkAACgIAEAAAUJAAAoSAAAQEECAAAKEgAAUJAAAICCBAAAFCQAAKAgAQAABQkAAChIAABAQQIAAAoSAABQkAAAgIIEAAAUJAAAoCABAAAFCQAAKEgAAEBBAgAAChIAAFCQAACAggQAABQkAACgIAEAAAUJAAAoSAAAQEECAAAKEgAAUJAAAICCBAAAFCQAAKAgAQAABQkAAChIAABAQQIAAAoSAABQkAAAgIIEAAAUJAAAoCABAAAFCQAAKEgAAEBBAgAAChIAAFCQAACAggQAABQkAACgIAEAAAUJAAAoSAAAQEECAAAKEgAAUJAAAICCBAAAFCQAAKAgAQAABQkAAChIAABAQQIAAAoSAABQkAAAgIIEAAAUJAAAoCABAAAFCQAAKEgAAEBBAgAAChIAAFCQAACAggQAABQkAACgIAEAAAUJAAAoSAAAQEECAAAKEgAAUJAAAICCBAAAFCQAAKAgAQAABQkAAChIAABAQQIAAAoSAABQkAAAgIIEAAAUJAAAoCABAAAFCQAAKEgAAEBBAgAAChIAAFCQAACAggQAABQkAACgIAEAAAUJAAAoSAAAQEECAAAKEgAAUJAAAICCBAAAFCQAAKAgAQAABQkAAChIAABAQQIAAAoSAABQkAAAgIIEAAAUJAAAoCABAAAFCQAAKEgAAEBBAgAAChIAAFCQAACAggQAABQkAACgIAEAAAUJAAAoSAAAQEECAAAKEgAAUJAAAICCBAAAFCQAAKAgAQAABQkAAChIAABAQQIAAAoSAABQkAAAgIIEAAAUJAAAoCABAAAFCQAAKEgAAEBBAgAAChIAAFCQAACAggQAABQkAACgoP1jbwAO47QkFyU5L8lTk/x4kgNJvpnkqiRXJLl6tN1BZy3J2UkuTPLiJCcmOTbJPUluSXJlksuTfG2c7QGsjhOTvC/JA0lmRziuSXLmONtcapflyPfdvMdlg57BanhRks/kyPfd95L8dZLHjbNNgOX3vCS3Zb7B9P0kbxtjs0tMALT3G9ldpG4+bk9yxhibBVhmz09yfxYfUH+W7ulYBEBLa0nelcXvx3uTnD74rgGW1ElJ7szeh9SfRwQkAqCVtSSXZO/35deTnDDw3gGW0t+mv0ElAgRAC2tJ/jL93Z9/Nez2AZbP09K9jt/nsKoeAQKgX3098t98fC/Jk4c8CdjKdQAY26uSHNXzmm+J9wTQj7UkFyd5Y8/rPizdx1xhNAKAsZ3XaF0RwF5tvOHvTY3WP7/RurArAoCxndZwbRHAolo98t+s5X/7AEvve+n/9erq7wnwHoC9afGa/3bHwaFOCLbjGQDGNsRfgm9JvQhgMUM88t9wYIDbgMMSAIztzoFu580RAeys9Wv+W90x0O3AtgQAYxvyC33enO6a7CKArYZ85L/Bl1kxKgHA2D428O39ZjwTwKGGfuS/4YqBbw9gqawl+Wzav+Fq6/GeTDcCvAlw9/q+wt9uj2uGODmAZXdOkgcz/F/Cf5FpRoAA2J2h3u2/9XggvsYa4Id+L8P/RTzLNJ8JEABHNtYj/1mStw5wfgArYy3JpRnnL+SpPRMgAHY21iP/Wbr3GgCwxVqSd2ecv5in9EyAADi8MR/5X5rp/DcG0DsRsHcCYHuGP8CSEwF7IwAeyvAHWBEiYHEC4FCGP8CKEQGLEQA/YvgDrCgRMD8B0DH8AVacCJiPADD8ASZDBOxe9QAw/AEmRgTsTuUAMPwBJkoEHFnVADD8ASZOBOysYgAY/gBFiIDDqxYAhj9AMSJge5UCwPAHKEoEPFSVADD8AYoTAYeqEACGPwBJRMBmUw8Awx+AQ4iAzpQDwPAHYFsiYLoBYPgDsKPqETDFADD8AdiVyhEwtQAw/AGYS9UImFIAGP4ALKRiBEwlAAx/APakWgRMIQAMfwB6USkCVj0ADH8AejVmBAw5WFY5AAx/AJqoEAGrGgCGPwBNTT0CVjEADH8ABjHlCFi1ADD8ARjUVCNglQLA8AdgFFOMgFUJAMMfgFFNLQJWIQAMfwCWwpQiYNkDwPAHYKlMJQKWOQAMfwCW0hQiYFkDwPAHYKmtegQsYwAY/gCshFWOgGULAMMfgJWyqhGwTAFg+AOwklYxApYlAAx/AFbaqkXAMgSA4Q/AJKxSBIwdAIY/AJOyKhEwZgAY/gBM0lqSS7LcA26sADD8AZi0ZY+AMQLA8AeghGWOgKEDwPAHoJRljYAhA8DwB6CkZYyAoQLA8AegtGWLgCECwPAHgCxXBLQOAMMfADZZlghoGQCGPwBsYxkioFUAGP4AsIOxI6BVABj+AHAEY0bAVxqs+eWRzsXwB2DljBkBUzgMfwBWlggw/AEoSgQY/gAUJQIMfwCKEgGGPwBFiQDDH4CiRIDhD0BRIsDwB6Co6hFg+ANQ1lqS92T8YTz0cUkMfwCKq/ZMgEf+ALCuSgQY/gCwxdQjwPAHgMOYagQY/rBkjvQDeVqS89d/fXyS7yT5ZpJPJ7k2yYNNdwc1rSV5V5I3jr2RnvxNkjekCwGgX0cleWGSs5KcmOT4JHel+1rwj6//Opfzk3whOxf9XUl+N8mP7Xn7wFZTeSbAI39o4xFJ3pbk7uz8M/j5JOftZsGjk3zkCIttPW5J8qyeTgj4kVWPAMMf2nhOklsz38/jh9PN+G0dn+RLcy64cRxI8uJ+zw/I6kaA4Q9tnJPkYBb7ufxikkdvXfCoJP+64IIbx7eTPLX/c4XyVi0CDH9o49Qk92RvP59XJtm/edG37nHBjePTLc4YWJkIMPyhnWvSz8/pmzYWPC57L4rNx8vbnDeUt+wRYPhDOxemv5/Vu5McmyS/2uOisyQfbXX2wNJGgOEPbV2Rfn9mX5skl/e86H3pPp4AtLFsEWD4Q1uPTHJ/+v25vSxJbu550VmSZ7e5D4B1yxIBhj+099z0/7N7Y7L4xwl2Os5vcx8Am4wdAYY/DOOC9P/zezANFp0leWWb+wDYYqwIMPxhOK9Mg5/jfYOeAtC3WbqP9Lx7wNt0bX+YAAEAq2/ICDD8YSIEAEzDEBFg+MOECACYjpYRYPjDxAgAmJaNCPhgj2t+KIY/TI4AgOmZJXl9kk/1sNZ/pLtimOEPEyMAYJpmSV6a7us/F/X5dF/zbfjDBAkAmK5Zkp9J8g8L/NkPJPnZGP4wWQIApu+1Sc5Kcusufu8tSc5M9xICMGH7x94AMIhrkpyW5OQkv53kjCSPX///vpXu6f4/TXLnKLsDBicAoJbb0wUAUJyXAACgIAEAAAUJAAAoSAAAQEECAAAKEgAAUJAAAICCBAAAFCQAAKAgAQAABQkAAChIAABAQQIAAAoSAABQkAAAgIIEAAAUJAAAoCABAAAFCQAAKEgAAEBBAgAAChIAAFCQAACAggQAABQkAACgIAEAAAUJAAAoSAAAQEECAAAKEgAAUJAAAICCBAAAFCQAAKAgAQAABQkAAChIAABAQQIAAAoSAABQkAAAgIIEAAAUJAAAoCABAAAFCQAAKEgAAEBBAgAAChIAAFCQAACAggQAABQkAACgIAEAAAUJAAAoSAAAQEECAAAKEgAAUJAAAICCBAAAFCQAAKAgAQAABQkAAChIAABAQQIAAAoSAABQkAAAgIIEAAAUJAAAoCABAAAFCQAAKEgAAEBBAgAAChIAAFCQAACAggQAABQkAACgIAEAAAUJAAAoSAAAQEECAAAKEgAAUJAAAICCBAAAFCQAAKAgAQAABQkAAChIAABAQQIAAAoSAABQkAAAgIIEAAAUJAAAoCABAAAFCQAAKEgAAEBBAgAAChIAAFDQviSzsTcBAAxqti/J/zZY+JEN1gSAio5usOb9+5Lc22DhYxqsCQAVHdtgzYP7khxosHCLzQJARc0CoMUzAE9ssCYAVHRygzWbBcBPNFgTACpqMVMP7kvyrQYLP6PBmgBQ0dMbrHnXviQ3NVj45CSPa7AuAFTyhCQnNVj3plYBsJbk7AbrAkAlL0k3U/t2Y6sASJJzGq0LAFW8pNG6NyXJcemuBtj3cVtcahgAFnVUktvT/3z+QTZ9tPC2BjcwS7tyAYCpOzdtZvNXkx89Qr+60eZf12hdAJi6VjP0qs3/4/VpUxn3JnlsoxMAgKl6XJL70mY2HxIWpzS6kVmSP+rv/gCAEt6ZdnP5IVcWvKXRDX03yaP6uT8AYPIek+57elrM5B9+8m/zu/Q/0ehEHpXkDxqtDQBT8460+1K9bWf9WWn3dMMDSX660ckAwFScnuT7aTePX7Ddja4l+UrDG702yf493jEAMFX7k3w27ebwl7PDVQX/sOENz+INgQBwOC3f+DdL8vs73fhp6a4Q1OrGH0xy3oJ3DABM1QXpZmSr+fuDJE850iauariBWZJvJ3nm/PcNAEzSs5L8T9rO3k/uZiPnNd7ELN21jZ88190DANNzctpdjn/z8fO73dDnBtjMjekuQAQAFZ2S7nP5reftf82zqVcMsKFZkjuTPGeejQHABPxUkq9nmFn78nk2tpbkhoE29u14YyAAdVyQ9q/5bxzXZYeP/h3OLwy0uVm6dz7+cVwnAIDp2p/uo34tP2239XjZopv95wE3OUv3OoUrBgIwNc9L24v8bHd8ZC8bPiXdV/oOueEHklyc5Pi9bBwAlsBjkrwrbS/vu91xMNt869+83j7wpjdv/uIkJ+71BABgYI9Nd3Xd72ScGfo7fZzEw5NcP9IJzJLcl+QDSV6aQ7+9EACWyb4k5yb5YLrZNdbc/FKSh/V1Us9I94h8rJPZOL6R5L1JXp3k8X2dHAAs6AlJXpNuNt2e8efkgSRP283G5/lowC8n+fs5fv8Q7kh3QaGb032e8t71474xNwXA5Byd5Jj145R0D4yfkeSJY25qG69O8k+7+Y3zfjbwvUl+fe7tAACtXZrkDbv9zfMGwCOS/Ge6jzMAAMvhi0l+Lsn/7fYPzH11oCQnJLkmydMX+LMAQL9uTfLCJN+a5w8t8q76e9JdJXCuGwIAendPuksLzz2TF/1Y3VfSXb//uwv+eQBgbw4kOT/dG+HntpfP1d+Q7lsDD+5hDQBgfgeSXJjuM/8LWeQ9AFs9O8nHk5zUw1oAwM7uSvdS/MLDP+knAJLk1CRXZpcXHwAAFvLVdC/Bf3mvC/V1ad2vJnlRuu8dBgD698UkL0gPwz9JjupjkXX3prtm/3FJnt/jugBQ3d8luSg9vvm+r5cAtrooyfuTPKrR+gBQwcF0V/f7UN8LtwqApLtG8oeTPLfhbQDAVF2f5FVZ8GN+R9Ly63VvSnJGkrfERwUBYLfuT/KOdC+nNxn+SdtnADY7Kck7k7xuoNsDgFX0L0l+K8ltrW+o5TMAm92Z5FfSfW7xhoFuEwBWxfXprur3ixlg+CfDBcCGf0v3noBzk3xm4NsGgGVzXZJfSnJ6uuvpDGaolwAO52VJ3p7k7Iy/FwAYwizJVUn+JMm/j7WJZRm6T0rymiS/FlcTBGCavp7kH5O8L8ktI+9laQJgw1qSM9PFwLkRAwCstpuSfCLd4L925L0cYtkCYKuTk7xk/Tg7yZNH3Q0A7OxrSa5O8qkkn0xyx6i72cGyB8BWx6a7wNDTk/zk+j+fsP7vH53kmPXj6LE2CMAk3ZvkvvVfv5vu+jZ3p3uEf+P6rzdnha578//EfHzIsLjF3gAAAABJRU5ErkJggg==;" parent="1" vertex="1">
          <mxGeometry x="1437.94" y="2093.88" width="45" height="45" as="geometry" />
        </mxCell>
        <mxCell id="clCzWqrXpFwG12uI4jeE-4" value="" style="shape=image;html=1;verticalAlign=top;verticalLabelPosition=bottom;labelBackgroundColor=#ffffff;imageAspect=0;aspect=fixed;image=https://cdn4.iconfinder.com/data/icons/ionicons/512/icon-ios7-arrow-forward-128.png;labelBorderColor=none;fontSize=10;fillColor=none;" parent="1" vertex="1">
          <mxGeometry x="1617" y="1925.13" width="59" height="59" as="geometry" />
        </mxCell>
        <mxCell id="clCzWqrXpFwG12uI4jeE-5" value="" style="shape=image;html=1;verticalAlign=top;verticalLabelPosition=bottom;labelBackgroundColor=#ffffff;imageAspect=0;aspect=fixed;image=https://cdn4.iconfinder.com/data/icons/ionicons/512/icon-ios7-arrow-forward-128.png;labelBorderColor=none;fontSize=10;fillColor=none;" parent="1" vertex="1">
          <mxGeometry x="1870" y="1925.13" width="59" height="59" as="geometry" />
        </mxCell>
        <mxCell id="clCzWqrXpFwG12uI4jeE-6" value="" style="shape=image;verticalLabelPosition=bottom;labelBackgroundColor=default;verticalAlign=top;aspect=fixed;imageAspect=0;image=data:image/png,iVBORw0KGgoAAAANSUhEUgAAAgAAAAIACAYAAAD0eNT6AAAABHNCSVQICAgIfAhkiAAAAAlwSFlzAAAOxAAADsQBlSsOGwAAABl0RVh0U29mdHdhcmUAd3d3Lmlua3NjYXBlLm9yZ5vuPBoAACAASURBVHic7d15uCV1fefx9+29mx1k35q12RcRFH0UBEEEFWImUVRUjBMdx3ELY5JHMhrHjBrURDNxGUfGuEzirqigo4CAgIAiBNkMS7OLImvTe/edP4obu2/f2/d8657f+f3q/N6v56knz4x14VOHOlWf86uqX4EkSZIkSZIkSZIkSZIkSeqkkdwBJA3cVsCmwCZP/b+XAE8Cj2RLJGngLADS8BoBDgKeDzwLWATsS3Pyn8gS4NanlquAi4AbgdHkSSVJ0rQdCXwceJDm5D2d5dfAx4BnDHQLJElST2YALwd+wfRP+pMtvwD+6Kl/lyRJyuzFwC2kO/GPX24GTh7IlkmSpA3sCnyLwZ34xy/fAHZJvpWSJOnfvQT4HflO/mPLQ8ApibdVkqTqjQAfAtaS/+Q/tqwF/gafKpIkKYlZwGfJf8KfbPkCMDvZ1kuSVKHZwHnkP8lPtXyLpqhIkqRpGgHOJf/JPTIS4OUASZKm6f3kP6lHl/em+CAk9Y8tXSrbi4Dv0p/Jd9YAN9A8x38P8PBT//9b0zxSeABwcJ/+XWuBk4Af9uGfJUlSVXYEfsP0fomvAS4ATqd5CdBUtgJeCXyf6T9p8Gtg+9ZbL0lSpf6Z6Z2Av0Lzq76tg4CvTTPD56fx75ckqTrH0/6key9wYh+znATc3zLLWuCYPmaRJGlojQDX0u6EewmwbYJM2wGXtcx0dYI8kiQNnZNpd6L9LjA/Ya75wPkts70wYS5JkobCpcRPsD8h7cl/zALgihb5Lh5ANkmSOmsf4nffPwjsNMCM2wMPBDOOAvsOMKMkSZ3y34mfWE/NkPNlLXK+N0NOSZI64VZiJ9Xv5YkJNHMFRLLemCemJEll24n4r+qjsyRtPHMjuSZbBnmpQpKkTng1sZPpFXlirudKYplfmSempPH6Mee3pP44Mrj+F5KkiPlScP3oNkpKxAIglWO/4PoXJEkRE82wKEkKSZI67E56H0q/J1PGidxH77lvz5RR0jiOAEjl2DGw7k3JUsTdHFh3h2QpJIVYAKQyzAbmBta/N1WQFu4OrLsAmJUqiKTeWQCkMmwWXH9JkhTtPBFcP7qtkhKwAEhlmB1cf2WSFO1Es8xJkkJSiAVAkqQKWQAkSaqQBUCSpApZACRJqpAFQJKkClkAJEmqkAVAkqQKWQAkSaqQBUCSpApZACRJqpAFQJKkClkAJEmqkAVAkqQKWQAkSaqQBUCSpApZACRJqpAFQJKkClkAJEmqkAVAkqQKWQAkSaqQBUCSpApZACRJqpAFQJKkClkAJEmqkAVAkqQKWQAkSaqQBUCSpApZACRJqpAFQCrDE8H1H0+SQlI1LABSGZYCdwbWvzFVEEl1sABI5fh8j+v9Gvh+yiCShp8FQCrHh4Gbp1hnFHgrzYiBJLVmAZDKsQQ4Ebhmkv99GfAG4KsDSyRpaM3KHUDSeu4FngX8MfAHwO40xeBy4DNP/e+SJEnZnUNzaaLXZfs8MSWty0sAkiRVyAIgSVKFLACSJFXIAiBJUoUsAJIkVcgCIElShSwAkiRVyAIgSVKFLACSJFXIAiBJUoUsAJIkVcgCIElShSwAkiRVyAIgSVKFLACSJFXIAiBJUoVm5Q4gaULHA6cBC4HHgSuBLwGPZMwkSZIS2Qb4ATA6wfI7mlJQmnOYOO9ky/Z5YkqSVKZ5wNVs/OS5GjgpV8BJWACkDvIeAKkcbwWOnGKdmcCngLnp40gaZhYAqRyv73G93YETUgaRNPwsAFIZ5gOLAusfliqIpDpYAKQybB5cf4skKSRVwwIgSVKFLACSJFXIAiBJUoUsAJIkVcgCIElShSwAkiRVyAIgSVKFLACSJFXIAiBJUoUsAJIkVcgCIElShSwAkiRVyAIgSVKFLACSJFXIAiBJUoUsAJIkVcgCIElShSwAkiRVyAIgSVKFLACSJFXIAiBJUoUsAJIkVcgCIElShSwAkiRVyAIgSVKFLACSJFXIAiBJUoUsAJIkVcgCIElShSwAkiRVyAIgSVKFLACSJFXIAiBJUoUsAJIkVcgCIElShSwAkiRVyAIgSVKFLACSJFXIAiBJUoUsAJIkVcgCIElShSwAkiRVyAIgSVKFLACSJFXIAiBJUoUsAJIkVcgCIElShSwAkiRVyAIgSVKFLACSJFXIAiBJUoUsAJIkVcgCIElShSwAkiRVyAIgSVKFLACSJFXIAiBJUoUsAJIkVcgCIElShSwAkiRVyAIgSVKFLACSJFXIAiBJUoUsAJIkVcgCIElShSwAkiRVyAIgSVKFLACSJFXIAiBJUoUsAJIkVcgCIElShSwAkiRVyAIgSVKFLACSJFXIAiBJUoUsAJIkVcgCIElShSwAkiRVyAIgSVKFLACSJFXIAiBJUoUsAJIkVcgCIElShSwAkiRVyAIgSVKFLACSJFXIAiBJUoUsAJIkVcgCIElShSwAkiRVyAIgSVKFLACSJFXIAiBJUoUsAJIkVcgCIElShSwAkiRVyAIgSVKFLACSJFXIAiBJUoUsAJIkVcgCIElShSwAkiRVyAIgSVKFLACSJFXIAiBJUoUsAJIkVcgCIElShSwAkiRVyAIgSVKFLACSJFXIAiBJUoUsAJIkVcgCIElShSwAkiRVyAIgSVKFLACSJFXIAiBJUoUsAJIkVcgCIElShSwAkiRVyAIgSVKFLACSJFXIAiBJUoUsAJIkVcgCIElShSwAkiRVyAIgSVKFLACSJFXIAiBJUoUsAJIkVcgCIElShSwAkiRVyAIgSVKFLACSJFXIAiBJUoUsAJIkVcgCIElShSwAkiRVyAIgSVKFLACSJFXIAiBJUoUsAJIkVcgCIElShSwAkiRVyAIgSVKFLACSJFXIAiBJUoUsAJIkVcgCIElShSwAkiRVyAIgSVKFLACSJFXIAiBJUoUsAJIkVcgCIElShSwAkiRVyAIgSVKFLACSJFXIAiBJUoUsAJIkVcgCIElShSwAkiRVyAIgSVKFLACSJFXIAiBJUoUsAJIkVcgCIElShSwAkiRVyAIgSVKFLACSJFXIAiBJUoUsAJIkVcgCIElShSwAkiRVyAIgSVKFLACSJFXIAiBJUoUsAJIkVcgCIElShWblDiAVYC5wOHAAsAOweYYMmwTXfx7wwRRBWnhecP2zgSdTBJnC48ADwE3AdcCKDBkkSZnNBV4JnA8sBUZdqlqeBL4HnE6zL0iShtws4K3AfeQ/CbmUsdwLvAVHRCVpaB0KXE/+E45Lmct1wMFIkobKGcAy8p9kXMpelgKvQpI0FN4OrCX/ycWlG8tamstEkqQOex2e/F3iy1qaUSNpaI3kDiAldARwOd7lrXZWAM8Grs0dRErBAqBhNZfmhr9FuYOo024CDgNW5Q4i9dvM3AGkRN4FvDx3CHXetjQTCF2RO4jUb44AaBhtAiwGnpY5h4bD74CFwJLMOaS+8l0AGkZn4Mlf/bMNzYyB0lBxBEDD6HKam7ciVgLnAl8HbsVfe8NmU5r7Qf4DcCYwJ/j3lwLH9DuUJKl/tgJWE3vk6y7gkBxhlcWhwN3E9pFVwBY5wkqSenMKsQP7UuDALEmV00HEZ4Y8KUtSKRHvAdCw2T+4/j8CN6YIoqL9EvhE8G+i+5ZUNAuAhs2uwfX/b5IU6oLof/vdkqSQMrEAaNhsGlz/1iQp1AW3BNffPEkKKRMLgIbN7OD6S5OkUBc8GVw/um9JRbMASJJUIQuAJEkVsgBIklQhC4AkSRWyAEiSVCELgCRJFbIASJJUIQuAJEkVsgBIklQhC4AkSRWyAEiSVCELgCRJFbIASJJUIQuAJEkVsgBIklQhC4AkSRWalTuA1CezgT2BHYN/95UEWTScdgQWAXcAqzJnkaZtJHcAqYX5wLOBY4ADgf2BvWlKgJTaKuA24CbgRuBS4ApgWc5QUpQFQF1xBHAycBxwNDA3bxxpPcuBK4GLgAuAn+eNI03NAqCS7QacDpxJM/QqdcUtwJeBL9KMFkiSpjAD+GPgcmAtMOri0uFlLXAZ8Id407UkTWgO8BrgZvIftF1cUiy3A2+juYdFkqo3E/hPwP3kP0C7uAxiuQ94E82+L0lVOga4jvwHZBeXHMtNwIlIUkV2oXn+PvcB2MUl97IW+BdgJyRpyL0MeIj8B14Xl5KWR2ieeJGkoTMf+Bj5D7QuLiUvnwc2RRoA5wHQIBwMfINmtj5JG/crmpGyG3MH0XCzACi1k2gmRNk84b/jSeAqmpuqbqeZeOVOmqlZH3nq/y5P+O/X8JlHM2q11VP/d09gL5oSewBwFLBJwn//YzTzYfy/hP8OSUrmzTTzpvd7mHQ18COaZ6qfgS+10uDNAo4E3g5cSLNP9ns/XwW8cVAbJEn9cg79PyBeAvwp8LQBbofUi21p9s1L6f9+/4EBbockTcsH6N/BbznNjVGHDnQLpPYOAz5Nc2mqX9+Djwx0CySphffTnwPeSuAfgO0GG1/qmx2AT9Dsy/34TrxvsPElqXd/RX8OdF/GJwY0PPYBvkZ/vhtnDzi7JE3pDKZ/cHsAOG3QwaUBORm4h+l/T14/6OCSNJln0jxqN52D2rnAFoMOLg3YVsA/Mb3vyjKaxxAlKasdgXtpfzBbDrxh4KmlvM4AljK90bJdBp5akp4yG/gp7Q9id9M8Sy3V6Cimd0ngSpwDQ1Im76X9wetm/AUj7QjcQPvv0V8NPrKGhVMBq63Daabfnd3ib38BvBD4bV8T1WEezT0XpT0e+SDN/rAid5AO2g74Ac38AVGrgaOBn/U1kSRNYi7tf7Vcgzf7tTETeDfNHPHTuYEs5fIo8JdPZVXMlsDPafe5/yvNd1KSkvtr2h2obge2z5C362bQvE0x9wm+1+WrT2VWzA7AHbT7zN+TIa+kyuxMuylOfwssypB3GLyT/Cf16PK2JJ/E8Nub5nJK9PNeCuyaIa+kinyO+MFpNXDs4KMOhRk0j3zlPqFHl/twFKCt44E1xD/zz+YIK6kOh9LuwPTfcoQdEgeR/2TedjkwwedRi/cR/7zXAE/PEVbS8Ps+8YPShXhT2HQcS/4TedvlmP5/HNWYCfyY+Gf+vQxZJQ25g4C1xA5GTwJ75Ag7RPYj/4m87bJvgs+jJrsDS4h/7ofkCCtpeJ1L/ED0F1mSDpcR4E7yn8yjy+0pPowKnU38s/9MlqSShtJ2xF/2cys+m9wvryf/CT26vCbJJ1GfOcBNxD775fi4raQ+eQ/xE8BLsiQdXp8k/0m91+V/JvoManUa8f8G3ngrqS9uI3bwuRanmU7hTNpPFDOI5Xbgtcm2vl4jNFP9Rv9b+B3URrmDaCpHAlcH/+ZU4LwEWdRYBOxEOU9XrAHup7nsozReBnw9+DfPoJleWJJaOYfYL48bsVhK/TYC3ELsu/ihLEklDYURYDGxg847cgSVKvAuYt/FO7CMS2rp6cQOOCuAbbMklYbf9sBKYt/JQ7MkVSc4V7c25nnB9c+jeemPpP57kPhMf9HvsCpiAdDGPDe4/reTpJA0Jvodi36HJYkRYq8lXUMzYZCkdLYj9kKuB/LElNRli4hda/xpnphSda4h9t3cJ09Mlc5LAJrMYcH1L0qSQtJ40e9a9LusSlgANJnorwYnHJEG49rg+nsnSaHOswBoMtGDxnVJUkgazwKgvpiVO4CKFTloLAEeAbYK/jtWAk8G/6aNucCCAfx7pEF4mOY7t2mP63sPgKSQB4jdaNR2uY9muuGt+5x/FvBm4PoBbYeLS6nLfUgTcJpITWYVgx0huht4Ic1859O1gGZSouP78M+Sum4lzSiYtB4LgCYyD1iW4d97G3BIH/7dnwfOmH4caWjMo5mqW/p33gSoifR6bbHf9gbeOM1/xsHAq/uQRRomub7TKpgFQBPJebA4bZp/fyqObEnjWQC0AQuAJpLzYLFwmn+/ez9CSEPGAqANWAA0kZkZ/91PTPPvl/QlhTRcfORbG7AAqDSXT/Pvr+xLCkkachYAlWQt8Klp/jO+BdzRhyySNNQsACrJ2Ux/SuGVwOvwkSdJ2igLgErwCM3jfx/o0z/vMuA44NY+/fMkaeh4Y4j64WLg6hZ/t5xm5r/zgcf7mgiuAA4Cng8cCWze53++lNNRNPu2JPXVocTmGj8rT0ypWmcR+44emiemSuYlAEmSKmQBkCSpQhYASZIqZAGQJKlCFgBJkipkAZAkqUIWAEmSKmQBkCSpQhYASZIqZAGQJKlCFgBJkipkAZAkqUIWAEmSKmQBkCSpQhYASZIqZAGQJKlCFgBJkipkAZAkqUIWAEmSKmQBkCSpQhYASZIqZAHQsJsB7ArsB8zPnCVqU5rcO+cO0sLONNk3zR0kaD5N7l3x+Kgh5w6uYbUAeB9wH3A3cDPwCPB1mgN8yZ4BXECT92bgXmAxcBYwO1+sKc0B3gXcRZN57DM/HzgiY65eHAB8g99/5nfTbMN76V5xlKTWDgVGA8tZeWJOamvgWibPuwQ4MVu6jTsdWMHk2S+kzBPSfOBiJs+9Anh5tnQbdxLNPjFZ9p8BW2VLN7GziH1HD80TU1LXdL0AnMfUmR+lvKH1g4HlTJ39U7kCbsRnmDr3cuDAXAEnsSvwOFNn/2augJOwAEhKossF4Ch6z/33mTJO5sv0lns1sDBPxAntAayht+z/nCnjZD5O7/vLMzJlnIgFQNPmPQAaNqcE1n1xshRxI8DJPa47k2bYuhQvovdjySk021qKyD4Q2bek4lkA1A+juQOsY9dE66a2FbE75ndLFaSFXQLrbkZZ19Mj2Uv6zEv6zqmjLACaSPRO89VJUrSzILBuSb9Eo595SU8DdDl7ZB8o6ebLtcH1ZyZJoU6zAGgic4Lrr0ySop1I9pJyK49VgXWj34uUoqV7VpIU6jQLgCYSPdBFDqKpRX5dWgAU2XdLGrmIfudKyq5CWAA0EUcAVIvIPuAIgIaKBUAT6fIIgAVAEV0dAbAAaNosAJpI9EDX1QJQUm7l0dURAC8BaNosAJrI3OD6y5KkaGdeYN3lyVLERe/SXpMkRTtdviM9sg9E9q3Uovtu117KpAGwAGgi0ee0H0+Sop0tA+s+lixFXJdHXaLD0SUVgMi+u0WyFHFPBNffLEkKdZoFQBOJnEShrBNpVwtA9BptSSMA0SwlXY+O7APR70VK0dK9eZIU6jQLgCYS/aVTygjACLHspeSG+EmxpMmXulwAIvuABUBDxQKgiUQPdKWcSDcjNrxc0ghAl2df7PId6ZF9YA6xmSZTin7nvASgDVgANJGujgB0NTd0ewSgy3ekR0tgKaMAjgBo2iwAmkjkILeUck5GXb53ITrPfElPXkTvSC9pTv2uFoAlxJ6+2DZVEHWXBUAT2Saw7m+TpYiLHuRKyr5JcP0nk6RoJ5oluq0pRfeBUk6ka4GHAutvlyqIussCoInsHFj3/mQp4iKvdgV4IEmKdrpcAJYG1y/lOjrAr4Pr75QkRTsPBtbdIVkKdZYFQOPNBLYPrB85CKUWPThHD/4pRQtA9KSbUpdHAKL7b1cLgCMA2oAFQOPtQOxO+pJOojsG1y8pe3SmtpJGAKJZSpqVLroPRPexlH4TWHdzyrr3QgWwAGi86AGupBGALmePDos7AtAftVwCgNjInipgAdB40evoJf2Kjty78AhlvQsgOv3yo0lStBO9kz66rSkteWrpVZcLwK5JUqizLAAaL/oruqSbACMH55JuAATYOrj+I0lStBPNEt3W1CL7cKRkpnZvcP09kqRQZ1kANN7C4Pp3pgjRwhxiv3BKyT0m8ujlKGUVgIeD65c0AgCxfWF3ypnJcHFw/YUJMqjDLAAab+/g+otThGhhD2I3L96RKkhLkQLwOOVMvgSwktg9CZFtHYTIvjAb2C1VkKDFwfUXJsigDrMAaLx9Aus+RPy1pKnsFVy/yyMAJf36HxMZBSjtEkB0X4iW5FTuJ3Yfy8JEOdRRFgCta4TYiXRxohxtRAvA4hQhpiEyLF5iAYhkKq0AREeDIiU5pVHg7sD63gOg9VgAtK6diD2OVtKv6OivstIuAURmaivpyYsxXZ6VLrofR8tmSosD6+6GcwFoHRYArSv6y6bLBaCk7FsQK14lzV8wJlJKNqesuQC6OgIAsewzgEWpgqh7LABaV/TAdmuSFO3sF1j3fsp6FXCXZzAc0+UJdR4llj+yr6V2c3D9A5KkUCdZALSug4Pr/zJJirjNiV3fvDFVkJa6/A6DMdF5FUqaUhdiJ9I9KWc642gB2D9JCnWSBUDrOjSw7ijxg08qh9DcwNir0gqAIwD5RfaJGcBBqYIEWQDUmgVAY0ZoTqS9uodyHgGMjlzclCRFe8NQAKIjAF0uABDf51K5j9jlrANTBVH3WAA0ZiGwZWD9kn5FR0YuoKzs0MwuFxF59GtQ7gmuX9q89NFf0pGynFJ0JG5fyrl8ocwsABoTPaCV9Cu6y9khNkHLGuJzwA/CPcDawPqlPZMeLYWlFACI7c8ziBdmDSkLgMZEDwr/miRFXPR67N2U9SY9iJ0MHwBWpQoyDSuIPZ5YWgF4iNhLgaL3naR0XXD9I5KkUOdYADTm6cH1f54kRdyBwGaB9UvJPWaE2AjAXYly9EMk28JUIaYhsm9sSTnP1Ef3aQuAAAuAfu+ZgXWXALekChJ0dHD9a5KkaG9bYpPilFwAIvcmbE55UwL/LLh+dN9L5Rc0l4Z6ZQEQYAFQYy9i07NGDzgpPSu4fvQgn1p0KLzkArA4uH5plwGi5TC676WylFgh34+yZmJUJhYAATwnuH5Jv6Ijv8JGKe8SQHQY+d+SpOiP24Pr75skRXvR/bqUEQCI7dcziY34aUhZAATxA1kpJ9EtiZ1Ebif22tpBiBaAXyVJ0R/RbKVcQx/zELERlgNp3uNQguh38rlJUqhTLACC7g6jP4vYPlxK7nVF55UveQQg+m6IEmeli4wCzACOTBUk6Org+s9LkkKdYgHQZsRmNfst5ZyEogexnyRJMT2Rk+BjwG9SBemDB4jNDlnSS3XGXB5cv5Rf0j+nuRegV88C5iTKoo6wAOi5NNcEe3UJzbX0EhwfXP/SJCnam0Xs3fIlvX1xMpFyuC+xfW8QovtIdB9MZRVwVWD9BcBhibKoIywAih7ALkuSIm5LYo8zPUx5UwDvSexXWMnX/8dESso84tMgp3Y9zUhLr44iNg9FStHv5jFJUqgzLAA6Ibh+Kb+ijyX26/EyYlPVDkJ09sVSXr+8MV2eUheax1sjlwFmU8719OglrhckSaHOsADUbXti0+g+BtyQKEtUV0cu1hUtAKV89hsTzVjiMHR0XynlMsCVwOrA+s+juRSgSlkA6nYCsfnML6ecCYCOC65fysjFuoZxBCCascQX01wSXL+UArAEuDaw/jzKGb2QNGCfo7mhr9flnVlSbmgXmuH8XnM/THk3m0EzdW6v2/Ao5bx8ZmNGaJ4E6HW77sgTc6Nm04x29boNa4EdsyTd0PuJfac/miemSuAIQL1GiF///0GKIC28mNjJ8EeUM3IxZhtg18D6v6Scpy82ZpTYfQALKWcynTGrgAsD648ApyTKEhX9jr4wSQp1ggWgXkcAOwXWv5dy7qJ/SXD9UorLurr6+uVeRLKOUOZlgO8H139pkhRxPwUeD6x/AOWMXmjALAD1OjW4fikn0U2IX/8vJfu6jgquX8r0y72IZo1+FoMQLQDHU8YNdauAi4J/U+KNmBoAC0C9TguuX8pJ9ASam5d6dSPN6EVphrkARKdcLvHFNHcDNwfWX0A5j9VFv6vOCChVZC9iNwqtBrbKknRDnyWW/SN5Yk7pXnrfhmU0N6Z1xRxgOb1vX6mvOP4osX3tM3libmAPYrlLnJJZUiLvJHaAKOUZ+pnAg8SyRy8XDMLOxLbhp3liTss1xLaxxOvQxxPbhgcoZ1T1MnrLfH2ugJLyGJvPv9ellMf/ogfkh2jm2y/NHxDbjn/ME3NaPklsG6P3pAzCLOB3xLbj+VmSbuiZwEo2nnUN5eRVBqW0VQ3OTsBzgn/zzRRBWjg9uP55xGZGG5To65ejr3otQeS1ugBHJ0kxPauB7wT/5hUpgrRwFU2WJZP878uB1wEXDyqQpPyiw/+RmcVSmkMzoU8k+4uzJJ3aFcS2Y588MadlP2LbGH0N76C8lPioU0n3aywEPg7cQvP9+Tea0Zl9M2aSlMm1xA5o784TcwOnEsv9OLGnBQZlAbCC3rfjwTwxp20E+A29b+cKyniMbry5NPtSZN8rZVIgaaO8BFCX/YDDg3/T1eH/79IMc5bm2cQeu4q+4a0Uo8RuXpxDmY8DriA+J0AplwGkjbIA1OVVwfVvAW5KESRoE+LD+d9IEaQPoi9fuTJJisG4Irh+qS+m+Xpw/VOB+SmCSFIbI8DtxIYyz86SdENnEsv9GOUegKNPYJT4q7hXzyW2rT/KE3NK82lexhTZlldnSSpJE4gejNcCe2ZJuqGfEMv+2Twxp7SA2AQ5S+j2LG3zaCYx6nV7l1LmfRsQf3Pmj3OElKSJfIHYAayUa8+LiL36d5Ryn20+idh2RK89l+hCYtt8fJ6YUzqBeIHu4tMbqoj3ANRhS+Blwb/5UoogLfxHYq/+vQ+4NFGW6Yq+fvniJCkGK7oN0c9oUC6k2bd6NQK8PlEWSerZ24n9elkJPC1L0vXNIT717wezJO3NDcS25cg8MfvqOcS2uZR5JybyYWLb8gBlzQkgqUI3ETtwnZcn5gb+kFjuUeCgLEmnthOxSxmP0rz7oOtmA08QGzrfPkvSqR1KfH8scYpjSZWI3vw3CrwkS9INRa8fl/zI3GvpZgnrh/OJbXv0cdVBuprYtpTyGm1JFfoisQPWPZTxy/MQ4sXldTmC9ujLxLblLXliJvE2Ytv+xTwxe/IGYtuyFjgwS1JJVduZ2LSzo8B7cwSdwLnEcj9KmVPJQjMM/gix7dkrS9I0FhHb9ocp8y2O0ExKibGrWgAACJBJREFU9Rix7fl0lqSSqvYhYgeqNcDuWZKub1tiz4+P0rzwpFTRR8huzRMzqduIfQbH5InZk08Q25alwDZZkkob4WOAw2tTmkfoIi4A7kqQJepNxCeE+V8pgvRJdBrjC5KkyCs6p0Ep96FMJLqvzSf+XcxhPs2TJ8cBu2XOImka/guxXymjlHHQnQPcTyx3KZMWTeYOYttzUp6YSb2Y4RoF+Smx7bmHch8J3Bz4CBte2vg58IKMuSS1MJP4vP+3UcaI0J8QLy5/lCVpbw4mti1PUu57DKZjE+KXdfbLkrQ3pxPfT1+TJenGbQNcz+SZ1wJvzpZOUlib5+ffmiXp+mYCvyKWezHl3jAGzU2Vke0p9S2G/XAesc/i3Xli9mQ2cDex7bmZMkr2ur7B1LlXA0/PFVBS70Zohu4iB6ZHgM1yhB2nza+qP8uStHc3Etue1+aJORCvJ/ZZXJcnZs/eRXx/LWm06iB6z31RpoySAl5C/KD04SxJ1zdCfKrcx4EtcoTt0YHEtmcVw323+LY0vyYjn8miLEl7syWxWQ5HgV8Qe7dFSu8klv3YLCkl9WQEuIb4SWf3HGHHOY14cflYlqS9ew+x7anhV9YlxD6Ts/PE7NnHie+30adCUvlbYrkvyRNTUi9OIX4w+nKWpBuKTrG6GtgzS9Le/ZLYNr0tT8yBegexz+T6PDF7thfxUY1Spqz+r8SPF8dlSSppSlcR+zKvBQ7LknR9LyV+ICp5uliIXV8d+29Rw7PXC4m9FGkU2D9H0IAvEd9/T8mSdH2HE899WZakkjbqRcS/zCW8cGYm8Wv/a4ADcoQN+CCxbSp9LoN+upLYZ/M3eWL27ECafTKyTddRxhMBPyF+3DghS1JJE5pB/M7/UeDZOcKO8zriub+SI2jADOKPiA3Ty3+m8nZin81dlHGy3JivE9+PS3jr4YnEc1+RJamkCZ1B/EtcwmtK5wJ3Esu9lua97CU7ntg2rQZ2yJI0j52I/2I+NkfQgMOJX9q4jTJmB7yC+PHj5CxJJa1nHs0vpOgX+Lk5wo4T/SU4CnwrS9KYfyK2TT/MEzOrHxP7jP53lpQx3yW+P5cwy95JxHPfRBnlRapam8lILs6SdH2bAQ8Sy70WOCJH2IBNiD8b3oUXxfTbm4h9Ro9R/hTJRxEfBbifZp/JLfpug1HgP2dJKgloJo2Jvmd+FDg6R9hxojfJjQJfzZI05rXEtmkZsFWWpHltA6wg9lm9OkvSmG8S36/fnyXp+tqMAjxEnfuuVIS/I/6l/XaWpOvbB1hOLPcqyp4Vbkz0rupS5mHI4WvEPqsuTERzAPF5AZYBe+QIO87FxI8nf5clqVS5A4CVxL6sayjjBrrvED/QfDpL0pj9iQ8B13wzVZv5H0qfEwDgXOLbVcJLoI4kvv+uonkMUtIAXUj8IPO5HEHHeQHx3MuAXXOEDfp7Ytv1a8p+k2Fqs4AHiH1m52RJGrMzsJT4fv7CHGHH+Srx3N/JklSq1CuIf0lX0MzCltNsmleiRrP/bY6wQfNorolGtquElzDl9lFin9lvgDlZksZEt2uU5s2RuQvhvsRHFkdp5hOQlNhmwL3Ev6AlXKv7M+K5fwdsnSNs0KuIb9tBWZKW5RDin9srsiSNeRrwMPFte3uOsON8knjuX1H+UxpS551DN0+iuxN/PG6U7jxqFJ3e9vI8MYsUfQStK/PRv434/r6E/DcEbke7p4tKn7JZ6rQDaTc898YcYce5gHjuG8g/JNqLI4lv22uyJC3TmcQ/v6dnSRozm2ZYP7pt380RdpzoWxtHaY5Nh+QIKw27GbR7ccd1NC/cyanN8Pgo3bmu+AVi2/UIsCBL0jLNJz5c/n+yJI2LTgs9trw8R9h1zCL+kq5Rmtd65z7eSEPnLNodSI7NkHVd2xCf8W+U5uUqXbAd8TkNSrgfozT/QOwzXA5snyVp3LeJ7/+/pbmPIKc2T+yMUsZ9DNLQ2IPm2mD0i1jCJDPRefHHDu575wjbwnuIb5/PTW9of+Kf47uzJI3bk3hJHAU+myPsOG3Ky5M02yxpmmbQzIAW/RI+Qf5n508hPrHIKM1JtQvmEX+O/aIsSbvhx8Q+y/to3ijZBX9N/HuwlmaK3pz2ot2cBufnCCsNm7cQ//KNkn8Y7mnET46jwK00J9Yu+FPi2/fSLEm74WXEP88/yZI0bi7NG/Si23c/zWW0nP6SdsegN+QIKw2LvWj36NzPyH8jTpsZxdYCx+QI28IM4BZi23cH+f+7lGwmcCexz/Rmmv8WXXAs7UbEvpIh67pmA9cTz72EZmIhSUGzgCuIf+lWk/+Vua+h3S+GLrzzfUybX6vvyJK0W9pMFnVqlqTttHlPwCj534R4JPGXHI3S/BjpwsyNUlHeT7sDxUdzhF3HzrSbAa2Eu54jouXsCWCLLEm7ZUvio15XZUnazta0eyrmUWC3DHnXFX1SY2z5HznCampdmGSlRs8D/qLF343S3LDz5/2NE3Iq7d4Rfj3duZ67FXB08G/uAt6UIMswuovYkxJHAR+kmV+hC26gmR8gYgvgX8j7Ou/HaY4xI8G/+3PgB3Tjdc5Vif6HVHpb0kzes3vuIJLUJ/fSvIr84dxB9HtduXmmJp/Ck7+k4bIL8IncIbQ+RwDKchxwYe4QkpTIicAPc4dQwxGAspydO4AkJZTz/iSN4whAOeYAj9GdSXAkKWopzX1Oq3IHkSMAJZmNJ39Jw20BToZVDAtAOZbSjABI0rB6lObFSCqABaAco8B5uUNIUkIe4wriPQBl2YtmDoBNcweRpD5bChwO/Cp3EDUcASjL7cCZwLLcQSSpj5YBZ+DJvyjejFGem4DvAdvTvEnLkiapq9YA3wJeC1ycOYvG8RJA2eYAC4HNMueQpKgngMXAysw5JEmSJEmSJEmSJEmSJEmShsv/B46fGjqqin6fAAAAAElFTkSuQmCC;" parent="1" vertex="1">
          <mxGeometry x="1681.2" y="2094.13" width="45" height="45" as="geometry" />
        </mxCell>
        <mxCell id="clCzWqrXpFwG12uI4jeE-7" value="" style="shape=image;verticalLabelPosition=bottom;labelBackgroundColor=default;verticalAlign=top;aspect=fixed;imageAspect=0;image=data:image/png,iVBORw0KGgoAAAANSUhEUgAAAgAAAAIACAYAAAD0eNT6AAAACXBIWXMAAA7DAAAOwwHHb6hkAAAAGXRFWHRTb2Z0d2FyZQB3d3cuaW5rc2NhcGUub3Jnm+48GgAAIABJREFUeJzs3XecJEXdx/HP7uWc77gj5xwEyRlOBQRJIvqIKCJiIKjwgCgKKIgECSoKiEpQjOADKkoQSRIkSA5HThe5nG9vd58/ftPu7NzMbk9XdVf3zPf9etXrlmWnu3qmp6u6uur3AxEREREREREREREREREREREREREREREREREREREREREREREREREREREREREREREREREREREREREREREREREREREREREREREREREREREREREREREREREREREREREREREREREREREREREREREREREREREREREREREREREREREREREREREREREREREREWlSLaErIKsYV1YmAuOBkcBgoBUYUfq74UCfstd1AvNKPy8FlgGLgPeAGcDs0s9R6UjzIESkcFYDJgFjgTHA6FIZAQwD+pb+7YNdfwCWAMvLtrEAu+4sAhZi16TpwExgKnYtWpbycUhM6gBkbwiwEbBhqWxc+u+1sEa/bwZ1aAPeAl4DXq3490X0BRVpRP2A9YFNsevOxth1Zy1gTWBARvWYA7yBXXPKrz/PALMyqoOgDkDaxgE7ANuX/t0SWCNojXq3EngBeBL4T9m/83p6kYjkylDgfcD7ge2AbYENsE5Ank0DngaeKv37CPBK0Bo1MHUA/GnFvnB7YY39DsA6Aevj20vAfaVyD/BO0NqISLnVgT2B3UtlE7o/IiyymcBDwIOl8gg2iimO1AFwsybwgVKZjD07axavYZ2Bu4C/YcN6IpKN4dh1Z3/spmP9oLXJ1iLsJuQO4E7ssaVI6lqAXYBLsGHyThU6sd74P4GvYcOMIuLfRsCpwN3ACsJ/7/NS3gAuxzpCjTLqITnRAuyENfpvEf5kL0J5HjgXm2wkIsltCHwTm4sT+ntdhDITuAYbGcliQrU0qM2Bi4E3CX9SF7k8CpyMLWcUkd6NA76KTb4N/f0tcpkG/ADYur63X5rVQOBTwAOEP3kbrbQBfwEORz1zkUp9gAOAP2Lr6kN/XxutPIndiIyM+4FI89gUuBSbyBb6RG2G8hbwDexOR6SZjQXOAN4m/PeyGcoi4CpgqzgfjjS2fbCZpKFPymYtS4FrsXXKIs1kK+xZ9VLCfw+btdwHHIYt4ZYm0QIcDDxM+BNQpavcjc3iFWlke6CbjryV54FPk/8gSeKgL/Z8/1nCn3Aqtct92PpmkUbyQeBewn+/VGqXN4ATUEeg4RyGBYsIfYKpxC8PAvtV+zBFCmRvNNpYtPIUWsLcEHbDGpLQJ5RK8nIXsE3lByuSc1sBtxH++6OSrMzAAi81tEYNBbwpcD72rL9IOrCUmW/Slb63PI3vwtLfLaIrFvZ8ulIED8KWMoKl8RxLV2rPsdha/LUpXsjiDmyy4Lew90ckr9YAzgOOoniTy2ZhOT7ewdbQzymVudh1JrruROnGy0XpyYdjiYiGYUvuxmNpzSdi6YazzDro6jEsCFx76IqkpdE6AEOB7wAnku+15jOwTFdPY48m3iiVt7AQn2kbBqwHrFsqm2KJjDbHOhF5tRi4qFSWBK6LSLl+WPCeb2HXobxajKXdfR6YgiX5ehG76Viawf5bscRF65fKBlignq1Kv8+bw4A/ha6E9O4j5DNq3yzgVuB0LGFQniPi9cE6Ax/HoiA+TD5jjr+KTaoSyYN9sQY19PeisrRhmfMuA47GOvh5jpU/BnsvvwH8GRv1DP0e/i7VIxZna2A9tNAnSlRmANcDx2KNadFHWYZg8RLOAv5BvqKUXU/xHmdI4xgL/Jrw34OorATuB87BVtLkeSQijhbsGno8cBP2KCLr9/Tl1I9SEmnBlmwsIPyX7iFs6O/9FO+5X72GYcNiP8eeE4a+6M3C7m5EsvRRrLMf+vyfDvwS+BgwKtUjDq8P9kz+bLJLjjQ9iwOT+kwEbifcl64d62mfAExI+VjzrAXr9FxM+FCmt9Hcn4VkYwLwB8Ke61OBHwN7ku8h/bSth6VHfhCbKJzGe/10ZkcjsRyK3fWF+OI9ieW8XyP1oyyeVuyCdBW2ciHE5zMDS6gikob9CXfXvxBbCbMnjT/KmMT62MjAa/h936/J8BikB0OxDyPrL95i4BfAjukfYsMYAPwPNkqS9efVAfyQruWQIq76A5eQ3l1mT+UB4LPYozfpXQsWbvlX+JmvtFu21ZdqtsQmY2T5xZuCDfFHa+wlmS2Bn5D9XI1nsFnPIi42Ah4n23N3KXbT8b4Mjq+RTQC+SfLHk3/IvspS6WNYAIqsvnwPYTnrNczm13Dg69ikmqw+y4XYZC2RJA7GAuBkdb7OxBosrWzxqy/wCSzEb9zP4j80/qTKXOsDXEB2w263AbtncmTNbSDwJfw/q6tVOoDvoQ6dxNeKLaXL6trzNnAyMDiLg2tiLcCB2GOVnj6PX2NRDCWQMWSXMvM+9JwnhL5YCs6sgjfdhr7U0rsRWBCaLM7Jd4EvYHMMJFs7AJdj85SewdqBH2BRCSWgjbFIb2l/+R5H2ebyYCBwCtmsHJgCbJLNYUkBrUM2Ef3mYo/DdMcvUmYn0g//OB2bVash4XwZCXwfmwCV5uf/HrBzRsckxbEttr4+zXOvDbgUS9QlImUOwpbcpfXlW4F9+TSrP9/WB/5GuhfixdizwEY0CruT3RrYrkbZGMvMlufET1naD5swmuY5dzdalSI5k5c49cdhS8XSyuD3L+Dz2PCeFMPhWBKTtIIurcRijP8ipe37NBhr1NcG1ior62Ad2vJSrxXAPGy2+3ws0M3b2NyMN7EMla9jI2cdyQ8htz6FnQNpXXumYVkClVSmObUCu2Cj22OxFW2PAfewakrlpvQt0r3TOxkN9xfVUCwASzvpnB8dWOaxvOiHxU04CrgQC3edh3wLnVhQleeA32CZLffDQnIX2fGke279Ai0la2aHUjt+zQwszkxebsKDOIv0Llj3YMPJUnx7kO6ywXOyO5RuJmGpl3+CrTvOU6bFuGUGtmLnO1jWyKI8VvgK6S3zex2lq2523yXeufIHLHJq00nrzn85liCiqXtWDWgY6YaC/nYGx7AGlrnwGmxFQujGO42yDFtSdQ757RCcQXrHfwMW9Eqa1+ep75z5C03WCfgm6Xz5XgG2z/A4JHsfIb2VImemUN8tStt9jDCx5EOXZVgMhuOAcY7vpQ+nkM5xLsDmE0hzG0OysOe30iTxINLqfd+Iet7NYi3gEdI5j85wrFsLsCuWIvmVlOpY1LISezR3MvYZZu040umEPY4eN4o5leTn0Z9IbzJqLpyA/y9fG3ZBkeYyALiCdBqqkxLUZw1sZEuNfrzSAfwbCwudxdLcj5POhL9rUeZJ6XI7bufTL2nQx9eHYncAPr98s4HJWR6E5M4n8R8/oh1bhtibAcAR2BC373O7mcpirCFNKyT3AdhyR591Xo51XkTKPYf7uXVR5rVO2S7AEvx+AZ9Fw25idsB/lsGl1G6QxmOzfGd53qeKxer4GvYs1Ydt8B/k5z2UOEyqqyfjYE/la1lXPC0b43/S1j9RRD/pbh389L4rL/TluQM2AH6K/86syqplMZasxWWuwOrAO57r9Sp2TROp5ib8nGcrgf0zrrt3E/C/frtp101Kr0YCd+H3fHsNC3rzezTMH6KswJ6Lbkp9hgJPeK7Lw9joj0gtx+DvfJtH/ed9bvTD1gP7/AL+GEX1k571A35L+IZLxW9pB27GHvf0phW4xfP+70DZ+6R3A4E38HfeTaGgyaMuxe8X8Nxsqy8F1ge4jvCNlko65WZgQ2rzHWfkFjTqKPHti99Jp3dQsOWBR+L3C6jGX+rVClxF+MZKJZ2yApsjUDlZ8AP4fVTzG2xUSaQen8bvstPL06hkGusNN8eelQ31tL3zSCdCmzS+FiyjYJJ1/UXyHjCzVBZjkxTBsvuVZ/DrDwzB7mYHY8OV47HJckOyqqxn87BrxI+wY3kCy7rmw2+xxEztnrYnzeU47CbEVzt7DLZc1hvfHYDhWHAPX7Nkv497ZDZpbi3A1cDnQlfEwWzgJeDF0r8vYSl7Z2CNfpuHfQzBkhNNwDoEGwKbYd/ljcl/B+E1LNXqVp6292csFoSP91aa15exzqmPtnYR8D4s2FguXYu/IY+f0aARkSRzfbDVI6GHreOU2VhykDOxZDq+7mZdtGDL8Q7Akvz8HbvzDv1epVXuQtH9xJ+v4u/cfIiczgc4DH8H+Sfsoi3iywBsMk3oxqWyzAKux4b3NqE4nd5WbITgGGzCpe9ATKHKv8n/aIcUz/fxd46enW3Ve7ca/qKi3Us+U4hK8Q3Hhs1DNjAd2HPqc4GdaZyObgs2PHkGlvCnjfCNeb3lDexaJuJbC5awzsd52gbslG31a2sB/oqfA3uZgq55lNybBNxNuMblSWwocPW0DzQnRmAzof9OMToDc7EJzCJpGYB1jn21lb4m2jv5An4OaD42pCji2wHYZLmsG5XpwCXA1ukfYq6NwxLn3E866XhdSxu2dlskbaOwybw+zttrMq77KlYHFuB+IO3AQRnXXRpfXyyzVtaNzp3AgeR0sk5gGwAXY5MdQzf8UTkl1SMW6W4z/CSo6gD2zLju3fy+SqWSlG9kXXFpeKPJdtLfcmwyXLPf7cc1CJtA+ChhG//fU5yJl9I4jsDPjcnTBLrR+GCCylYrf0Px/cWvzbBnZFk0IHOA87E5BpLMjsCtZD9S8zwwLIPjE6nmYvycx1/JuuIDsGAkrhWfirJriV8H4uexVG9lCba0Z1Q2h9UUtsHiNfgModpTeRRdfyScvti8GNfzeB4Zr14500Ol27FAJyK+fJ70U/a2YUGqmmU2fwibAb8mm47AK/ScWEgkTetgE+Bdz+Prs6rwWtjdj2uFv5dVhaUpnEP6jcXNFDg/dwFth8UFSftznYXFZBAJ4dO4n8MdwG5ZVPYaD5V9DqXXFD/64uec7KlMwbLMSRiHkf6cjiWl/YiE8Efcz+EnSHlC68a4B/VYiU36EXHVD38rUaqVpVjYTcWFD68/tlzPx/KpWqWdxs8cKfk0Bj9RSlPtxPpIqHJxmhWUptEPuIn0GoP70bPhPFobWzmU1ufeCZye2dGIdDkK93P3SVIaBXg/7st0XkNx/sVdfyxhVBoX/2XAaTROjP5GdTTwHul1Ak7N7lBE/usu3M/dQ9Oo2O0eKnZIGhWTptIPuIV0LvpP4S+fvKRvAummec58fbU0vY2wR48u5633UYDtHSvUiXUgRFy0AjeQzsX+p2hialEdh5+VSZWlAzgxw+MQAT8rmryOAvzOsTLLsVznIi4uwf9FfglwbJYHIanYFBvBSaMT8OUMj0NkCBYkz+W8fQZPEXbXwX3m/6U+KiJN7Sz8X9xfRClgG8lg0lkS2gF8LMPjEPk87uft/j4qcqljJRaicJvi5lj8X9T/gcL4NqpjsVFHn+fLErR8WbLTF8tV4XLO3upaiZG4x1U/z7US0tT2Albg92L+C2wyoTSuvfCfcng6NiIqkoWP4Ha+rsQi9yZ2qmMF5qK7LEluA/wu9epAqaebyYb4SVpWXp4FRmR5ENK0WrDofi7n63ddKvCi486/7bJzaWojgRfwd+Feic0Wl+YyCrgbv52AvxMoB7s0nSNwO1enkXC0cxfHHS/CwhuK1KsFv2v9VwBHZnoEkicDsOehPjsBP8z0CKRZ9cH9RvyIJDv+meNOf5RkpyJYJD5fF+qlwAHZVl9yKI28EUoeJFn4LG7n6T/q3eEQ3HIUrwTWS3CgIrvjvuw0KsuBA7OtvuRYHyxvuq8OwBwcJ1mJxNAfm4Ca9DztwHJoxHa0w846sdSGIvWaALyLn4tzG3B4ttWXAmgFrsZfJ+ABNB9A0ncebudpXWGtXRMSKHe6JPFn/FyU27HMWiLVtOIe3bS8nJtt9aUJrY2NrCc9R++Pu6PRuA3Bvo6nEITSVHxEvorKKRnXXYqnHzab31eHc3K21Zcm9FfcztFJlRusNnR1QI3fx/UL7JlDWsYAO2FZk9YvlXHYzPGRpb9ZhMUgmAvMxCIqPY/Npnw7xbpJMusDP/C0rR953JY0rjZsdvQ/ge0ct9WKZSV8rPTfi7H5Ae9gy7BewvIUzHbcj6RvDBYefDMsv8QY7KZ4NF3t4lIsbfhU4FUszf2zwNOk2/ZdSfIJza3AwVjSsx65zJRdCayRsIK1tAB7A5dhX6J2h/p1Yl/IXwOfQxMV86AP9hzVx53YzWj0SeozHngZf6NPPZV3sevrl1BytLyYCHwSu3F9A7fPdw7wf8AJ2E2pb/1wi255V287GIBb6N+7fRxlyQTgDNL/cj4BfI0qwyOSqg2xBD++IrU9DQzN9AikUWyC26qnpOVFbP7AVukfopQZA3wR+Bd2x57GZ7sc6+z5ng/nsjy/DRjb08b3d9h4J/amuhqCNQwLHetSb1mJPRPUBMb0tAIHAXfg94s3G3uMIJLUoaTXGMQpD2ITVwekfaBNbGfgJvwniuqt3Ats7+kYJjvW5ZM9bfzHDhteid21uzgCf8vAXMoTwMex4Wlx1wf4FP7jskfn3YeyOxRpYK5LrXyUqcDJwKCUj7VZtAAfBu4j7OfaAVwHDHc8nj64xQS4qqeNP+Ow4X86HFR/LLRm6C9fZXkS2NPhuMSipaXR8EflnOwORRpcK/5WBriWqdg8Jc1pSW5b/M0v8lVeArZ0PC6XOBYv1troaNwm2J2U8GDGAg877DeL8nsU8atem2BD/Wl+LveiURrxazQ2ez/0NScqj+Bv+LhZjMMaSdcJ42mVxdgjp6QOc9h3BzVG6g92PKgks1pHYEtnQn8gccoS4Gw0NNebIdj7tIx0P4851BneUiSmyYSdD1Dton097o9YG11fLJ7ILMJ/Zr2VFdijiSSGl16fdN9VkwNd5LDBNxMeRN7v/KuV14BDEhxvo2sBPo0ts8zic/hoNoclTeqnhL/WVJY5wIko9HA1++D2CDtEWULyR8wucxqqJup7xGGD1yQ4gBsd9peHcgc2q1RsEl6WnbnfZnNY0sSGAq8Q/jpTrTyDDSG3pHb0xbE1NrM/9GeStMwgWcyAbzrs86nKjQ3CbUih3lzrRzrsK2/lLixQUbNpAT4C/JvsvzA9rmUV8WQ38vscuRPrCHyC5pwHswNwC/l6VJO03JTg+Pdw2F87FasRtnM8gDXrqPhE3KIZ5bU8gGWf61fHe1FEg7Gh/qcI8z5/LP1DFPmvKwl/bemtTAGOx32JWd71wZ6b307499x3+Z8634shuOXs2bF8Y5922NDUOit+ucO+ilDmYGstt6jzfcm7zYHvA+8R7r29I/WjFOluNGHP+XrKUmzF0mQa6/HA6sDpWKK50O9xWuVV6p/b8YTD/o4p39CFDhv6Ux0VHoctgQj9ZmdROrBlaidS3NnqmwBfBx4n/Pu5DAsfLJK1kwl//tdbngW+RXHDDE/CRjXuIN+PYXyWeh+lu0xUvah8Q7c5bOjrdVT4XIf9FL08gYU43o78PrPrjz33vAALGBH6PSsv303xuEV60g94jvDfgaTlNeBSbK7SQM/vjS+tWICcr2MTipul0S8vT9T5nh3jsK+/QNcw0VvU9xy/3IeINzTbioX5XS3hfsp1AA9hB/E4Fl1pHpbIaDj2fGRNLGXwzsCu2JB8XhrehVjs738B9wOPYiMjWRtJ1/uzOxZwJI9xDqZjd/+LQldEmtYHsWfPRbcci73yL2ze0oOESVM8CLsZ2q1UdgFGBahHNW3YNflJbK7Tu9jy5nml/z8Am4g8Eeu0HIx7dL/I1lhiszh2xDpLSbwOrNeCBeOZ18sf92Qd4sUB2B6bMe7qZuDbWI+8HsOAfYGjsYkk/T3UxZcOLBXl82VlCnbizcC+tEkNxp6hTQQ2xvJcR8V36ua0fIFeYliLZOCfwF4Or5+J3X3lLaDPVOya8wJ2XX2x9LupuN2YDMCOdXUsWdfmwKalf9clPzdkYMd5E/BH7HOu92bjw9iQfNIb6cg3gPNj/q1L290BDG/Bei5xexyVlmANa0eMvz0bGwJPaiX2TOgXDtuIjMFmXZ4EbOBhe2mbjd0Fz8Q6Awux93x+6f+3YHfz0b/9sTznq2OfT5G9gD3HXBm6ItL09iVGTvUeLMbmA+0LfIli5BlZhIVGnoktFZ9b+v08rDMDNuraB2uQ+mKN/gSKsVz3dex5+A24jzCOB+7GOjhJPYCNxsb1DnadT2JbcEsB/J86dua6XvyzCQ+yJ/2AL2N32aGf/6hULz2mrxTJ2IO4nc/HlW3rg9jNV+jvWDOWmaXPwndUxbWxG7Ok9VqJrTyJ6y6HfX0YLONU0g3Ejcg2snRgSffz5zrekCSGYRMUlzrUUcV/SbI0RiRNB+B2Tj9Usb0+WPz6mY7bVYlX2rDMs2nON/iqYx3rWQ3gEqfis2DD8kk30G0pQQ8OcnxD3lfHG+JifWxiYeiTVMXKF3r+uEQy14J7ArNqQ8SjsBjtLsFdVHou9+Bvsl5PhuAW7K6ex9zfdtjPGa0kf34ANjMyjr0c9vEq9T1qcPEqcCAW4va1jPYp1U0Drg1dCZEKnVgwMxdHV/ndXCxmyHZY/BDx5x0sZPJeWPjktC0G/s/h9R8kfiCnuG1wNRMA/kryHsTHY+7IZQ1t1cxFGRiIDeVMj1FHFf/l1N4/IpEgBmERP5Oe26/E2MeR5C8WR9HKPOAc7I48a4cmqG95iTvqfaDDPn4D9kwq6Qb2iFHBzRzfiMNjvhFpGYA9o5tK+BO6Wcpsir96QRrbj3A7x7eOsY9W7PFpHiJxFqnMx8KWh4wr4Drv7YKY+3HJ43M3uCV12TRGBc902H4H+VlKMgS7K32L8Cd4nsuz2Dpal23EPflFQtkKt3P8O3XsqxU4DLfY781QZmKRBPNy8+AyV+Qt7HPvzboO+3gW4GWHDazVS+VaccupvUre4hzoi30Z/0FjpKL0UVZiOSH2xZ5d3eu4vU1ifxoi4TyM48W3Ti3Yd+x3WDyQ0N/7vJSHsBntgxO8p2lyybHTSby5c+Mdtv86WLS5pBvo7e78w45vwIUx3oCQNgN+THGyhfkubwDfw6JBRibiFsf7wVjvvEh4X8Dt+7Oew77HYSOSLznWoahlLvYYJs/JjvbE7RhvjrGPoQ7bfxvsjUy6gd7ixrsEKegEdorxBuRBP2x98PVYPoLQX440yyzgCix/QLWZql923P7nY7zfInkwCbdRwONW3WTdWrCG5gpstnvo60OaJQrX+0nymbOkUpT/JunxrsSG+HvSx2H7UyH5UFI7PS9V2NehYp3YyVzEnNaDsImLv8Ttw89TeRG4DEv81K+X47/bYT+LsXCiIkXxCMnP97iB1OJqwRLEfJ/GGRmYDVwHHEL+hvjjuBy34/9JjH0kDWA3A5L3YNt6qFArlk3J5cB/GOPAi2AL4GvA37EY/qG/UHHKTGwd6xfpvQdabhgWLzzpfm+oY18iefANkp/vM0j3JmcTLH/Kr7CEbaGvK3HKfCw9/TewmPhFjwS6K27vxwosq21PFifc9uwWYBm21C2J1tKGKp2Ee7CM92PLXxpJH2zlxPalsgP2DKu3u+o0LcXikT9SVl5NuK2DgFsd6rIfjZFytZENxu4yd8ZSNK+OLXlqxxq017B5HPdij4sa3Ra4BZepJ/2rq7Wwpds7Y/Xegvrizvu2jK4MhI8C92HvZXvAOvnWgh1fnBVztfwJm3hey3KSZbed34L1uIYnqRXWcFVmaVsPO6Fdgi88hjWQzaAfNoluQyxd74alMgmb6DPOcfvt2B39TOyRxGvYkP6UUomWNfrwQyyaWRKLsEmlLqmPJR0DgCOAjwEfwIJk9aYNu5O7ArgzvarlwitYGPEkTsDeo1BWw0ITb46NGKxR+t3q2Axz1zvw97Bgau+W/p2CNfrPYLPQG6mxr+XL2GRxF4dSO7pgB8lGkha3YA1D0kZmENaLiwwA7se98T4OuMZxG42iL10dgXHYBz0E6/FF6X8XY0NFS7AGdCk2GXEmdhcWJ12zDy+QfAnfLdhzPsmPidhjoOOxxiCpu4FTgCd9VCqHfoYlVUviWuAYf1XxqhX73CdgIz/RdWcIdq0fjHX0FpX9uwK7HkUNvzr09mj0HZLfaIO9l1tgcyLK9aXnx/E9WQC2FCDp84nKgAs/dthW+XOxIk72aHYTcPvcNfs/P9bDJl75XGu+HDideMFNiuazJH9fshr+l7Auw/079FdW/f4MctjeW+AWqKc8ENDnPRxgJ3aRkOJxzfi4ZvZVlgoTsLXVaQaZuQ1bu9xINiX5+7GSMLHqJVuTsBFa1+/PORXbdbnxegYsIlXSDUQJCz6InzSWigFfXN8l+eeex4iPzWQwcDbZrVJ5DHvO3ChacEv/umv2VZYAfoD7d6eD7o+MXHLt3A+WIznpBiZjk0fmeTiwTuAr9b+nkhO3k/xz/0GA+oo5kjD5LV7BLRJe3rhkVf1igPpK9sbjp5O9EpuUC7aqI+l2/tKKWz7hzbET30fwlhcIOxtWkmvBbeLnY74qIrFtjS3V+y1hHr+sDzyATWxqBP92eO2G3moheTYTP4nO+mCxHQ4AxjhsZx7ApSTvQSxzeG156cBGE6SYVsPt8+8t0IX4Mwb4KW6pSn2W2di69KI7kuTvgUvsDCmWAdgybB/fnSVY8LSkr78C4DRPlXEpV7m8oxLc7iT/7OfTmDPD86YvFqNhDuG/75VlERZmushc8rK/EKC+Eo5rmHxf5bsAnwpciddwWx8p4R1D8s//nuyr23T2xWb8hr7g9FSWY3fRRTUct2Pvk32VJaDrCP+dOxYssleoCiwBtnF8IyW880h+DmgCYHq2AP5C+AtN3NIBnEUxk4CBxTBJeuxrBKivhDMctyX4PspeYM9fQ1XgKMc3UfLhNyQ/B74UoL6Nbg3g5+TnOX+95Y8Uc238AyQ/5u0C1FfC2gG35GmuZU2woaek6QRdimuyIMmPO0h+Hij8rz91LZSYAAAgAElEQVQjgfPxE3AkdHkSy5FRJC4TsvYPUF8J738J8/1aStncq6cy3vmdhM2AJ365pH7eIUB9G80ILH3qe4RvuH2Wmdg656Jwyf3+meyrKznxS7L/bj0HXT2A59M9vm6eBA4neQIDyZ9RDq+d6q0WzWccNv/izdK/LmuCk3gRW1J4MXAXdmHxaVxpu6dSjJUi8xxe65JsSYrteLKfDN0t5fu3yabX8TqWYUwaS9KlZe24pxttRmtiyUUWk/2dw0LgEmDdKvWaDMxNab//IP8T5b5K8uP7foD6Sn6Mxi0sf73l0vKdfzSDHc4leapYybekc0g0ClSfTbE02Wkm66lVlgLfwy5UPdkGt9nwPZU55HupoEtWwMsC1FfyZTzZLdc9unzHLtms4pSVaJJLI1tAsvOiI0RlC6YPcCg2FN5B9g1/J3AT9cXt3wS3NOO9levxE37ct8NIfkxXBqiv5E9WnYCNy3fails2q97KqX7eG8kpl8lnRV3znba1sEdzbxKm0e/EctXvk7D+65DuOuc3sFjoeTKZ5MdzbfbVlZwaT7qPA+ZS5bp7a0o7+6uXt0TybCrJzw/NAegyEPg4llmxnXAN/3vAl3H/bFbDEj2lWdebyM/cAJegar8NUF/Jr9WAd0nnO3N7tR2ensKOlmF3MtLY3iD5OeKygqAR9AcOxNaQzydco9+JPaq7gt6f89djKG6pcuOUhcC3CB88aH+SH8NNAeor+eYyotRT+W61ne2Swo5+6uVtkLx7mOTnyFYB6hvaECwA0i/IT3Kee0nvs+gLXJ3BMbyLTcQLNap0UIw61iq/CVBfyb80Os8HVtvRAPxHBNzRz3sgOfdbkp8jHwtQ3xDWAr4I3EaYyJu1ylvYY4csnEY2jzZexjoCWQcbO8ShztdlXFcpBpdOZa1SM+bEvR538h7FCN4h7s4n+XlycYD6ZmEc1rm5EphC+Ia+sizAogcOSusNqOEALGBOFsf4OrY2P6sVAy7LqX+WUR2lWAZgj9J9fSee7Wln3/K4o4edD12K4niSnydZRqFM00bY2tqfYKG1Qy3Z6620YY/mJqTzNsSyCfAS2R3zQmxuw9YpH9cnHOr445TrJsX1b/x9F3oMOLWVxx1pUkvz2Au3c6VIj4pagPWxtflnYel2ixCDvwP4E7CZ/7ckkZFYfbJ+H57CliWnsXLgLId6XZRCfaQx3Ii/83/33nb2uqcd/crxoKU4hmB3lknPlTvIXzyAvsAGwH7AScBVwIPY3WToxrzeciuwrd+3x4sWbIg+RErUDuAJ4DtYB9R14uBI3GI2nOC4f2lcl+DnnJ9NjPPcJaNVebna8aClWFyHqaouTUnRIKyB3wP4JJaW84fYJL0phM3T7avcBmzv6w1L0U64LSX1URZh+QbOwSbzbYBFYYxjDPA3x/3vF3Nf0nzOw885fmPlhqv1Bm7B7nhcLfWwDSkO18bmTGA34HdYT9XVSOzCPLrs36hMJPvMeVnpAP4PuBB4JHBd4noYyyHwI+CoQHUYgkU9LI98uBSLZvgOlt/gbSwB02Ksg9iBhVQ9Bvfz6SXH10vj8tWWxgrK1w8/a5Mv9FRpKYY9CX/H28xlMTbRbYPePqic+ygwi/DvZ5blRS/vnDSqU3A/x1ZSpZNabZleGzaxyVXc4TNpDErzHMZ0bPRkLSx87ythq+Psj8CW2ATBZnFr6ApIrrV72MbdVBlZrbVO/3oPO8wiGtcE4P3Y8KHP8KVSvy1DV6CJdAL3YMPl62DPCH08NsmL6VhmvUOwYfdGd1/oCkivBmBZc3fEVgFlGeOmv4dtXFvPH7fivhrgCg+VrqYP9sztiYr9tQP3Y5GTJHt/JvxQaqOXd4HvUfxh/noMAy7FbZVJ3stx3t4t8W1jbEVb5eqfqcAFZHPj+U3czq95JAj4dbbjTq+q/zh7NRobyuht37/GMqtJdkKmrW3k0oZN6juI5s6cuAn2aDL055FGadRomEV3LLCcnj+7acDOKdfjnF7q0FtJ1Bavg1vcbt/JLQYCD9Wx/5vI39ryRjWQsOlrG62swJaVfQ4YW8fn0AwmA08S/jPyWTQHIH8+RfzPbyHpPgK9qI66VCuJOyh3Ouz0b0l3WkOSXtDRnusg1W1C+Ito0ctSrCE4GqVI7k0LcDjwNOE/Nx9FqwDyZSIWF6Kez/A/pDcv4Od11qW8vOCy4/9x2PFDLjuuMJhkEdimeKyD1OaSB72Zyyws7sEngOF1v+vSChzBqvOBilaWotHKPLmQZJ/jR1Kqz80J69MJnO6y49UdduyzV+uSEnFzj/WQ6r5E+ItoEcoiLGDSqcD7ULZMn/bClg4W9VGUHvXkR9JEVT9PqT73JKxPJ7BDTxvubVLRDOwLlWRN/2oJXlPLxg6v3QR4zldFpKo0Eqs0gjYsGt8/SuUR7Pm++HdPqayHTd46mmKdl5OwpFISVl9smV8Sm/isSJlxDq+d2tP/7K0DsBLrBExKsOMR2LDmggSvreTyTFTxAdLncoI2krewRv4RLDfC48CSoDVqPq9hy6a+jU0Y/DRwILacMM9Wx+Y0SFjDSR7ELq3w4mslfF07FlOjpjjLiqaSrAMAVvFnE77WFz1bS1+zdQDasWHCp0rlyVKZEbJS0k07cHupDMA6A4dgjxMnBKxXLYqkmQ95ay9GAUMTvnYmdhNfU5wOwLtYtL0k8tABkPQ1agdgLvAq1ti/gE0qfalUlgesl9RnOZYI5a/YBX5zLOnPvsAu5OP5+8jQFZBcSnr3D70M/0P8EYCk1nN4rRRHER+zLMY6tzOwYB7TsOiXb5SV+WGqJinqxG5KnsXSPwOsDWxXKptgkRY3wFYfZUWrQKSadR1eG7wDsJnDaxtRf+x55C7YMOQS7LnfzVgDlIXRWJz192F3HbOAR7Foc4sTbtPlQrk+9ohpa+xObBQJwlZWsRi7g59T8e9s7L1OeqzSeN4slZsrfj8J+55OwEa5xmLf4cHYYwWwlR1zgeexc/jShHUYkfB1cbUAe5fKmqXfvYDFnnBaK16HgdhSuR2wCZqzgWew1Rt6fFady8TCd31UoJ6ISJXlHh8VwJKdJK3D5z3VwdXHsc5UtTq2YXcjaU5UGoAFU1paow5zgBNJ9gxsZo1txilDkh6QSM58lOTfg7SWkIElsHmmh33fgttQcxzHUDvN8zLgEvIRvn0MyT/DNAI6XedQnzN8VOB9DhXw1asregfge8Sr6+Ok8zx9MDYZKk4drqf+9en1Rs2KSgf5m3QjktSHSX6d+nVKdTqSeImUpgFbpbD/FmxUJM578AjhH4XkrQPwqEN9vCTGG4BbJi4f8QCK3AH4HPXV9yn8LicZhK1Br6cOZ9e5j5V1bj8qGoaXRrIXya9Tv02hPttjcSfi1mEWsIXH/bcAP6pj/51YVtGQ8tQB6EPym6tO3OYPdPOsQyV8hEcsagdgBDa0Xm+dn8PPBMrxwL8S7H8ZlgwqrqTR1xY6HJtI3uxB8uvUH1Koz78T1OM9YE8P+x4I3JBg/53YPKlQ8tQB2NqhLguIMboad6jXJUDFjg6vLbojSRbEaDPsccAxJB8iPwQbTdglwWsHAJ+p4+/bE+wDFApXGovL+Zw0+Ewt22IjAPUaA9wFfJfkz+R3xIauj0r4+uMTvq7R9BjGtxfRTXuP4p6wzzhUZCeH1xbdHg6vHQn8AngM+Bg2+7g3fYADsMmXf8Lt8Us9dVcHQMTtfPY9F8bl2tMXOBOLe3EC8WMU7IqNZDyE26OEPdDcIEgefwdixt+JswwQ3EYAti/tp8eIRA1qzd7/pFfbYhnj5mI980ewoaZ52CS6kdia5e2BD+IvytnadfxtR8J9+L7rEQnJpQOwzFstjI9rz5rYM/yLgHuB+7Elg7Ox1UQjsefM2wIfwN8z5+HY49N5nrZXVElGbyNeOwBPOVRkGNY4uaQHXurw2pCx2H1GixuFpT49wuM2e1LPBWkZyWIB9MMeNyiqnjQClyWtLte4anwmnRoIfKhUshIqaZbL5+DzMxyPWybbWG123B7rO1iUtKQmO7w22n9Sbzvu20WRwyDXU3eXyXx5T9IiEpfLEjbfHQCXx7ahvUq4G7cl2MTtJN7yWI+9Sf4YZDk2AbRX9QxZ/TNZXQAbHnJxJzEmNFSxCBsyD+WWgPt2dWsdf+sSMjerdb+rAdsAGxFvPoUU20jsOfTmZHeOuUTz890BuCOFbWalnmtPGu5K+Lo7PdZhb4fXPkIKn/1RJF+SsAL3O70/J9jvZY779OEBkr9vocrL2PB8XPc77Gu7OvZTr0HAaVjynvJ9LsLmVaQR+ETCacEmzP6L7ktTV2LPsL0ERunBN0j+PfhmCvW5zKE+ocoi6pt/lIa9qL/e8/Abv+WNBHWIync81uO/VneoUCe2JM7FRtidZtz9vUl6+ZnrsT42gS/0FytuWUb9KzeSdM6iktaa341YteGvLCuB/01p/5KtYcQ7D3+Ln1wT1fwwxv5rlTTilQzGLYZLiPK5FN6HJH5NffX+gsd9b1PnvivLPh7r0s0Uh0r9zsP+P4AFOOhtX1OxIAp5sRPx6h26rCBZ4KarHfaZxoVvIjb3I24dTkmhDpKdvtiwbdzP+zbSWYFyUx11qCyHplAfsFVBLzjUK8tyZkrvQRKDiH9OXeB532fF3G+1spwUs1he6VCxhfhJ9rA5tUPbdgC/x0Yr8mZ33MI6pl3agMMTHtvZDvs9K+E+e1LviMRKlLmyyE6l/vMujY7ngwnqEZXdU6hPZC1sEnfoa0xPJZVha0d9gW9hbVe1Or+J+8h2NY/V2F+ccl8K9fmvIx0q1omfsMCRLYCvAZdjySa+jJ/wuWnaBjtpQn/ZKssC3Ibij3fY9y8d9ltN0uGzX3muh2SjHxa+tt7P+038B5t5K0E9orKh57pUmoRNDgt9raksK4HTUzxuH0Zgbd95wE+xm5YPUN88qbg2xO39PCeFOv3XCOwZcdLK/T7NyhXEJJLF6E6rvARs7HhMBzns/37HfVc6O2E95hE/Lobkxz4kP/dcIq1VGkzynBjtWDyMtA0CfpOwjmmUObivEGs0Z+H2nr4v7Qre6lC55eRjYl5o/bBe73LCffk6gKvwsw5/c4d6TPOw/3K/c6iLj+hpkq0vkfzzThqrvhqXiVtZxyo5AovmF+ra0wn8HXs0Id29SPL39LV6d5YkdKVL1qr+pPPMpGjasIkjO2NJf7L2ErAvNnTvIyPfKyTPB7AabuunKyVJvhRR57R48vJ5u4yive6tFvH8AZskHSJOySzgWGA//AbOaQQ74nYe3VTvC5J0AG7FLXTrZxxe22iewMIkfwS3cMtxvY01+lvgFtip0nLcvsx5WbGhBCTF4/KZ+fy8N3V4bdYdALDoqodgNyH/yGB/i7Cbng2xJGeyKteJqXV3AJJyWffdiVuaw0bVB3uWfis2McbXUFsH9gX/BOk+Z/y7Qx1P8liPOxzqkfrzM/HuTJJ/3l/xWI+/ONQjD5PgdsYaZt8rlZ4CTiR+RsFmNRJYTPL3+W0yvIE52qGincANWVW0oCZhgSVuxian1fv+LsbWOp9MdisjLklQz6j80mM91AFoLnnpAEx1qMeHPdbD1XDgf4BrSXZMbVj002+RbpTPRvMV3NrUy5PsNOms5+gxQNI7yo9hEdimJ3x9o5uKxVy4EvuMNsDWqW+CxTgYjk3ea8We4S/AJtO9iAX9eInss2n9x+G1GhFa1XDs0dD7sdnb87H5IreSXYz3NYCDsfOuPzATW7VxF8lTQDeiSVjwqaTylDRsAXBjqQCsgz3e2BybtDcMOzcHYtee+dgyzCnA89j1Z1GmNS6+PthkVheZr7C7AbceS6rrFSVzLisBOoCxnupR9BGAVmxIuFbY67nACbjlnu/NaOAaaj+KmoJ7hk9f8jACcJhDHeajuSfN7nDc2tIgHchdElY2KrNRKthG0ge3Z1gHe6pHkTsA/bCZ2XHqej3pxC1Yg3ihY9ux4Fuh5aED8COHOmQxAU/y7SHc2tITk+7Y5S7iQeBJh9ePxu5kpDG047aSYQ9fFSmwy4gfLfNTWCfAZ0z71bHVIZvE+NtWLPnN/h73X1R7Obz2YV+VkELai/qTr5VbQsA5dZ/HrecyExiSea0lLReR/FzwNYxV1BGAbUkWSe5W/IykbUmyePGvETaCYugRgPHYI6ykdUgrG6YUwz24taE/d9m563PEG7FnWEmNw33yg+SHSyKKaJJRszqeZN/Hg7B4Ensm3G9f4KvYneg6CV6/LvDBhPtuBB8i+TP8Tmz4V5rTB0j+vY1c6fJi1w7AImwY0sUZ2OMAKb4HcJsdvp+vihSQy4VgA+xO4tbSduI0SIOAT2MjL5fglkLU9SJWZC538C9gc6Gk+bQA5zpu4wngUZcN+Bi6+wk2GShpZ2IU8E2Uk70RzAWexuKiJ/ER4Gp/1SkUH6MfB5XKG9ijkMexIfq52FyBcdjz/V2xUNDDPewTYG1P2yma/tgIQFJ3+qqIFM6huC9/vsxHRXxwScDSiWUYzHsqX4nnQtzOA9eIYS7JquJMfktLkoBPeSnXpfB+xHVKD/XqrRzvuO8POOy7k3wFAJLsDABexe3ceRkPN/C+1hJ/B7eh3wFYwyHFd5vDawcQfxZ8Le8kfF0H8K7jvl3kKRhMvULWPennDe5Z+D7h8NoVwL2O+5di+iruN7znY3E6csN1FKATLSlqBP2wIeek58CfHfefNKjGg477dXUayd+zkKUDt0Q4rsaTLHfGMtxWTwzEbdTmnw77luKaiEVbdPnOvY5dZ3NlM5ItYyovb6BlgY3g9yQ/B9pwC6s6EMtMWO9+j3bYpw+jsFSpoRv0ektmGch68Afqr7fT8ingiAT7LC8+E2BJcbhcG6Pi+ugqNT5GAc7LvNbi21G4nQOnOe7/MOpbm30v6YbWjesjuHeisyzTgAmpvBP1WY/6Rp2mY/H7Xbhk/+sA1nTcvxTPwbh/594m3ayuTrbA/QK2nPAhWcXNcCxhTdJz4AUPdTiVeJ2AJ7HZ8XnxWYrRCZiFfd/zYh9q508oL+/hFnkNbNWDS8ruRxz3L8UzApuv4vq9y0P47R5dh/tBPosN5Upx/RG3c2BvD3X4MJa4ptr2l2OhbId62I9vJxC+ge+pzCWfqV43xWLr16r3X/Cz2ui8HvYRp7iOcEnx/Bz3793z5PDZf6XViNcT761cnHXFxauP4vb5/8lTPfpid4dnA1cBlwLHko+h654cicX5Dt3YV5ZXsPk+ebYV1shegSXqOQV/ExX7Y48+kr5/7Wj4v9kcip/vXmEibn4N94Ntxy3JhoQ1CLfZriuxMLPNbCfcGhvf5X7y9bgkhM/g9h4q+E9zmYSfyb23ZF1xF/2A53A/6HfJ/52a1HYVbp//5dlXOXfGk2yWu8+yAvg+BRh+TFkL7te1ozKvtYTSCtyO+/dvGbB+xnV3ti9+Lj534TflqWTn/bh99otRBzByJNYhzrrxv5/8D/ln5SO4vZcL0DLnZnI2fr6D52dcb2983bl8N+uKizeP4/bZX5B9lXOrP5aCezrpN/zPYmvdk2a6a0QP4/aeXpF9lSWQ/fGzmudd8jlROZa1cI961Im9kQdnXHfx4wu4ffYLgLGZ1zrfhmHv62P4bfRXYIF99icfcRHyxPXuP3TERMnOuliWRx/fycK3e8fi541YAmyfcd3F3RBs7bXLZ39p5rUujq2xbJr3Yg14ve/tXGzJ5nHocUstrcB/cDuHb8+81hLCMCwjqo8275dpVzar4b1bcE/yAhZIYUdgqodtSXbOB77u8PrlWKa+N7zUpnENxe4yNy/9OxoLQDISC7G8oFTeAl7E1hVPwUbYpLZPADc6buMgLA6BNK6+2GfskiI68g6wJZZvovAmADPw0yt6DAv1ujt2kdPwcP5Nwmayunzuv8q81iIwGOt4upy7z6FHKo1sNNYWua56ikoHGa35z3KCzyH4C+5SaSU2zDyrVGZU+e9ZwExsUsXilOohtf0COMbh9Z1Yp+9ffqojEsvZwFmO2zgauMG9KpKh0diN63gsOVn5z+NL/71a6ef+nvd9JfBFz9usKusZvq6NgC+LsQArM7AZ1dPo6hzMLP339NLPbYHq2Gg2BZ7BbUnnk9jSQg1ZSxbWwR6TDHLYxuvARuQsd3uTqmzUo4Y8i0Y9rtexSJaLsthZ1h2ANYGXcPtCZW0m3TsFM7A5CDNL/0adiDmhKlggN+AeCOVE4Mce6iLSm1uxZ/cuvojd0Uk6qjXq47HHjnlp1OuxEvgz8DNs4mhHmjvLqgOwDnAytiJgWEb7zNpyuo8iTC+VWXR1HKKOxIJAdQxtAyzTX1+HbSzAstC97aVGItV9HPiN4zZexyavrnCvTlPpqVEfhzXoRWrUk3oDuBAbOV+exg7S7gCMA74NHI/CiJZbhnUMopGEqGMQzVeIfp6OLdNqJD/HUt66+Du2Vl0kDWOxiXvjHbdzFPBr9+o0BDXqyb2DheK+Cs+PktLqAPQFvgqcieWGl+RW0DWiMKPi56gTEU1wnBWojvVYG1uC5pru+RjgWufaiKzqRmzpn4snsZTJqQ7hBtZbo17+fF2NurtnsEeg9/raYBodgK2xu7w85gtvdG10jSJEkxijn6NVEdGIw3vYSEQI5wHfcNzGAuB9wGvu1RH5r6PwM2N/P4oZ/Cduoz4OGBCojs2sE7gOe6Tu/CjZZwegBcu7/T003F8Ui+gaSZiFdQrKOwiVyyqXetrvUGwy6CTH7TyMLQ3UDGvxYV3szt111PKvwIHu1fGiH/ZIYyxdk+Kin9WoF9frwKdwXBbtqwMwAhuOPcTT9iSfFtPVSZjdQ3mv7OdaMRc+jZ8h/IuB02nsoVZJXz9saHVnx+0swyK4veJco+r6Yg31WLoa7+i/o7v18v8enVI9JLx24FTgsqQb8NEBWBv4G0p0IdUtY9XOwXvY5MaT8ZMe9RngBOA+D9uS5nQZdj66Ohf4Vsy/HYo10FEZVfHfo4ExdG/wx3ioozSWnwNfIsFqE9cOwDbAbdjwkUhIK7CENncAC1G0R4nvf/AzW38xNrI1kO6Nea2f9ahUfLkTG4FfUs+LXDoA2wF3YYlGRPKmE0uksQCb67Cw9O/csp8Xlsq8st8tKf33stLPC7A1uAuzrb6kpBV7ZDkQC0i2AXAzfkaiREK6FwtcFftalbQDsBVwNxqOkuayGOsMRB2EpcD80s+LsS9eG10ZvBZgz+mWlv6mDetkdJb9zUJsEmPl30Tm05jzG6IGGKxBbsWeb0eBwobQtXRsVOnfAVhynspGfFjpb3v73XDcQlGL5N39WDbCWBO2k3QA1gYeQbnDRUIoDwxV3pEA6yjM7+X1lR2MevSn+p1yrd9HDXYkarhFJD03A0cQ48ah3g7AMOABbAQgC+9goWNnYbH2F9N1ZxDNch2HzUFQwCEREclSJ11B2GaUyiKsrVqBPSIfA6wObE527dRlWDC+HtXTAWjBehZpLvV7BZtUeBvwb+oLgzsQ6wxEa1vLA1lU/n6svyqLiEgDaaerUY8yxUbJ36JgatPKfq4nO+k6wB7AAdhQfZpz6D4B/LanP6inA/Bl0snCthT4PXA18GAK26+mH907CdF62igWdfnvx6HnhiIiRdZG98ioUa6VagnbZmF39mkbAByO5crZI4XtLwS2x4KuVRW3A7A58Ch+0/i2AdcA38V6U3nVSldHIOokRMkropCZ0c/jUMxrEZEsRBlYo7v08gRr5XlSZmAxSPJsF+B8/HcEHgd2oka01DgdgFbsznxHj5W6H0sN/LLHbebFKLrCbUbzE6Kfo1CcUYdiLNmlZBYRybuldM+IWp7XpDwJ2jR6n/BaRIcBV2A3lb6cBlxU7X/EaXy+APzUU0WWY2Fbf0RjLm2qVx+6OgPlnYOxdI00RGU1upZIiYgUxSJWbbxrPVdPukKlkYwBfgJ8zNP2lmDhqVdJnNZbB2AMdpc+qpe/i2MG9rzDKXlBk4smOkaPHso7B1HHYQJdIxCuKXdFRCq10z15WHlCsRll/x01+nVFp5P/+jqWObXVw7b+QJUORW8dgAuw4QNXrwCTgTc9bEviG0LXcsmxWIduLN2zg5X/bgya8CjSjObQ9ew8aryjRn5Gxf97j2wmyQkcis3kd51b1onNBfh3+S976gCsBrxK90AeSbwK7IWt6Zf8q+wojKGrAzG24v+PR/EXRPKoPCtnlIAratTLG/ko7XdbmGpKDIdgK+Vcc0f8A7sR/6+eOgA+7v5nAjugO/9GFgVlquw0VGY1q8x0pscTIvEsZNU03FGjPqvs5/JGv5616ZJ/RwE3eNjOdsAT0X/U6gAMBt7GLZd0G9bbUIpWqWYwq3YS4hQlbZGiWokNtc+tKJV36zMrfrc8RGUldy4CTnXcxq+xzgRQuwNwHBaYx8X/Ahc7bkOk0gC6dwhGlMrw0r8jS2V4xe/L/79IUh10NdzVGvOefq+MkuKiD3APsJvDNtqANbF5HTU7AA8Auzrs5GGskhqGkjyq7DRUdhAqfzcIe4QRZZUbWfrZdX6MZKcdy844n6400ItK/z2f7imi55f+dmFZiRrxRlx7LsWxMfAkbo9QvwJcDtU7AGsBb9T4f3G0A1sDzyV8vUiRROlmh2AdhgFYvIahpd8PL/2/gaW/HVz6eSTWmRiI9eyjyZTR7yj9TQs2+Wdo+ocSTJTFcCXW2K7AkqlEKZeXYMPgi7A7mCjN8rzSa+fR1cAvK/3dgtLvo4ZdS9GkUXwTONfh9Y9hIYKrNvKnUiNqUEzXAZ9xeL2I1BZlw4Su+BzlaXeHAX1rvHYo9c0krkzzGzXMkWrph+fTPchX1HjX2kY9Cb9ExL6Tr2LxXpJanyqBgQDuwtYMJikrgPUcKiUiIiI9O5nk7XQnFuF3FQOxIbekG/2j76MUERGRboZgo21J2+qbq210svO7G8MAABiGSURBVMMGO4H9fR+liIiIrOJqkrfVc6gyBeB0hw1OQ2FkRUREsrAbbjfs61UmGdjGoTJ3oGV/IiIiWXgIt0m021V2ALZ02NidDq8VERGR+NqBfzq8fsvKDsDaDht72OG1IiIiUh+Xdnet8g7AaJIHG1kGvO5QEREREanPCw6v7dYBmOSwoZfR838REZEsuXQAVi/vAAxz2NAMh9eKiIhI/WY5vHZoeQdgkMOGlOVKREQkWwvpHnq7HkPKOwADHCqxuPc/EREREY86Sd7+DirvACyv+We969/7n4iIiIhnSW/el5V3ABY5VGBI738iIiIiHg0g+Q34Il8dgHEOrxUREZH6ubS93ToACxw2tIHDa0VERKR+Lm3v/PIOwDSSzwMYDYx1qIiIiIjUZyOH175Z3gFoxy2a304OrxUREZH67Ozw2pcrcwG84rCx3RxeKyIiIvXZw+G1r1R2AF502NiBDq8VERGR+DYB1nN4/UuVHYAHHTa2ObCFw+tFREQkniMdXrsceLzyl+OwsIKdCcuFDhUSERGR3rUCU0jeVt9Xa8MvOGx0PjDc51GKiIhIN4eQvJ3uBM4F60VUusOhUsOBzzm8XkRERGprAU5z3Madtf7HLrj1LOYAYxwrJyIiIqs6Arc2eirQp9bGW4A3HXfwI3/HKiIiIsBg4FXc2ufLe9vJRY47aAf2dj9WERERKfkxbm1zJzbK36P1gZWOO3kThQcWERHx4cO4rdLrBP4Td2c3O+6oE7if5LmKRURExIL+zMW9TT4q7g5387CzTuDX9DDhQERERGpaE/fn/p3AO0D/enZ8j4eddgI3oE6AiIhIPdbEcvT4aIdPqnfn22AT+nzs/O/AiHorICIi0oS2xn1FXlReoc67/8h1nirQCTyL8gWIiIj05NPAYvy1vQcnrcjqwDyPFVkKnAr0TVohERGRBjQBuAl/7W0nbtF9ATjac4U6geeA/V0rJiIiUnADga9j+XR8trNzsXkEznwsC6xW/g18Aujno5IiIiIFMR74NjCddNrX2Mv+ejMOeDulSnYC7wE/w0YFhvmqtIiISI6sCXwW+BuwgvTa1Bt7q0hLnRXfFgvuM7jO19WrHXi6VF4BXgemATOAmcCslPcvIiKSRD/szn61UpkIbFAq2wNrZVCHx4E9gCU9/VG9HQCAw4A/UD2VcJbmYp2CqaV/59b4eRrWGxIREUlqFDCp9O/E0s8Tq/xuPGHj3kwHdsBG7HuUpAMANov/ooSvzdoybNRgaunf6aUyk65RhRmlnxcHqqOIiGSrBWusx2ON94TSz5OwR97RHXz0N0nbyyzNAz4APBbnj10O6BTgYofX59Eyao8klP/ubWBBoDqKiEhtg6h+Z175uzVprMnn84EPAY/EfYFrj+Y04ALHbRTVfKxDUD6SUGukoS1QHUVEGsEouu7Gq92tl/+ukRr1uOYBHwQeredFPoY0PgNcibL+9eQ9uj9qqNVpmIVNgBQRaXTDsYZ7PNZ4T8Qa80kVvxuP2peevAZ8BIutUxdfzzR2w+IEjPO0vWbVgXUEyjsFM7CRhFl0dRxmlcrKMNUUEVlFK9YGjMMa79VKP4+v+Dlq6AeGqWZDuQ84HLvJrJvPSQ3rYKl/d/G4TenZrLISjSzMouvRQ/TzDHpZDiIiUsUAuobYx9M1OW4CXQ199PN4wq8OaxadwOXA6VgsgUR8z2rsA/wvcA4JMw9JahbT9RhiFquOLEQ/R0VEGtMwuu7Cy+/IqzX0yuCaP28BxwB3u24orWUNWwE/RaMBRdUOzMaGlaJ/o45B5e9nlv5dFKSmIjIQGFMq0V15tHRNQ++Nox2LlhvlDHCW9rrGg4BLgfVT3o+EtxyYgy2TLC/lyyfLyzt4OolFGkx5wJnyMrHG71ejGGvUJbm7sKX3T/vcaBYnzQDgc8BXsFCIIpFFWGdgXo3S2/8TyaM+dDXOI2v8XPnfY7E7+KEB6iv51Ik1/BeW/vUuy15jKzYi8BVgz4z3LY2ppw5CZQdiadm/lT+LgF2TRmLPyIeWynDsOfiQ0n8PK/1N9P+jRry8MVcyM3GxBPgNcBnwbJo7CtUIrwkcAXwMi1mszoCEVKtjMA+LDrmkjp/b6Xq0sRAt1fRpMDaiOAzoizW2fUv/PaD0/4dgE5BHlP7fCCwwzFAsQtzA0t9H/5Y35kOyOxSRbpYBtwG/B/5CRmHp89DwTgR2x2IJ7AZsiX1xRRrFcqyD0Il1EsAef7RhS3iiL/tKrNMQWUb3EYrKDkVvj0EqX+9LCzYJ9EFsjkdaBgLHAkdi14WRKe5LJEuLsJC9D5TKQwTIRZOHDkClfsDa2HyB9bHUidGs1miJynjUSRAJrRO4HVuL7HVyEvB+7G5oXc/bFUlbO/AuqwZzex14FUtxn2bHObY8dgDiaKFraUsUcSpa8hJ1FnZDz+JEsrAMCwn+O0/b2wFb46wheSmSTqzT+m1gSuC6xFLUDkAc44AzgC+ida8iaWvDkpHc47idwcAL2MifSFHcBnwTeDJ0RerRyGEbZwFfAzYCrkGTsUTS1A+4GvdMbF9Ajb8UxwPYHLYPU7DGHxp7BKDSRsB3sNUHjdzxEQnpcCwxWFIPAzt6qos0hihJWpTzZAaWe2Y3wrVh/wHOxO78C6uZOgCRbYBzsR5bCJ3AX7Gh0sqQndHPzZjPWhrDNcBxCV/bgq2Y0Pnf+NrpnuG0PAtqlKtkWtnfdJRetxnwXeBQwrRfU7Bn/L/HruWF1owdgMiuwPeAPQLt/0nsmVG1HuQYujJslSfnKP95UunfQVlUViSmfwL7JHztEJRTosja6bpTr9aQT6d7ptKO6pupah3gbOAoLNJi1t7BktxdSwM9Tm7mDkBkMvB9YLtA+38Y+AZ24UxiEKvGCa/1s2KGS9ruBvZ1eP0iNPs/b+bSlc9japWfo39n4r9xHAucCpxMmMncs4GLgB/SgFFD1RiYFuCj2ByBTQLV4W/YM6UnUtzHILovmyzPEBb9Pvp5dIr1kMb1S+CzDq+/BwsVLulox7J3Rhk+o7vxWXRl95xZ9jczCTPUPRJLLX8yYTqEC4EfAJfQPThXQ1EHoLs+wNHYUFOImcidwB+wZ0wvBdh/uf50xVoYj/XEozKu7Hdjyn6vyZVyJPZ8NKljsXkEEk8b3RvrqPGOGvTpZf8/+n2eDQZOAk7DRi2ztgz4CXA+9n41NHUAqhsAHI89ox8fYP8rgeuxZ05vBdh/Ei107yREHYVxVX4/BhthGBGkppKW14BNsfDGSfUFHge28lKj4lmApdWeQ/eGPLpbr7w7b5SsmP2xrLFnYqOSWVuJjV59B3ve3xTUAejZUGwI6lTCxCFfDlyJTVacGWD/aWvFOgKjyv4dVeV31f5VcKd8aQf2w0/a0vWBf2GPoopoMZYQagGW+2FOWZnby3+3B6hvSK3AJ7FR1/UC7L+DrlHXQkTv80kdgHhGY0NSJ2JDVFlbhKWGvJiuTHPNbhBdHYIoo9uw0n9HP0fpXEdW/G5EqQzFRnvEzQrs7u0Gj9tcG7gR2MXjNnszF5votQT7ni0q/bwIa8gXlH5fWRaUXhv9d8PMEk/ZwdiS7C0C7b+Q0ft8UgegPhOxE+Y4bMgqa3OAC4AfYxcmcdefrrzuw+neUYjSx0YpZqM0tCOwO5dRpX+j1LPDSn83pPS6QXSlsG1Ud2OTtdKavLo/NkF3W+zzAbvDXoE1vO10T8McZVSMMjAuxZ7rLiq9Zl7p9UtKf7eg9LO+T9nZBxvVDBXw6QEsTPwDgfafG+oAJLMuXWtSQ0x8m4b1nK/B7XmrZGcoFuAm6kxEok5FZDjd1zlHnY1I+cSoFsI8mmrHzsEHgDcD7F+KaXus4Z8caP8NEb1P8mNTbMZzBzaDP+vyJvB5wgTGEBGJYxPCXidfx66TWqUkqdge+DNhTu5O4Hksx4FGdEQkL9YErsKWKoa4Lr6NNfzlI2wiqdkVuJdwHYFHgINSP0oRkdrGYtFVlxLmOvgecDoKky6BTMYmRYXqCDxAuBwHItKchmEN73zCXPcWYh0PxReR4FqxYfkphOsI3IllPxQRSctgLF7KDMJc55ZjjxqKGjdCGlg/7DnUO4T5crRjE3A2SPtARaSpRNe2dwl7bVs37QMVcdUf+7JMJ8yXZQXWS56U9oGKSEOLRjdfJsy1rANr+DdK+0BFfBuKPSebR5gvTzRcFiLHgYgU22RsPX2Ia1cn9lhz29SPUiRlY7AJK0sI80XShBkRiSv0CqcHgb3SPkiRrK1B2LWyWjIjIrWEjnHyDPa4QaShrYN1BFYS5oumoBkiElH0PpEANse+eKF63PriiTQvRe8TyYGdsExroToCGnoTaR6K3ieSQ5OBxwjXEXgI2Dv1oxSREBS9TyTnWrAY/08RriNwJ7Bd2gcqIplQ9D6RgokCcLxKmC9tBzYjeKu0D1REUqHofSIFF0UVnErYL/F6aR+oiHih6H0iDWYI9vxuLmG+1NEw3mppH6iIJKbofSINbDRwNrCAMF/wRdhEnpEpH6eIxKfofSJNZBzWEC8jzBd+NtYRGZbycYpIbYreJ9LE1iJsVMGZ2KOJAWkfqIj8l6L3ich/bUrYC8Kb2AWhT9oHKtLEFL1PRGoKPST4PDYk2JL2gYo0EUXvE5HYQk8KegQLaCQiySl6n4gkNhl4gnAdgQeAPVI/SpHGouh9IuJFFBhkCuE6AncC26R9oCIFp+h9IpKK6OLyDmEvLhukfaAiBaPofSKSiSi88HTCXGxWYMOLk9I+UJECUPQ+EcncUGyC0TzCXHii54zj0z5QkRwKPVFX0ftEhDHYTN8lhLkQaaaxNJPQS3UVvU9EVrEGYYOMaK2xNDJF7xOR3FuHsOGFFW1MGomi94lI4WyO3bGEuGjpjkWKTtH7RKTwdgLuJlxHQM8spUgUvU9EGs5k4DHCdQQeBPZO/ShFklH0PhFpaC1YjP+nCNcRuBPYLu0DFYlJ0ftEpKlEkcteJcxFrwNbSrVl2gcqUoOi94lIU4uiCk4l7N3PemkfqEgZRe8TESkZgk18mkuYC2L0/HO1tA9Umpqi94mI1DAaOBtYQJgL5CJsBvTIlI9Tmoui94mIxDQOa4iXEeaCORvriAxL+TilsSl6n4hIQmsRNqrgTOzRxIC0D1QaiqL3iYh4silh76TexC6ofdI+UCk0Re8TEUlJ6Gepz2PPUlvSPlAplCg1tqL3iYikLPRs6kewgEbS3BS9T0QkkMnAE4TrCDwA7JH6UUrehI7e1wZcj6L3iUiTiyKqTSFcR+BOYJu0D1SCU/Q+EZEciu7K3iHMxTmKKrhB2gcqQSh6n4hIzkXhhUM9l12BPZedlPaBSiZCzzdR9D4RkTpFM7PnEebCHU3QGp/2gUoqQq84UfQ+ERFHY7AlUksIcyHXEq1iUfQ+EZEGswZho7NFQVoGpn2gkoii94mINLh1CBteWBf6fFH0PhGRJrMN8FfCXPQ7gReBj6Z+lFLLMOBcLANkiM9/PnAWSjglIhLMbsB9hOsI/AXLfijZ2RN4izCf91LgYmzkQUREcmB/4HHCNArvAnunf4hNrw/wHcI8/mkDrsbmooiISM60YDH+nyL7BmIl9ixY0jEMuIXsP1dF7xMRKZC+wGexNMBZNxhXobTDvq2LZXLM+rP8KwoRLSJSSFFUwalk23DcipYL+rIptvIiy89P0ftERBrEUOBMYC7ZNSK3o06Aq22xZXZZfWZPYHNJRESkwYwGzgYWkF0noH8WB9aANgSmk83n9DqK3ici0hQmAldg8f7TblxuxCYnSnxrkU1WyLeAz6GgTiIiTWctsokqeE5WB9QAhpL+Kg5F7xMREQA2B/5EeglkOoAjMzua4mrFJlCm1fArep+IiFSVZgrZRVimOqntDNJ576PUzhOyOxQRESmiXYF78d8QPY2GnWvZAViB3/e7DbgeiyMgIiIS28HAK/htlC7I9AiKYTD+3+c/YSsJREREEhmONSa+GqaVwPszPYL8+wF+31+FZBYRES9asdSzviYJPoHCBUfeh79VGLOAfbKtvoiINIPj8NcJ+FzGdc+rf+Ln/XwXJewREZEUfRE/nYDpaDnawfhp/KehFRYiIpKBk/DTcJ2RdcVzpAU/AX9mYXEcREREMnE17o3Xe1jku2Z0GO7vXzvwoawrLiIizW0g8BjujdhJWVc8J/6N+3t3Zua1FhERwQLMuKYYfpHmSxa0Pe6N/20oe5+IiAR0Iu6N2eTMax3Wtbi9X4uxRE4iIiLB9AGexK1B+1XmtQ5nCLAQDf2LiEgD2B23pYELsXC4zeATuDX+r2DzL0RERHLhdtwatiOyr3IQ/4fb+3RM9lUWERGpbT/cGrZfZF/lzPXHbfh/Orr7FxGRHHIJbDONxl8NsA9unaRvZl9lERGR3n0Ztwau0SPanUvy96YNGJd9lUWKT+tlRdIXpQ1OakdfFcmpnR1eez8W9ldE6qQOgEj6pgKPOry+kTsArcD7HV5/i6+KiDQbdQBEsuHSUG3trRb5sy4w3OH1/9/evYR8VtdxHH83XqbSSLx0mW4Ektk9IqqBArNoEZWuIqKbpGUgUZuiRW2CFhlU2KKkMCikKApcVJsiismFUY5EBSGpLaxAZ2y8VDa2OJsYxnx8zvmf88z/vF5wlt/z+56zeH6f33n+53dumqoRWBsBAObxixG1F03Wxd4z5nO9f6lun6oRWBsBAOZxuN3/DuCc6hkT9rKXvGBE7eHJuoAVEgBgHkerO0bUP3uqRvaY54yo/e1kXcAKCQAwn9tG1G7rE4Cnj6j93WRdwAoJADCfv42ofdpkXewtY65rzP2E1RMAYD5HRtSeNVkXe8uY67p3si5ghQQAmM/REbXbutf9mOsacz9h9QQAmM99I2q3NQCcOaL22GRdwAoJADCfMdsBb+sHgcZc1/HJuoAVEgAAYIUEAABYIQEAAFZIAACAFRIAAGCFBAAAWCEBAABWSAAAgBUSAABghQQAAFghAQBY0rZucQx7ngAALOmpI2ofmqwLWCEBAFjSeSNqH5isC1ghAQBYyvnV/l3W3l89PGEvsDoCALCU142ovXOyLmClBABgKWMCwF2TdQErJQAAS7lsRO2tk3UBKyUAAEt4Q3XxiPrfTNUIrJUAACzhoyPrfzVJF7BiAgAwt4PV5SPq/1T9eZpWYL0EAGBOZ1bXNW4HwB9N1AusmgAAzOnL1StHnuPGKRqBtRMAgLlcXX1o5Dlur26eoBdYPQEAmMNHGh79j/WV6pEJzgOrJwAAm7S/+kLDxD32782x6hujOwKqOn3pBoCt9YrqhurlE53vi9WRic4Fq+cJADC1F1ffqX7ddJP/PQ1PEoCJeAIATOG06pKGDX7e2rjX/E7mU1n9w6QEAGCM51VXVldUz9zQGDdX12/o3LBaAgDweO2r3lhd1bCj3yb/jhyr3l8d3+AYsEoCALBTBxpW+ldWz51pzKurP840FqyKAAD8P0+oLm1Y7V9WnTHj2NdW35pxPFgVAQA4mQsaHr1fVV24wPg/qD6xwLiwGgIA8L9e1TDpv6d60kI9/Lh6V/7vDxslAADnVO9t2Kf/RQv38v3q3dU/F+4Dtp4AAOv1moZJ/53VkxfupepL1cez8odZCACwLuc2rLCvaNiqdy84Vn24+vbSjcCaCAAwn/+MqN0/ova06s3VB6p3jDzX1A41hBGv+gGwtd7X8Cnb3Rzf28V4F1afre4aMe6mjnuqa/I9EgBW4G3tfsJ8sHrWDsY4q+H1vZ83/C996Yn+xOP+hvf7z93ZLQOAU98LGzd5Hmr4xf6JTm/Ymvfr1X0jx9jUcXf1mer8Xd05YHJTf7ELeHRnVPc2rNJ3647qcw2P9Z9fvb56SycPBkt7pPpZ9dXqh9W/lm0HAJbzk5ZfjW/6ONIw6b9konsGAKe8a1p+gt7U8cuGHQSfONndAoAtcUHDo/ClJ+spV/vXVS+d8iYBwDa6oeUn7rHHLQ3fDDh72lsDANvrourfLT+JP97jH9X1DR8MAgB24dqWn9B3evy+4dO83t0HgJHOrv7Q8pP7ox0PVt+sDm7qBgDAWr2s4UM4S0/2J672P5bVPgBs1KXVQy2/2v9u9aZsDgYAs3l79UDzT/yHqg9WT9n8JQIAJ/Pa6s42P+nfXX2+unieywIAHst51Y1NP+k/XN1UXd7wPQIAYA+6pGFb3bET/23VJ6sD87YPAIxxsPpa9fd2NuEfr26tPp1H/MBj8Itf2Pv2Nbwy+OqGXQQPNOwjsK862vDbgcPVT6u/LtQjAAAAAAAAAAAAAAAAAAAAAAAAAAAAAAAAAAAAAAAAAAAAAAAAAAAAAAAAAAAAAAAAAAAAAAAAAAAAAAAAAAAAAAAAAAAAAKeG/wJEzbIYlgOPMgAAAABJRU5ErkJggg==;" parent="1" vertex="1">
          <mxGeometry x="1680" y="2195.63" width="45" height="45" as="geometry" />
        </mxCell>
        <mxCell id="clCzWqrXpFwG12uI4jeE-8" value="" style="shape=image;verticalLabelPosition=bottom;labelBackgroundColor=default;verticalAlign=top;aspect=fixed;imageAspect=0;image=data:image/png,iVBORw0KGgoAAAANSUhEUgAAAgAAAAIACAYAAAD0eNT6AAAACXBIWXMAAA7DAAAOwwHHb6hkAAAAGXRFWHRTb2Z0d2FyZQB3d3cuaW5rc2NhcGUub3Jnm+48GgAAIABJREFUeJzt3XvcZWP9//HXfc/ZnE8YIeSYczkkOSYqkkOUkHw7S8k3cihfOn7rFyFJQiESJSKRHHIMoRCS82mchhkzxow53Pfvj+u+v8aYe11r7732uvbe6/V8PNbDsPbs/V7b3uu69lrX9blAkiRJkiRJkiRJkiRJkiRJkiRJkiRJkiRJkiRJkiRJkiRJkiQVqSt1AKkG3cBGwDbAesAqwDDC5/gF4AHgVuAyYHqijJIkqSBjgCOBx4DeHNsc4NfAagmySpKkBo0EDgOmka/hX3x7DfgWMKjs4JIkqT7vI/8v/tj2J2B0qeklSVJNRgGnAz0U0/j3b1cAQ0o8DkmSlNMawL0U2/Avup1S3qFIkqQ8diKM3G9W499LuKrw3rIOSJIkDawb+DbFX/IfaHsAbwVIkpTUeOBy6vslfxPwJWArYG1gd+CinH9/rzIOTpIkvdnawIPU3vBfDKyf8bxH5XieWws/GkmSFPUxYCa1Nf73E37tx3QBv8/xfFmdCEmSVKCRwGnU1vAvBP6XUPI3rzWIjyk4ouGjkSRJmbqAjwJPUFvj/xSh7n89/hh57uvrfF5J6gguBqTFdREW2tkUWItQQW8MMJZQWncuMKtve3GRbTowo29b0PdcQ4Edgf2AdWvMcTHw6b7nrscngLMy9i8gHNOrdT6/JEkdYSJhOt6TlDMdb6BtDvCFAo7nrTle6x0FvI4kSW1rb8Iv7ZQNfy9hjv4GBR7Xo5HX26fA19LAhhGmfEqSWsi3Sd/w9wLnUvyCPRdHXvN7Bb+eXvdW4IeETt1CXr+6cxvwfWq/JSRJKtDnSd/wzyLc62+G4yOvnTVGQPX7KqGxj/2/v4Gw6qMkqUQTSH/Z/3pgtSYe40GR1/9DE1+7irqA46j9c3AV8PYEeSWpklJe+n8Z+CzNn4WycySHUwGLVU/j37+9SvOuBEmS+gwGnqf8hn8OcCawYtOPMHhvJM/dJeWogo9SzGfkJMICUZKabHDqAEpiC2By5DGzgF8R6uY/A8wnzOsfC4wCRhAG7Y0HxvVt/X8e1Pccs4FpwCOEwV9XAy8VeBwxvZH9tVQX1MBWIFR4LMKBhIqR/1XQ80mSFhFbMOdhYEqydMXZluzj/Fe6aB0l7yqMtWxfL/UIJKkiziL75Nsp92K3Ifs470wXrWPsSHNuF/UQbitIahLvtVXT8Mj+R0tJkd781AHa3CDCnP6YfwO7AO8EDiPcXorpAs4AVq47nSTpTWKXbPdNF61QW5N9nDcmS9YZ/ov4L/m7CGWmF/VW4G85/m4vcEWzD0KSquQksk+6Z6SLVqityD7Oq9NFa3sjiK8b8SoDz+8fA9wS+fv9myWbJakgnyP7hPsyYaR/u3s32cd5Wbpobe8I4g330ZHnGEe4QhB7nqmEDockqUHrEj/pfjFZuuJsRPYxXpguWlubTFj2Oeu9fYZ8nci35XiuXkJVR0lSAe4j+4T7JPHBgq1uPbKP8YJ00draT4k32F+q4fl2JYz69yqAJJXgSOIn8S8nS1eMNck+vovTRWtbGxJmTxTdeTwh8py9hMWrJEkNmkCYjtXJv7pWIfv4Lk8XrSGDgOUIx7ccr1debLbBwB3EG+ov1PHc44nfCri9sfiSpH7HEj+ZH5wsXeOWJ/vY2mUxoGUIRXFOAe7nzb/AFxI6azcR/p/uSrzUcz2+R/zz8hihZHQ9vpXj+TeoO70k6f9MIv6rayrtOxZgAtnH9kC6aFGjgU8C1xAa+FjDuPi2gNDBOYQw0K5R+xK/T98L7N/Aa0wAXok8/48beH5J0iIOJ35SPyBZusZ0Aa8x8HHNSBdtQO8glGqeTe2Nftb2D0J9/fXryHQQ8fv+/ZfoG60uemrkNV6kfTukktRS8hR0+TehMW1HsWNrxqXyWg0CdgOuo9hGf6DtKUKxp88CmwBLLSFTF7ApYaBknudcSKi70KjYzI1eYM8CXkeSRLhsGzvpbpksXWNuI/u4tk0XjSGEcrr/WUKusrc5hKWaHyWsBvlyjX//uALflxsjr3Vpga8lVVa7/qor21BgVcK0spUJ92eH9/33wYRLyf3bdMIvrIf6/twOBhMaoayFV86gPVcJPAv4RMb+w4D/V1KWfsOBTwFfA1Ys+bWb4V/AxsDcgp7v08BpGfvnEwZ4Pl/Q60nSG0wkTGe6guz7yFnbNEK983OAQ4G1Sz2C2nyZ7GN5PF20hhxK9nFdVWKWkcBXCVXyUv/iL2p7hjAdsUhjiI+BsDKgpMKNAL5B7ZdA824PAT+k9ZY5nUJ8tPmqydLV7/1kH9Ncmj8OYCxhAN4LkSy1Nrz/IczSyDM6vxnby4TCQM1wTuS172rS60qqqCnE7xkXtS0AfkcYhNUqYveiP5AuWt1GERr5rOM6vEmvPZEwt3165PXzbFOB44GdCZ/TRY0B3kNYv+Fc4LkCXi+2PQSs0/A7NLD35ciweRNfX1KFjCYUWSn7V1QPcD7FzNVu1N/JzrpfumgNuZLs43qBMAe9KG8hjCuIVVqMbfMIDfp21Fbtr4tQMOfrhP+nRV8huIhQua+ZuoEnIjl+1eQMkiriDMpv/BfdXiNUWktVercbeDaSsV3rAXyJ+Pv/axofFLspcB6h4W7ks/AS8H3CQLcirAAcCPylwWzXANsXlCmP70TylHH7RlKHW51wST5lB6B/e5hw37psu+TI9pEEuYowlnxjOn5E7YVsJhI6RrfmeP7YNo2wSNPouo4yn9HAjoRxKNcx8O2Clwl1/88i3FpYqYmZBrIK8asXP0iQS1IH+S7pG/7Ft/OAZZt50ItYiXCPOZapHQcB9vsh+d73a4mPy1iNUDvhEhr/tV9Ww59lPKGxXQVYF1g6UY4luZrs9+5Vwi0XSTWyDkBwO/DOnI99FLiXMAf5xb5tDuHS/TjCVK+3U8yJdAZhRsKphCsUzbAdcDZvHli2uPto7WmMMVMI/9/y3rt+ELiZcFsEwtz9lYB3ERbnKcKLhAI6PyGMF9Cb7UkYI5Pl58DnSsgiqQPNJPtXxumESnhja3zeKYRfir/L8RpZ2z2EhrpIkwiXvPMuNFPPEq+tZnfSX9npJQw6PJx0v/jbyWBCDYqs93M+odMtSTVZmuyTy0yKWXxkKKEi3V2R18varqbx0rXLERr+2Kpri253U/8Sr63mR6Rr+J8jFCYa1fSj7CyHEH9vb6G2mRKSxCZkn1juLPj1uggjqRsZNHYzsDdLXsRlSUYCHyfUUK+1quEMwiDJTtEN/IZyG/7Hga+Q//+X3mgU8RkqvYTbZZKU245kn1RubNLrdhHWWI+tVpe1zQR+2XcMq/L6r/QJhDENnyEMJqx3adlXad9FgLIMppxpn/8gdNSGlHNYHS3PVM4FFH+rTFIH+yTZJ5U/Nvn1RxLmfBcxmrzIbTqwTROPO7Uu4L8JAziLfN9eJQyq3Kq8Q6mEocADxN//F2jv2SqSSnQC2SeUn5WUY13Cpf3UDX8v8G/ae8R/LdYGLqex92sBcD2hHsC4cuNXyrvIV6/jIVprKqOkFrQW8XKt3y8xTzfhsv20SKZmbQsJy7BWcZDapoRjf5F879VjhLEE+xCKAakceWt23Emx5Z2ljlPlOgATCQPxYjX4PwJc2Pw4bzCJ0PHYn9or09XrVsJ91r+X9HqtqptwVWA9wrz//ql6swkds3v6tpdThBODgN8Cu+Z47D8Iiwq92NREktrKUOCvxH9FPEcxUwDrtQ7whyXkKnK7lzA9scqdQbWX4YQyxnk+33cTpr5KEhAK++Q5ebTK4jfvBn5PKHhSRKPfA1xGmI5ow692NI7QuOf5vD9OuN0nqeK+Qr6TxuWUd/k9r+WA/wEeofZGfx5hNbgDgRXLDi41wXKEsRh5Pv8v0ngRLUltbHPyTbd7kOavd96otYGDCMvY3sXrq7rNISzscy9wAaHk7PbUXsZYagdrEKb+5ekEzCd0gCVVzFjyFd15CeuKS+1kY8L3Nu/VsDMIi3dJqoiTiZ8YXgPemyqgpLptQFihM28n4D5g/SRJJZVqDfIVENk/VUBJDVsLeJr8nYBX6YxVLiVlOIn4yeDcZOkkFWUlQiXAWgbIXozFnKSONZXsE8BTuFKb1ClWIN+6AYtuT9CZC19JlbYM8S//IcnSSWqGZYE7qK0TsIAwzdbaGFKHWJv4F3+dZOkkNctIQgGtWjoBvYRSw14RlDrAW4l/4ackSyepmboJ62r0UFsn4E7CehCS2tgwwkIuWV/2rZKlk1SGjxAWcKqlEzAf+CHhSoKkNhVb7/30dNEklWQNwkqOtd4SeAE4GmcKSG3py8R7+psmSyepLCMI04JrvSXQS7iSeA7wQWBI2cEl1Wdp4msA/Bsv9UlV8X7i04OztmnAb4BPAyuXnF1SjX5D/Ev9s2TpJJVtPHAa9V0NWHx7FriEMI1wd8LthsHlHYqkLGsDC4l/kXdOFVBSElsQVs9stBOw+PYa8E/gPOBIYFdgVWBQOYclaVF5FgR6nlBERFJ1DAYOoLYFherdXiUUKTobOJRQgdDbj1KTjSGU/Ix9Qf+E1cCkKhoLfBeYSfM7Aotu84HbgG8D78GrBFJTfIh8X8gDUwWUlNwEQmM8g3I7Av3bVOA4LEYkFe6XxL+AswlVBCVV12jCj4H7SdMR6AWuIFwVkFSAUeRbLex3qQJKaildwHuBM6m9omBR26XA8k0+TqkS3kEYpRv70r0vVUBJLWkEsAehKFAZgwYX3WYAn2z6EUoVcATxL9wdydJJanXdwCbAYcBFwDOU0xH4Hg5UVoOq/gEaDNwCvDPyuPcC1zQ/jqQOsAKwJrB637YCMLlvW5FwBaEIZxAqEUqq03rEywSfnSydpE4yiFAlcA/CdMNLCYsN1Xsl4Evlxpc6z0lkf8lm4rxcSc3RBawDHALcRL6Kpf3bHEJ1QUl1egfxL9raydJJqpLVgBMIjXueTsDlaWJKnSNWIXDfdNEkVdDbgKvI1wnYKlFGqSNcTPYX7PvpokmqqMGEwX6xDsANqQKqfXWnDtBC/hPZP7qUFJL0ugXA54CbI497D7BD8+Ook9gBeN3MyP6ipu5IUi0WAJ8FeiKP+zZO7VYN7AC8bm5k/9BSUkjSm90LnBd5zMbAziVkUYewA/C62CX+l0pJIUlL9k3C1YAs38HzunLyg/K6cZH9z5WSQpKW7EHgV5HHrAN8rIQsUke5hOxRtv+VLpokAbAS4XZl1rnqaWBsonxSW/o32V+qLdJFk6T/cyLxaYG/TpZObcMRo8FIwhrfA5X77QHGE58pIEnNtjTwEPFxSxcBtwH3A/cBjxIfQ6AKsQMQbAlcl7H/IUJ5TklqBccAR9f4d+YDzwJPEpYtfhqYAczu++esvj/3//srfdurfX9/Qd9j1CEGpw7QIt4T2X9bKSkkKZ/jgP0JywvnNYSwNPEKBWWYvtif5xE6D6/0/XkG8BqhAzGr79+f79teIHRGniB0TJSAHYAgVkHr2lJSSFI+swjFgS4n3ZXc8QP8uRYLCJ2AR4CHgbuAO4G7CYshSU01ltADzRpQs3KydJI0sOPIv3RwO23zCZ2AnwIfxlLsapLdyf4gPpwumiRlGgT8gfQNdrO3ecBfgf8Gli3ijZMATiP7g3dSumiSFDUE+DnpG+kyrw5cAuyGJdrVgEGEgShZH7btk6WTpPx2Av5G+ga6zO1J4IvAsALeP1XM1mR/uGbiB0tSe1ma8MPlMOB84J+EOiepG+tmbk8AB+AVgZpUvQ7AyYQPzUB+C+xZUhZJaqYJhAHNbwEm9W2TCSP4xxAG2i1FKIy2FK//+BnW9+8QbjeMKi9yze4HPkW4EqKIKncABgFPkT2g5OPEl+CUpCrq7xh08/raA6MJ08uHAyP6/vu4RbZlgOWA5YEphKsVRVsI/Bj4Bq8XMZLeYGuyLynNJfSKJUnNMRrYGNgP+D7wJ4q7XfEQsH55h6J28hOyPzyXpYsmSZU1CNgQOAi4lPjqh1nbLOBD5cZXq+sm1MLO+uB8Olk6SVK/cYQrBJcRL9q2pG0BoX6ABMBWxD8wzbg3JUmq30qE5ZBfofaOwIlUe9yb+pxE9gcla2VASVJaE4FvEQb51dIJ+GGKsGotj5D9ITkiXTRJUk6rAFdQWyfgmBRB1RpWI/4B2SxZOklSrfYmLDectxNwWJqYSu0LxEeNDkmWTpJUj7UIU//ydgL2TxNTKV1I9ofiz+miSZIaMIkwhitPB+A1woBwVchTZH8ovpMumiSpQUMJBYXydAKmAaumiamyjSP+gdglWTpJUhFGAreRrxPwb8J6COpwqxP/MKyUKpwkqTCTgf+QrxNwNRUc+9XORRGGEBaWmEj4Hz2JN9buH8kbl4YcR1j455MZzzmHsNJVT5FBJUlJrALcTGgrYs7EgYEtaVXCNI8TCYP0HqK+kpCx7Z9lHZAkqRTvAGaSrw34RqKMWsRgYDvgFGAqxTf0A23nl3FwkqRSbQ/MI94G9AB7JcpYeaMIK0A9RnmN/qLbN5t+hJKkFPYhNPCxdmAuocOgEu0DPE+ahr9/27PpRylJSuVQ8rUFs4EtE2WslEnUXsu5WdtaTT5WSVJaJ5CvPZhFuBWtJlmH+MI8ZW1PAYOae7iSpMS6gd+Qr12YC+yWJmZnWw+YTvqGv7cvx87NPVxJUosYBlxDvvZhIWF8WHeSpE2Uqg7AKsCNwJQ6/34v8AShjOMswujOlwm9tTmL/bfF9fT999l9j30GuIuwrrQkqRrGAlcBG+V8/J+BTxDGqqlOI4B7qO0X+gLgL8BXgXcBS5WeWpLUacYDd5K/LXoJOABvF9ftp+R/s18A/gdYOklSSVKnm0goAlfLj9I7gJ1o72q6pfsA+d7cHuBkQvleSZKaaRJwN7WPH/sn8DHeWHZeSzCUfAszzAJ2T5RRklRNE4HrqG8g+bPAD4DVSk/dJg4j/ia+AmyVKqAkqdKGAr+ksVlltxPau1VKzt6yxgEziF/23yVVQEmS+hxBmP7XSEegf6zA4cDbyo3fWo4m/kb9KFk6SZLe6N3AvTTeCah0Z2AsYepE1hvzKE7tkyS1lmHAMcBrFNcRWLQz0PG3Cb5K/M3YKVk6SZKyrQGcSb4lhWvZeoBrCTMJhpV1MGXpBh4m+w24Plk6SZLyeytwEqFybJEdgV7CTIKvAaNKO5om24n4QbvakiSpnUwGDqK2KoJ5t2mEK+eDSzuaJrmM7AO9PV00SZIati5wLDCVYjsC/ySUvm9LywLzyT7AzydLJ0lScQYB2wA/ISwvX0QnYAFwaJkHUZSvkH1gswkzBCRJ6iTdwGaEKwOP0HhH4FfA8FKPoEF3kH1AZ6WLJklSaTYEjgRuJPyqr6cTcBFtsgrh2sQPZstk6SRJSmMC8CXgQWrvBPwsQd6afZ/sg3gAl1GUJFVXN/Bh4B5q6wR8NkXYvLqBJ8g+gK8nSydJUusYTJhSOIt8HYCXgbckSZrDe8kO3wOsnCydJEmtZ23gcfJ1An6bKGPUGWQHvzFdNEmSWtZyhPn/sQ5AD6HD0FIGAc+THdy5/5IkLdnSxG+j9wKnpAo4kC3IDjwPmJQsnSRJrW9D4usNzAbGpwq4JD8mO/Af0kWTJKltfIf4VYC9k6VbzAjgJbLD7pksnSRJ7WM08BzZberPk6VbzH7Epy6MSJZOkqT2cgzZ7eqDyZItogu4i+ygbVHBSJKkFrEm8dsAyWsC7EQ85EbJ0kmS1J7uJbtt3bzeJ+4uIh1weGT/3cDtBb2WJElVcUdk/8R6n7iIDsAWxHsgLTNQQZKkNvKvyP6kHYBDIvvnAOcW8DqSJFXNU5H9E+p94kY7AKsS7v9n+S0wo8HXkSSpil6L7K97Zd1GOwCfzPEcZzT4GpIkVdX8yP6eep+40Q7AbpH9/wFuaPA1JEmqqtg9/gX1PnEjHYBlgLUijzmNME1BkiTVbtnI/rn1PnEjHYC3R/bPA85u4PklSaq6lSP7p9b7xI10AJaP7L+GsDSwJEmqzyaR/bFZAgNqpAOwMLJ/9QaeW5KkqhsJrB15TJIOwCuR/atgJ0CSpHq9Fxicsf8ZYFq9T95IB+AG4qMPd27g+SVJqrJdI/tvKyXFAP5K9iIFDwODUoWTJKlNDSP8us9qY7+RLB3w1QFCLbrtkiydJEntaV/i7eumydIBUwjT/bIC/pvQk5EkSfncRnbb+hQNlAEuygXEeylfT5ZOkqT2sg3xdvXkZOkWsTXxoHOBLRPlkySpXXQBfyPerr4zVcDFXU087DScFihJUpZdibenNydLtwTvIBQGioV+lhbqtUiS1EJGAY8Rb0v3SpRvQD8nHroXmAXskyijJEmt6kTibeg9tOD0+lHAA+TrBPQCvyO+noAkSVWwNfmupH8oUb6ojYBXyd8JmA18F5iQIqwkSS1gWUJZ31ibeXWqgHntDMwnfyegl7CuwInAGgnySpKUyjDgWvL9YF41UcaafILaOwH9203AZ4GxpaeWJKk8w4E/ka9tPCRRxrrsRPhlX08noJdwK+HXwI7AkJKzS5LUTEsBV5KvPbySxhbvS2JDQingejsB/dsLhKpHm9MCpQ8lSWrASPJd9u8FngaWThOzcSOBU4EeGu8I9AL3AQcAo8s8CEmSCjAauIF87d1cwg/ftrcZcAfFdAJ6gZcJAwfbYlCEJKnyxhKq+OVp43oIKwJ2jG7C8sC3UlxHYD7hCsNyJR6HJEm1GE98hb9Ft2OSpCzJe4BLKa4jMBs4jDYcKCFJ6mi1Nv4npolZvg2BnwIzKKYjcAVhakWnWQs4EPgFcD2hHOTfgT8ABwMrpIsmSRrAZOAu8rdhp1LBwe5LAfuRf3BE1nZmudGbZjngKOBB4sc8F/gBoaiEJCm9ScDd5G+7foVXsVkT+CHwHPV3ArYoPXUxuoAdgN9TXzGla4AxpaeWJC1qIvBP8p+7fwcMTpK0RQ0BdgMuAxZQW0N4eYK8jegGdgfupPErIJdSwUtIktQiJlDbufwCLHiXaRXgJPJXF1xAe8wMGATsDdxL4w3/otsXyzwISRIQBvzVMuX9LFpwed9WNQY4CHiK+Bv7qUQZ8+gG9qCYSolL2p6nMwdDSlKrGktt09xPxXv+dRkGXEX2m3tOsnQDGwd8BXiE5jT8i277l3RMklR1o4BbyH9+/hHeqm3Ix8l+g+9LF+0NBgFbAacT6hU0u+Hv324t4+AkqeKGAn8m/7n5O2lidpbxZK8xsAAYkSjbBGBPwrSOFzMy1rI9ChwJbApsAFwcefxCYNlmH6gkVVg3cC75z+NHpInZmR4g+83epKQcowjT934A3E5ofIto9HsI60XvyJvvFY0Cno38/U8Wf6iSpD4/Iv+5/KBEGTvW+WS/6Z9twmsOIlTm2w84hTDXs9ZpirFtAXAesH4ky0mR5/ll44crSVqCg8l3Pl8IfCZRxo52NNlv/CkNPHcXsCKwLWEJ4lMJ99WbeR9/LnAa+Vc5/Ejk+f5R36FLkjJsBswjfk6fD+yTKGOmTqg6FBvot+ES/tvoxbbJwDKEevr9/1wZWI3yptK9BPyc8It+ag1/747I/rcTBqjMqzOXJOmNxhOu0MaK98wn1Hn5bdMTVdTbad6v8TK2BwlFe0bWefzdwJzIa6xZ53NLkt4sduu5/5f/bqkCVsUQ8lcHbKXtemAXiikCEasi+MECXkOSBJuT7xx/YKqAVXMl6Rv02LaQUCTiKOID+2r1h8hrWxZYkopxHfHz/enJ0lXQl0jfwC9pewo4G9iXMM6gWY6L5PhhE19bkqpiW+Ln/UcIU7RVkjHATNI3+E8T7g19Dli9qUf8RgdEcl1QYhZJ6lS/Id4OvC9Zugr7AuU29rOBG4FjCYv6rND8QxzQ9mRnvSVdNEnqCJMI07SzzrV/TpZO/JjiG/p5hJH6FwLfJMy7X53WWr5xFbKP4Zl00SSpI+Qp+vPuZOnq0IkrEe1IaKT75/Yv2/fnYYs9bj5h7v2LfVv/n58m1Nzv354iDOBrZYOBVxl4TmovsBSh9ypJqt09wDoZ++8irNEilS62JkKZYxIkqZNsSvzX/+eSpatTEXPQ1Roejuxfq5QUktR5/iuyfyZhRcC2YgegczwU2b9eKSkkqbOMBD4WecxFhIJ0bcUOQOewAyBJxduXMNU8y3llBJEGsjXZ96eepTMHfUpSs3QRFpzLOrc+T2csrKc2NhpYQPYH1RGqkpRfrMZKL2H6uZTcPWR/UA9LF02S2s5lZJ9Tewgr0krJHUv2h/XudNEkqa2sRqgBk3VOvTpZOmkxWxG/XLVVsnSS1D5+Qfx8+pFk6aTFDAamkv2BvQMYmiqgJLWBbxBv/B/CwX9qMd8i/sH9abJ0ktTa/pv4ObQX2CtVQGkgywOvEf/wnoJXAiRpUQcSBvbFzp9/wzo6alEnkK8HewdttnqVJDXJ4eQ7b84F1k6UUYqaRFjZMM+HuRe4gbCQxfgUYSUpse+S/3zpdGq1vD3I/4FetGd7M6GwxX7ARoTllK0gKKkTdRHOd3nPkRfTQefDjjkQLdEpwOcLeJ55hFLC0wgLXszu++f0vn/2/7cZwKy+f58JvLDIJkmtZBBwGrB/zsffR7hl+nLTEkkFGgT8gdqvBBS9zSdMT7yO8IU7FPgQMLl5hy5JAxoKXED+c9hjhAHWUlsZSlinOnUnYElbD/Av4CfA7sDwJr0HktRvBPESv4tuzwKrJ0kqFaAL+Br5pgem3KYDJwMbN+dtkFRx3cBF5D8nPQKsmiSpVLD1gGtI39Dn2f4OfLA5b4Okijqe/Oege4Dl0sSUmmcH4AryFbxIvf0Fe+CSGrc7+c87fwTGpYkplWNF4AuE+2Gvkr6xH2h7FfhUk94DSZ1vAvAM8XNND/AdrPKnilmKsFLgFwj34a8BniTUBkjdAejffk6Y2SBJtfgp8fPLQipW3986AMpjHKEg0GRgWN+/DwNGAqMIMw3GEUaGica+AAAaSUlEQVTxj+7789i+fy4DTKG4hvsi4GOE2gSSFLM08DjxWUZHAN9vfhypWoYAKwNbE64w/Ap4mPqvBPwaO6+S8jma+DnlfDynSKVaFvg0cC21D0j8boK8ktrPE2SfS2bhaH8pqfWA35C/I7AQeF+SpJLaxVrEzyVHJUsn6Q22AB4iXydgKjAmTUxJbeAgss8hswnjlSS1iLGEebh5OgHHJ8ooqfVdSvb545x00SQNZAhwIfEOwHys0y1pyZ4n+/yxQ7pokrIMA24l3gk4NVVASS3rrWSfN+YR6p9IalErADPJ/iLPIcz1laR+u5J93rglXbTWYLlDtbongWMijxkOfLT5USS1kTUj+28tJUULswOgdnASoXBQlkqV8JQUtXxkf+yc0vHsAKgdzAeOjTzmXYRqg5IE4fZhlkdKSdHC7ACoXZwJvJSxv4uwRoAkQViDJMtTpaRoYXYA1C7mAr+LPMYOgKR+oyL7Z5aSQlIhtiI+JTA28EdSNcTWAJicLlpr8AqA2skNhC91lt3LCCKp5Y2I7H+1lBQtzA6A2kkPYcGgLHuUEURSyxsc2T+0lBSSCrMJ8dsAayRLJ6lVTCP7PBEbJNjxvAKgdvN3QnGgLBYFkrQgsn94KSlamB0AtZte4KLIYz4NDCohi6TWNT+yPzZGoOPZAVA7+n1k/wrAB8sIIqllxab5Vf4KgNSOuoHHyb6/d3OydJJawU1knyPenS5aa/AKgNpRD3B25DGb4VrfUpVlVQ4FGFNKihZmB0Dt6jTi9/i+i2MBpKqaHtk/qZQULcwOgNrVE8AFkce8EziwhCySWk+sA2AlwNQBpAb8L7Aw8pjvAOuXkEVSa7EDEGEHQO3sXuCXkceMAv4ErNT0NJJaybTI/sp3AKR2NwV4hXh1wOeArdNElJTAHmSfEy5OF01SUY4m3gHoJdwu+CVeDZCqYEuyzwc3pYsmqSjDgNvI1wnoJZQIvRT4OE4FkjrVmmSfB/6TLpqkIq1IfPGPJW1zgb8ABwFLl55aUrOMI/u7PyNdNElF25FQG6DWTkD/9hpwLrBR2cElFa6L8J0e6Pveg0sCSx3lw8Ac6u8E9J8YziOsKSCpfT1N9nd9uXTRJDXDtoQyoI10AnqBFwkdCknt6Z9kf8etESJ1oOWAS2i8E9ADfK3k7JKK8Reyv9/bpYsmqdl2BW6n8Y7AN8oOLqlh55H9vf5YumiSyrI98FvCqP96OwH7lZ5aUiNOJvs7/dl00SSVbTzweeAGwuX9WjoAc3CGgNROjiX7O31wumjpuRaAqmY68DNgC2Bl4EjgXzn/7nDgfGCp5kSTVLA5kf2jSknRouwAqMoeJ6wouC6wKWHKUMwqwDFNzCSpOK9G9le6DoAdACm4jXBV4NEcjz0Y2KC5cSQVYG5kf1cpKVqUHQDpdY8SVgx8LvK4wcDxTU8jqVEjI/vtAEj6P08AuwPzIo/bGpcXllrd2Mj+haWkaFF2AKQ3uwk4JMfjvtnsIJIaEusAzCwlRYuyAyAt2cmEqYJZtiSUHZbUmsZF9r9cSooWZQdAWrIe4DOE1cSyfLmELJLqs3Jk/0ulpJDUlk4ku5DIAmDFZOkkDaQLmEX29/cdydJJanmTCfcJs04i306WTtJA1iVe3TN2i0BSxcXKiT5DxQuKSC3oALK/t8+miyapXaxMmC6UdTL5cLJ0kpbkCrK/sxekiyapnVxK9snknHTRJC1mIqGWhysBSmrYbmSfTGYSFguSlN4hZH9fe4CVUoWT1F5GEB8MuHOydJL6DQIeIfu7em2ydC3EOgBSPnOASyKP+WAZQSRl2pf4/P/TywgiqXPsRfaviseSJZMEMIywqFfW9/R5vF0nqUaTic8GWCtZOklHEZ/7f1iydJLa2p1kn1w+ly6aVGmrEm7VZX0/XwBGpQrYahwDINXmpsj+zUtJIWlxPyV+af8HwCslZJHUgfYh+xfGI+miSZX1ceKX/h8mjBGQpLqsQfxEMz5ZOql6xhHKcce+lx9JFVBSZxhEWCI460SzdapwUgX9mHjjf12ydJI6ygNkn2wOShdNqpS3ES/5uwBYL1XAVuYgQKl2D0f2r1pKCknfBoZEHnMKcHcJWSRVQOyS42XpokmVsQHxuhwv4JicAXkFQKpd7ApArAyppMYdSbwN+zowvYQskipiJ7J/dXjCkZprNcK9/azv4R34I1dSwTYhPup4aLJ0Uuf7OfHv4HbJ0knqWHlqAUxJlk7qbJOIl/y9Klk6SR1tWeIdgFWSpZM626HEv3/vSpZOUkcbTvwE5FRAqXhdwH/I/u7dmCydpEqYS/ZJaPV00aSO9T7ine89k6WTVAnPk30SWitdNKlj/Yrs793TwOBk6dqMUySk+vRG9neVkkKqjpHALpHHnEOYHqgc7ABI9RkU2e93SyrWbsCoyGPOKSOIpGp7CWcBSGX6M9nfub+niyapSl4m+2Q0Jl00qeMsA8wn+zv3pWTpJFXKLAY+Ec1NmEvqRP9NduM/D5icLJ2kyugi+9fI0+miSR3pdrI7ABeliyapSsaRfTL6R7poUsfJU3p792Tp2pgjlaXaTYzsn1ZKCqka9orsnwn8qYwgncYOgFS7CZH9z5aSQqqGj0b2/46wOJBqZAdAql3sCsB/Skkhdb4NgTUjjzm3jCCdyA6AVLvYHP8HSkkhdb7Y5f+pwHVlBOlEdgCk2q0R2e8VAKlxXcAekcecCywsIYskAXAlA49G7iHULJfUmPcQH/2/QbJ0kiqnG5jOwCekJ9NFkzrKqWQ3/veliyapitYn+6R0dbpoUscYRny9jcOTpesQjgGQarNFZP9dpaSQOttOwPiM/QuAs0vK0rHsAEi12Tay//ZSUkid7ROR/ZcTZgBIUikGEb8suXqydFJnWBp4jezv2S7J0kmqpE3IPinNwKtqUqMOJft79iwwJFm6DuLJSspvu8j+OwjTACXVb//I/rMIq3FKUmmuJvuXyQ/SRZM6whbE5/6vlSydpEoaQVhwJOvEtGeydFJnOJPs79gNyZJJqqztiP8yWSFZOqn9TQRmk/0d+2SqcJKq63/IPjE9mi6a1BGOIPs7NgsYlSydpMq6hOyT06/SRZPa3hBCGe2s79jPkqWTVGnPkH1y+ly6aFLb24v4LbZ1k6WTVFnLED85rZ0sndT+/kb29+uqdNEkVdnGZJ+cXsSaGlK9tibewf5QqnCSqm03sk9Of0gXTWp715L9/XqEUIZbBfNXixS3XGT/P0pJIXWeLQlXALL8GFjY/CjVYwdAilsqst/yv1J9jonsfwk4vYQclWQHQIrrjewfXkoKqbNsCWwTecyPgVdKyCJJS/Qpsu9RXpEumtSWuoHbyP5evQJMShVQkiD8SolVKBufLJ3Ufj5NfOT/scnSSVKfCYRBSFknq+OSpZPay1jgObK/T3OID76VpFLcQPYJqwerAUp5HIe//iW1kf2Jn7QWAj8iPmtAqqoNgHlkf49mEFYGlKSWMAR4jHgnoJewqMnBwOgUQaUWNRS4i/j35+upAkrSQPYgXwegf5sNnAfsTDj5SVX2XeLfmanAyFQBJSnLedTWCejfXgROA7bDsqaqnk2B+cS/J59PFVCSYkYCt1BfJ6B/ex44hTC90M6AOt1I4N/Evxe34/dBUoubROOdgP7tGeCHwOqlHoFUji7gfPINoN04UUZJqskI4FyK6QT0EqYRXktY9rSrxOOQmukw8n3+T04VUJLq9THgWYrrCPQC/wI+gZdD1d52ABaQ7yrYuEQZJakho4FvEQb6FdkRuAf4QInHIRXlbeT/PuyRKKMkFWYEocb5Pyi2I/AXHCOg9rE0+Qb99eJSv5I60GbA8cATFNMJeBX4Kt4WUGsbR/4O8P04519SB+sizIH+AeGE12hH4GZg1VKPQMpnJHAT+T7HcwllgSWpMlYj/JK/iTDyv55OwHTgg2UHlzIMI9yqyvsZ/mKamJLUGlYCjiSM+q+1E7AQOAqnDCq91ait8T8+TUwtzpOH1Bq2Ab4GvL/Gv/dbYB/CCmvSolYA3gtsBKxIGKTaby6h7v5U4CnCVLwn+/79xRzPPR7YEvg4sAv517q4ANiLcPVLidkBkFrLtsAvgLfW8HeuAHYnDBRUtQ0nNMoHAO+s8znmAtMIHYFpwCu8PlhvKOHK1fJAd43P+1dCB/e1OnNJUsebCPyZ2m4JXAeMSRFWLWEw8AWKL0pV1PY3LPYjSbkMIiyfWstAwduACSnCKqkPU8wMk2ZtV+B0P0mq2YeBGeQ/2d5FKMSizrcJcD3pG/is7QTC1QlJUh1WA+4l/0n3fuAtSZKqDOOAU6l/GmkZ24uEdTIkSQ0aR21TrR4mDNZSZ9mdMFI/dQM/0NYD/AZYtllvgCRV0RDgNPKfjB8FlkuSVEVbHriY9A38QNtC4I/Axs16A1Q8pwFK7ecIwgDBPN/ffxHma09vaiI1SzdhdP/3qG+Wx2zgSsIskQeAWYRpfoOAyX3blL5tecIv9xUI8/xjA/fmEkb3Xwn8mrDuhSSpyT5DvrXWewllh5dKE1MNeBv1D/J7BjgcGNvA6w8GJhHWnngnsF3fthWhTkWtdQAkSQXZg1BUJU+DcBnhFoJaXxehkM8r1Nfwf55QEEiS1MF2IFQAzNM4nJAoo/JbEbiK2hv++cCJNPaLX5LUZrYn3I/N01DsnSij4vYAXqL2xv/vOPhOkiprN8KvwFhjMR1nBrSa5Qi3aGpt+GcCn8XB3JJUeXuTrzjMhakC6k12Al6g9sb/aqzzIElaxDfJ14C8L1VAATAMOJ7aq/m9AnwRf/VLkhbTRfiFH2tIbk4VUKxEmD9f66/+m4DVy48rSWoXYwlFX2INyhapAlbYPoR797U0/HOBr+K8e0lSDpsSyrNmNSw/TZauekYQpunV+qv/XmDDBHklSW3sTLIbl+eSJauWDYB/U1vD3wP8CAv6SJLqsAbxQWZLJ0vX+bqAL5G/RkP/9hSh5K4kSXW7m+zGZtN00TraeOpbve8CYEKCvJKkDnMR2Q3OB9JF61gbAo9QW8P/MrBfirCSpM50KdkNzw7ponWkTwFzqK3x/zth5T9JkgrzV7IbHwsCFWM4cDq1D/Q7HhiaIK8kqcPdSXYjtEm6aB1jCnArtTX+M4CPpAgrSaqGB8luiFZLF60jbAA8Tm2N/63AyinCSpKq4zmyG6NJ6aK1vY8As6ntkv+JwJAUYSVJ1ZLVQPUAg9NFa2uHUttCPs/heAtJUkkGE596ptp0AcdQ2yX/O4C3JsgqSaqo8WQ3TE+ni9aWBgO/oLbG/xdYzleSVLLJZDdOT6SL1na6qG2a33zgsCRJJUmVN4HsRuqxZMnaz7Hkb/yfB7ZJE1OSJBhDdkP1UrpobeVw8jf+twBvSRNTkqRgEOFSdFaDNTpZuvawLbCQfI3/+cCwNDElSXqjJ8lutNZJF63lLQ1MJV/j/yOgO01MSZLe7GayG67PpIvW8s4jX+N/RKqAkiQN5CSyG6/L0kVraeuS79L/UakCSpKUZU+yG7AFwKrJ0rWui4k3/qclSydJUsQkYC7ZDdlvk6VrTSsS//V/L7BUqoCSJOWR51723snStZ5jyH6veoB3pwonSVJeWxLvAMwAVkqUr5V0E1/e98Jk6SRJqtHlxDsB1xNqB1TZdsTfp/WSpZMkqUZrES8K5JQ2+AnZ788N6aJJklSf44h3AOZR7V+4j5H9/uyfLJkkSXUaBtxNvBNwbaqAia1PfMrkpGTpJElqwIbAa8Q7AbukCpjQwWS/JzeliyZJUuMOIN4BeBAYkipgIheQ/Z58L100SZKKcQbxTsBHk6VLI7Zw0o7pokmSVIzhxMcD/DVVuASmEO8QLZssnSRJBdqKeKO3drJ05dqG7PfhxXTRpOZw/Wqpuq4jPq99pzKCtIA1I/vvLyWFVCI7AFK1nRfZv3kpKdJbLbL/sTJCSGWyAyBV222R/e8qJUV6sfv7T5eSQiqRHQCp2mZF9k8oJUV6S0f22wFQx7EDIFXbipH9g4DBZQRJbHJk/1OlpJBKZAdAqra9I/tnAz1lBEnMKwCSpMpYlbD4T9XL33YTXykxdqVEajteAZCqaQxwMfFyvzeXkCW1ccRvc0wrI4gkSc20NHAj8SJAC4C3JcpYppXIfh9eSZZMkqSCvIv4mvf92/lpIpZuPbLfh0fTRZMkqTGjgROAheRr/J8DlkmStHybk/1e/D1dNEmS6jMaOIJwDztPw99LGBD3gRRhE/kA2e/HZemiSZJUm3oa/v77/nsmyJvSnmS/J6eniyY1TxUKfEhVsizwReALwMQa/+5sYD/gwqJDtbhJkf1TS0khlcwOgNQZVic0/J8BRtTx958EdgNuLzJUm4itA2AHQJLUct4D/JlQra+WS/2LbmcB48sO3kJOI/v9+XC6aJIkvdF7gKuov9HvJfzq/1DZwVvQX8l+nzZOlkySpD7r0HjDPxf4HjCy5Oyt6lmy369x6aJJkqquCzgSeI36G/6FwK8JawAoWIbs9+yJdNEkSVU3GDiTxn71X0KoeKc32gNrAEiSWlAX8Evqb/ivATYrPXX7+AnZ79/300WTJFXZ96mv4b8Z2C5B3nbSTRgImfU+7pMsnSSpsr5C7Q3/LcD7U4RtQ9sQfz/XTJZOklRJHyf/wj29hAVrdkyStH2dTfZ7+mS6aJKkKtoBmEe+hv8BYGfCWAHltwph0aOs9/YXydJJkipnY2AW+Rr/K3GOer1i1f968YqKJKkkawDPk6/xPxXX8qjXBsR//U8DhqQKKEmqjmWAR8nX+P8ML/nXaxBhwaPYe3xCqoCSpOoYCtxAvsb/DGz8G3Eo8fd4LvDWVAElSdVxKvka/8vxsn8jNidfKeWjUwWUJFXHgeRr/O8ERifK2AlWBJ4j/j7fBQxLlFGSVBHbEh+M1ksYGLhCooydYAxwB/H3eQawWqKMkqSKWIl8I/4XANunidgRRgLXEX+fe4DdE2WUJFXEaOAe8l36PyRRxk6Qt/HvBX6YKKMkqULOJF+jdAmO+K/XcOAq8r3P1+PgSklSk+1KvkbpCWBiooztbhDwO/K9z48QajBIktQ0yxEqzMUapXnAuxNlbHfdwK/J1/jPANZJE1OSVBVdwJ/I1zAdnChju+siVEnM8x7PA96bJqYkqUoOIl/DdCHe96/XceR7j3uAfRNllCRVyJrAHOIN07+w2E+9jiZf498L/E+ijJKkirmSeKM0HYvQ1Otg8jf+v8ArLJKkEuxGvFFaCHwwVcA29ynCJf08jf8lON1PklSCQcADxBumr6cK2OY+SqiUmKfxvx4YkSamJKlqPkG8YfoboaOg2mxPWLY3T+N/DzA+TUxJUtV0AfeS3TDNIQwQVG22Id+gyl5CoZ8paWJKkqpoG+KN02HJ0rWvTYCZ5Gv8nwfWSBNTklRVZ5LdON2LA9JqtR7wIvka/xnAO9LElCRVVTfwHNkN1E7J0rWn1YFnydf4z8JSypKkBN5OdgP1NA78q8WKwOPka/znANumiSlJqrqPEJ+SpnyWBf5Dvsb/NWDHNDElSYJPk91QPQUMTZaufUwA7iZf47+A0PGSJCmZ/Yg3WGcDQ1IFbAOjgVvJ1/gvJNRckCQpqXeTr+G6Cdg8UcZWNgK4lnzvYQ/w+TQxJUl6oyHAC+RrwHqBK4D34SI1EN67P5L/vftqmpiSJC3ZMeRvxPq3u4HPAmPLj9sSuoHfkP/9OjpNTEmSBjaSUIO+1k5AL/AqcA6wA9UqFvQT8r9H/y9RRkmSolYBHqO+TkD/9gLwM0Jp4U6uHXAU+d+Tk/F2iSSpxS1PWPGvkU5A/zYV+DGwWalH0HyfI/97cCbhVoEkSS1vCHAIoT59ER2BXkJxnKOAFUo8jmbYnTCHP88x/4bOvgoiSepQSwOnEirWFdURmA/8FtiixOMoyjbAXPId58VYN0GS1OaWIcwSqGWqYJ7tZmDL8g6jIesB08l3XFcCw9PElCSpeCMIFez+SihoU1RH4EJgSnmHUbNVyb+y39WE90mSpI60KvAd4EmK6QRMA/Yo9QjymQI8TL5juJEwnVKSpI43CHg/cAH5749nbb8Alir1CAY2CvgH+XLfBoxJE1OSpLQmAl8mf6M50HY96S+jdwG/I1/efxBWApQkqfI2JBTAeYX6OgHnlx/5DfIW+rkXmJwooyRJLWsi8A3yD6JbdNs3QV6ADxCW7I3lu5/WHrwoSVJywwnL4E4lfwdgBrBiyTmXA57Pke1eYNmSs0mS1LZGAd8EZpOvE3A15dXRHwRckyPTc5TfMZEkqSO8hVAtL08nYP+SMuW57z+P9qxiKElSyxgC/JF4ozsNmNTkLFuQr8b/UU3OIUlSJYwg3+qDpzYxwyTyFTS6FRjcxBySJFXKSsRXHlwIbNqE1+4CLo28di9hzMIaTXh9SZIqbW/ijfA9wLCCX/fgHK/bCxxY8OtKkqQ+fyHeEH+3wNfbiHxLHV9JeTMRJEmqnLUIo+yzGuP5wMYFvNYo4IHIa/WSphaBJEmVczzl3Ao4L8fr9AKfbPB1JElSDmOAZ4g3zGc18BqfyfH8vcAlDbyGJEmq0afI10B/pY7nXpt8VQhfwFK/kiSVqpsw5z7WSPcAB9TwvJuTby2CHmDXAo5DkiTVaGPyrcjXAxwLDM14rm7CNL48I/57gRMKPxpJkpTb/5Kvwe4fGPgJ3jg4cDiwF2HlvrzPcwvZnQlJktRkQ4E7yN949xKmET4K/AuYU+PffRzv+0uS1BJWAp6mtoa8nm0msH45hyRJkvJYG3iR5jX+rwBbl3UwkiQpv7cD91N84z8D2KzE45AkSTUaDZxDcY3/fcCapR6BJEmq27bAP6m/4e8BziasByBJktpIF7ALcAO1Nf43AO9KkFeSJBVsDeBw4GrePFhwHnA38G1gg1QBJTXONbklxYwFxhPqALxEWEJYkiRJkiRJkiRJkiRJkiRJkiRJkiRJkiRJkiRJkiRJkiRJ0sD+PzljNl6yrDhVAAAAAElFTkSuQmCC;" parent="1" vertex="1">
          <mxGeometry x="1681.2" y="2145.13" width="45" height="45" as="geometry" />
        </mxCell>
        <mxCell id="clCzWqrXpFwG12uI4jeE-9" value="" style="shape=image;verticalLabelPosition=bottom;labelBackgroundColor=default;verticalAlign=top;aspect=fixed;imageAspect=0;image=data:image/png,iVBORw0KGgoAAAANSUhEUgAAAgAAAAIACAMAAADDpiTIAAAAA3NCSVQICAjb4U/gAAAACXBIWXMAAIDZAACA2QHmjdRnAAAAGXRFWHRTb2Z0d2FyZQB3d3cuaW5rc2NhcGUub3Jnm+48GgAAAwBQTFRF////AAAAAAAAAAAAAAAAAAAAAAAAAAAAAAAAAAAAAAAAAAAAAAAAAAAAAAAAAAAAAAAAAAAAAAAAAAAAAAAAAAAAAAAAAAAAAAAAAAAAAAAAAAAAAAAAAAAAAAAAAAAAAAAAAAAAAAAAAAAAAAAAAAAAAAAAAAAAAAAAAAAAAAAAAAAAAAAAAAAAAAAAAAAAAAAAAAAAAAAAAAAAAAAAAAAAAAAAAAAAAAAAAAAAAAAAAAAAAAAAAAAAAAAAAAAAAAAAAAAAAAAAAAAAAAAAAAAAAAAAAAAAAAAAAAAAAAAAAAAAAAAAAAAAAAAAAAAAAAAAAAAAAAAAAAAAAAAAAAAAAAAAAAAAAAAAAAAAAAAAAAAAAAAAAAAAAAAAAAAAAAAAAAAAAAAAAAAAAAAAAAAAAAAAAAAAAAAAAAAAAAAAAAAAAAAAAAAAAAAAAAAAAAAAAAAAAAAAAAAAAAAAAAAAAAAAAAAAAAAAAAAAAAAAAAAAAAAAAAAAAAAAAAAAAAAAAAAAAAAAAAAAAAAAAAAAAAAAAAAAAAAAAAAAAAAAAAAAAAAAAAAAAAAAAAAAAAAAAAAAAAAAAAAAAAAAAAAAAAAAAAAAAAAAAAAAAAAAAAAAAAAAAAAAAAAAAAAAAAAAAAAAAAAAAAAAAAAAAAAAAAAAAAAAAAAAAAAAAAAAAAAAAAAAAAAAAAAAAAAAAAAAAAAAAAAAAAAAAAAAAAAAAAAAAAAAAAAAAAAAAAAAAAAAAAAAAAAAAAAAAAAAAAAAAAAAAAAAAAAAAAAAAAAAAAAAAAAAAAAAAAAAAAAAAAAAAAAAAAAAAAAAAAAAAAAAAAAAAAAAAAAAAAAAAAAAAAAAAAAAAAAAAAAAAAAAAAAAAAAAAAAAAAAAAAAAAAAAAAAAAAAAAAAAAAAAAAAAAAAAAAAAAAAAAAAAAAAAAAAAAAAAAAAAAAAAAAAAAAAAAAAAAAAAAAAAAAAAAAAAAAAAAAAAAAAAAAAAAAAAAAAAAAAAAAAAAAAAAAAACyO34QAAAP90Uk5TAAECAwQFBgcICQoLDA0ODxAREhMUFRYXGBkaGxwdHh8gISIjJCUmJygpKissLS4vMDEyMzQ1Njc4OTo7PD0+P0BBQkNERUZHSElKS0xNTk9QUVJTVFVWV1hZWltcXV5fYGFiY2RlZmdoaWprbG1ub3BxcnN0dXZ3eHl6e3x9fn+AgYKDhIWGh4iJiouMjY6PkJGSk5SVlpeYmZqbnJ2en6ChoqOkpaanqKmqq6ytrq+wsbKztLW2t7i5uru8vb6/wMHCw8TFxsfIycrLzM3Oz9DR0tPU1dbX2Nna29zd3t/g4eLj5OXm5+jp6uvs7e7v8PHy8/T19vf4+fr7/P3+6wjZNQAAKHRJREFUeNrtnXlATtkfxm+pkEh2ISHLYCxZs2UrsgwaMWRJRhKGyr4vY9+JiDBRmjKFSshWllKIsRVabEUl7b1t7/mVMfMz413ufd977j33fb+fv+vec57nee892z2HolSYSgZNO/QZ9tPMhet3uR3y9PLxCwwKvXz95p17fz59nvQmNSMrv6isrCg/KyP1TdLzp3/eu3Pz+uXQoEA/Hy/PQ2671i+c+dOwPh2aGlSiAGGg37r3sJ8cFqzfc+yPy9FxKfmIJfJT4qIv/3Fsz/oFDj8N691aH5QmCT2T3j86rTt0Niq5EHFEYXLU2UPrnH7s3UIP9OcHLeOeox1XuwfcTshHvJKXcCvgwKqZo3o2hRcFJ1TvZL3Q/dLLEkQcxS8vHlgwpmN18AgLGo362q33jkpDxJMW6b3Orm8jDfCMJeebDf9lT9DTQiQwCp8G7f5leDPIgTLNOzPHAzdzkKDJuXnA0Qyaiox/9i3GrAlIECMVQZwQsGZMC3gY0KJGb6eDt3ORCpJ7+6BT7xrgsHSq9ltyJkmMVBpx0pkl/aqC19/QcOzOO8VITSi+s3NsQ/D8nxH7Tk7eSUjtSPJ26gSDRzUs14TlILUlJ2yNpfq2Cgxs3B+WIbWn7KG7jYH69fO6rLhZCub/TenNFV3UqJdYZ6LXBzD9v3zwmlhHDczX7LnmDjz3pb0N7qzpqanK7tefciqDR31LCnMy0969ehn3KDb6dviVC8GB/j5eXj7+gcEXroTfjo59FPfy1bu0zJxCPucaM05Nqa+a7rdYfo/DQZ7ijMQHEcE+B7eu+MXOenD3NoZ6WkwKq6Vn2Kb7YGu7X1ZsPegTHPEgMYPDQQrxveUtVM39Ri7R+FtS7x9cOL7ZecJAU5N6VdivQpV6JqYDJzhvPn7hQSr+9mu0SyMVavQ5huP77X98ctVn56IpQzrW5/DtqVm/45Api3b6XH3yEd9zINxRJRqFNaaG4nilliSEHVps062JDt/102nSzWbxobAELJUMnSrwYaKq4wJEbDeSon03/jywGXGDqJWaDfx5o280241cUcA4wU4daQzxZnFat/R56H5X607E/yJqdLJ23R/6nMVWQq73ECEOEhm4vGBLgdfnt0zuVFlY1a/cafKW86/ZUuCFi9AGi02PFLDSwgt3c+wt4O8w9Hs7uoWz0k4sOGIqoPRPilS+wnePuVoaqkYvyNDS9dhd5X8QkZOE8RQ02qjk2u3iu26TWqnciKhmq0lud5UcTUrbaER8w8/ijFLNnzf+rr1VeMFU1d6u/m+UagqfsSC5QagzM17xuuVHbLU2pNQAQ+utEUp80BY/U4fQimk7vFK4Ur/NMtWi1Agt01m/KfxjeeWgTaL9M5IVrI7nhHqUWlJvgqeCP5nkGaRFQGu6Qss6PwU4taTUmpZOAZ8UWlI6naQnppZ9ogKDnFeXdYdVsRWDyN2XXVVgwDzRnpQIaE1LYDzTFbttiC5Y/390h2yLZTxjmjCNiAjYvmRY7jy/CXXB8m+pO8Evj6GUL215L3XbcGZFzjoxGj6Mkj5OMPpEFjM9w9vyWuBqWxiNbaUfHqoDLssZSxl6OJ3RuOmWavwVdjSTXsw7twHQ5qPXKhzg9o5JP3o0T+VsFsyg17LdDD6PZ4CG2XYG/ergZnw8qlbQnt/KOtANLGVOtwO02wMFKzh/tQ6Ko9vju2oLrT5F24S2V+n2DeMGcVuyI3QX86xvDj4qQ/P1dJcVHeHwd9b2Ma0iFfkN0QQLlUVzqF8RLbkfc9YjtKc1mflwXm1wjx1qz3tIa0LdnpPS6J2ks3DBuyv4xiZdvekstDnJwYZ0nWhMYxfsbwaWsd7r3k+j2xXfCXcxnOTPW2X+CkP9WKj7a6b8OVYnrEXQ95dbgreusC8mvtev61u5BvhjXEbf6Km8uz+zh8F+rOjYP5PnwVNs3xWbyBudjB4D473Y0Rgj70v7JBM8d+74Xs4SFRtwhxts5CzAet8Rx117y167lrWgMjjDFZUXyJ4m+NSb/XsOlTn6U+JWB2zhkjpuMjckyB/K9g3Hy1z5EdQGLOGaNkEy14mMZ/duM2Vt7fZgENjBB4MeyNpybiabt5oq6xNue5jx4QlNe1mfnk9lsf0nYzoqzBCM4A/DMBmTsay1BI2lf+8tmg89f35HBeZLH5tPM2bnHtUfSZ/ybQ8W8E176VPFj1g5xFBT6tpP8Xbo+pMwKLBd6rqxYDaaZzukbuYwEMQng4FSN53YofzFp0u7dqABKE8KBoHSXJqu7KVNpQ0A7YfOH0kdwv3SBoSU3FxMQ9p+X6tAdLJYJW1vMeW6afZcDDMBbCBtsFaplaIGkkcARGNAb/IYI3lEIE2ZtprkN0uWOahNIuaS54j3K37FzhKfKh86gNZk0kHiWVxlnRVuAd6WOPXfD5QmlX4SFwncVrQdKHkOcB7oTC7zWJ0XlDjI7A0qk4y3xCkbxa5lKvFasLkX0ehK/NUqNhrkJumrH/jam3CaS/p6yE2RK1WWcKUyK1CYdKwkdN0yFZm2HSchST6gL/n4SDBunALXuSBhAcD3IC/5fC9hecAF5pdpLOFJcgbUFQJnJLy7GzO+yhoJD5LuIK4Q6C7BujVML1JFwjRQGGgrDCQsFU5jepryeAkp6g/SCoP+Esxj+qXQrxK+/gVlhYKEr4d/ZXgJCVuBBIGwQkHCZ4P+yncCt4KwQmGr8h1BCQGwA2GFgh2WAPQAYYVCDywB0AdhhYI+jgDkgK7CIQfHEwC2/hUMtbG8AvqAsEKhD5YAOICwQsEBSwB2gbBCYReWAFwAYYXCBSwBeAe7wQgEjXdYAoBGgbTCYBTCE4BokFYYRGMKALIAbYWABcIVgOsgrhC4ji0AqDeoSz69Eb4AnAd5yec8xgDAmgDysUM4A1BoCgqTjWkh1gCgZJgTJJrayQhvAFBYJVCZXCpJ3T2ctQCgLSAzuWxB+AOAxoLOpDIWcRGAPBgQJBSLPE4CgIongNYkMkHWwV5sBgCJYacwApknRlwFAKGNoDdpbJTtGMsBQJ7QGySr/+eJuA0AOlcVVCeHqucQ1wFAUbBjHDE0j0LcBwDl2oPyZGCfi/gIAEKBcGI0AdQJpOMVlgCg1GGgP98MS0X8BQChA7B3MK/oHqBpFK4AoLiu4AJ/dI1DfAcAlWytAUbwQ42tJYj/ACCUNgtGhfgY+5mVxsAknAFA6PFQ8INrhj5mZBHeACAU2g4s4ZJ2oQwNUj4AxbLfN6XudcEWrqjrXiq7XVaMIQDvB2XKzlj2IjhNnhMqL8qW7UTmoPc4AkC1ipfzmHnjrAf24EbP+Y0cG+JbUXgCQNUMk/em+bgORoexUmfdR3kehNWkcAWA0nKX29jI32cMNuHCeF++XAPctSh8AaCo2SL5I0Mn4WQZLHx/Uv64j2j25z/FFwCqA53uZ0hfsItt+obQGZD5cq4zxgBQVdzodDtvjdUBz9hDZ+wtOqq7/X0uCM4AUNTwD3QKk74L3gRsPft3pdNR/MPwf/4DbwCo+jSHoaIdYYNppdGfGU1zMLY+xVUAKI15InqFKjjRHzaXUwKN/icK6Cktmve10LgDUP5UekR3EPrl8sZgpGI0Xv6SrsqP/v2+xR8ASmdZPt3ClZ23gXVDjNG1OV9GV+H8Zf9pcnMQAIpq6k9/Lir/9ARYNsKAGhNO59NX17/pf/+fkwBQVL9YBvORouBptcBZOtSaFixiIGxsv28vwVEAKM0ZHxiUFJWEOTYAf2XTwDGshImmH2ZoUvwFoPxZta2I0bqEshvzjcBlaRjNv1HGSM6ibZLfrNwFgKJankMMiV7aRRPM/uZp2mVpNFMlz7WUcjEuA0BRg2KYFhx99J/ZAjz/Py1m+n9kLGLMIKnX4zYAlIZNPGJOosc4WDxQTp1xHokKyBdvI2OIjeMAUFSliQ8VqAMS399qodafmVe12HpfrIhyDyfKXIrPeQDKGXYDKYToytJuWupovla3pVdEiml2Q943mXwEgKJ6B4kVqw/KD99ibahO5htabwnPV1AscZD8Tdv5CQBFtT9RghTmtZ9Lryqq732VXi5+rxVXqeREexo34SsAFGXsVoCUoDhmn60Kdw9a2O6LKVZGnwI3Y1o34i8AFFV3bTpSjvTgFZYqN2LYwHJFsNLCrKX78Q2fAaAoHZsLZUhZMq7tc+ilEhNINXo57LuWobQgZRds6K+y4zcA5TRZmYjY4FXwZtuOgl1dqNPRdnPwK1aESFzZhMmdeQ8ARWkM8ilE7FDy9PeVo00ENXqsaTJ65e9PS1gSoNBnEMN1VQQEoByD2fcRexQ+C9nnMroD4R+f6XUY7bIv5FkhixW/P9uAcTHICEA5nd0yEcukRfn8aj+gKWEPBM2mA+x/9YlKY7u2mW6dFSkOMQEo7/ba+BcgDBS/uOi+0KZvK57biTVa9bVZ6H7xRTGOOhb42yg4MEJQAMqpNt4/D2GjMDnq7KF1Tj/2ManOlevVTfr86LTu0Nmo5EJ89crzH19N4RKSFYCK58DIo+kIO/mJkYEH1zhNHNG3o3EtVucXtGoZd+w7YqLTmoOBkYn5+GuSfnSkUoOixAWgnErmu5IRl+Snxkdf/uPYnnULHMZb9WpvYtyofq0autoy29Ma2ro1atVvZGzSvpfVeIcF6/Yc++NydHxqPqcFT95lruyuWyQG4HObcO2fiHdKRbmf0lJeJcQ9jo25HRFxOyb2cVzCq5S0T7miUv5L9+faziwITWoAKobDncOKECB5hV+YM0sTIQQHoKKvPOrgc3D7vzw/OIq9MQ6yA1CB4UQPCMH/zfeYyO5yCPID8CUEL8D8F2ybL5wAVNDI9rAah+DFYdtGWGQVTgDUNwTYzBdeACqobbUy8JW6eP8qcKUV3lPYhReAz9SxWPz7C7EqWy9+8ftiCw6+hhBoAD6jb+588mmZ6nlf9vSkszlXW+YIOQCf0e0150hkjqp4nxN5ZE4vTvfIEHwA/sLIaqFnRKqQrU+N8FxoxcPn0CoSgC+Tr6bjV3pFfhSW8x8jvVaON63Ol2YqFYAv1Ooxed2pe9mkO59979S6yT343gtFFQPwhbpmk1d7BN9LJayZWJZ6L9hj9WQzQk7NUOEA/LO8oFHXHxzXHg6Jfc9jFMrex4YcXuv4Q9dGhB2bpQYB+D9ajbuNmrX+yLlbz9I4mc8vTXt269yR9bNGdWtM7FfNahWAr9DQb9qh7whbp6Wb3X1Cbj56nc3CqJI4+/WjmyE+7puXOtmO6Nuhqb4Qtj5V1wB8g2ZNo++6mluNneo412XxirUbtu5yO3T0hO/ps+fDrt+Kvv8oLiEh7tH96FvXw86fPe174ught11bN6xdsdhlruPUsVbmXb8zqinI7YwgAGoOBAACAAGAAEAAIAAQAAgABAACAAGAAEAAIAAQAAgABAACAAGAAEAAIAAQAAgABAACAAGAAEAAIAA0A5ALsgqHXAwBQNqgq1DQRjgCUA+EFQr1sASgNQgrFFpjCYAJCCsUTLAEoDoIKxSq4whAAegqHAowBCBfA3QVChr5OF4BTUFYoWCEpQ0wFIQVCkOwBMAZhBUK87EEwBOEFQpHsATgHbQChdIGfIslAKgHSCsMeiI8AdgE0gqDbZgCkFIZtBUCVd5jCgCaBeIKgVkIVwCSYUmAANBKxBYAtBzkJZ9FCF8ACmFKmHia5WMMALoMApNOKMIZAOQECpPNzwhvAIp6gcYk002EOQAopSGoTC71XiPcAUAPa4LOpFL9LsIfAHSzKihNJpWvIi4CgEJgPIhIKgUibgKAfCEBJPrvhbgKALqkB3qThm4Q4i4A6B70BQijbiTiMgDoXXfQnCQ6yzt2le0AoMLJoDo5TChAXAcAoR2VQHgy0Nwi3y0MAUAX64L2JFA7FPETAPR+GKjPPxbvEF8BQOiQPhjAL3p76R2MhSkA6N1o8IBPhibTNApXABA63QBs4Is6J2nbhC8A6NN0cIIfbNMRCQFA6GobMIN7WoQy8QhrAFDJntpgCMd9v11FiJwAIJS9EuaHOKT6qmyGBikfgLwk2XdImw9fjnFEFWc5L/+kPBx7Bde5Lidkr+xhcJgDtGa8kWPE9Tp4NovWPiTvORM3FvYQwIzGT8/lueCujW238Dkl8m5+zwaeAjjtt34gz4FiRwrjdvGDMuW2NpJdYdkwJvRmx8uVP92cwhkAyuSp/AZnnlsrMIt9jLdnydf+oTGFNwBUjT9o9DnEIRZgGLv0/aOUhvD+1SjcAaCoaTl0+p1PHODzAdbQmXKPjua5/wzK4z0yptlNWkMPGRsbg3VsYLgqlZbgt5pT3ASAqrS8mFaJysLsYItxZcf87MLKaIldvOyr/hf2Q6O6xNEcgSzwHQlfkSiM9kjfAppCPzX9+h/xnxqmu6OEZslQxn74pFwheu3PoKtx6a4qFLcBoKjvb9CfiUhYD+fNMKT1+gT6+t7q9J//5uTcQA27NAazUTHzYeUQbRrMj2Eg7Yep3wzAc3RwpIF7GYNyll6YDFPGdMb7Jl8oZSLrHgkLczk7ObTbXUaT0qIwF1g8JPvJ73xJxEjSiA6SLsPd0bGadsmIGUkHRlQDoyVRdbhbIkMxEyZKvhSXZwdXnp/GsNRIdMkZGoX/weSXC4VMdUxxktbF5vbw6OqrcxBjEveP0AXb/6LK0D0vmCuYuUS6gFyfHl53l4h5BZDo4nx4EFDNZocUKCBe/kZZs+7cHx9v5FmMFCHBfVJz9TW/8bg9cQrJVuQmu1PNfQDKK7M9BynG+4AFvdRuQalW1198XysoWNYWQzlX5yMAFKW/OAUpSlHkjh/VZtuZWsM3Xs9XWKq3C2vIvQM/ASjvEUx/hpQgyXt2ZxVfUqjx3XTPZ2IlNHpip0PjNnwFoLyCo24hpci9st5KRRcVVhuwPCRTOXUiRtBbds1fAMrpcjhPuVoicZz/autWqvQsMBq2+MSDEiVlyT9Ke2cuXgNAUTVmPUDKU3j/t4VWTYRufd0Bcw/dzmZBjj9nM9iMg+cAlNPzWAFihaybB+f0F+Snp3o9f959+T07KuQf68no3vwHgKJq/vIEsUZq2C777oKZQtDpMHFTUJKYtdr/OYfpTjwkBKAcM7c0xCLi1+HH10ztZ6RJrPP1uo9fcvDi8xI2a52234x5QQgJAEVpDfPOQ2xT/PLy4eUTzRqS8x2iQWdr133Bj/NZr2qO11AtRQpETAAqOj+2ISUIC4XPQg8snjy4fR2+kqBn0sdm3s7A2Cw89RMF2Cj6bQVJAahoCc++jXBSmvrgote2hVOGdGqohf/X3sZ83Nz1HmejkvKx1unSNCW24CMsABUzBTMCshEHiDOeXD11YNNSp0kj+3VqVkeHjd95wzbdLcbaO6/eeez8vbfFXNQi83e7+kqVmbwAlKNtvvkh4hpR2svY8CBv9y0r5js5TJv804+jhlkO6NOzS8e2LZs1blC7hq5ujVr1GjVt0bp9p649+w6wsPrBetzEKdMdF6zd5el/MfLx66wyjkssjlnfS+kxMCIDUIGhvX8WAqSS7j25Hhs6ExuAio5Bnw33xWD1t5RFre7BVg+X5ABU0GCqbyY4/jUfvCawOdxJegDKqdRrfQw8CP5q8N9c0YXlnqwAAvB54GyyT4a6u59y1AbD7LdAAlCxfqCV7e5bBerpfcGt3baYVsUKJwB/tQs7Tj94r1idvC++d3B6B4yDVgILwGeq9Jjz29My1fe+7Mnx2d1xr4EVYgA+U73/Qr8k1TU/wde1HycfyAo2AJ+pY7Uq6L2qef/2zHLLWpxJKOwAfKbJmI0h8UWqYH3Ji5D1P3C85F0FAvDXYIHxYMftgY8E2ksofHJ2p5NlCy0ehFOVAPzdV2xkbr/R7362UJzPifXf9HP/xjwuWFGxAPyzrsBs8tqTUQSPHWVEea+d3Kse/0qpaAC+ULPr+OXHbqQQ1GUUp0QcXT6+CzkftKh2AL6gWadNX+uZy3d7X7z/ppB700VvYi/57FnpONa8XT3ivmFRiwD8C71m3YdNXbDZ89ztF/gWHIgzn986e2Sz69Rh3ZuRvd+V+gXga7Qbdhg0fs7a/acCQy7fuPPgacKbtKxChi+MsoKsD29ePomNiggLDvDeu2qWTf/29bUEI4F6B0DKhEM1gwZGLduZ9jS3HPHjBDuHua7L1m7a6ea2c9OaZa5zHewmWI+wMO/ZuZ2JUX0DXaF/lwgBUHMgABAACAAEAAIAAYAAQAAgABAACAAEAAIAAYAAQAAgABAACAAEAAIAAYAAQAAgABAACAAEgH4APoCswuEDhgCIQFbhIMIQAFQVdBUKVRGOABiCsELBEEsA2oKwQqEtlgAYgbBCwQhLACqDsEKhMo4AZIGuwiELQwBKdUBXoaBTiuMV0A6EFQrtsLQBxoKwQuFHLAFYCcIKhRVYAhAAwgqFP7AEIK8KKCsMquZhCQAaCdIKg9EITwCOg7TC4CSmABQ2AG2FgKEIUwDQdhBXCOxAuAKQB48AAdAgD1sAkB/ISz6+CF8A0AjQl3SsEM4AvNIDhclGNwlrAJAPSEw2xxHeAKB5oDHJzEK4A1AyAFQmlz5F2AOAsk1BZ1L5/hPCHwCU1gqUJpPmKYiLAKDkxqA1iTRIQNwEAMUbg9rk0fgJ4ioAKLUT6E0a7d4g7gKAsq1AcbIYKOc4dpYDgMoWguYkMa8UcRsAhLzha2FiqHxcrl3sBwDdhc4AITS6g/gIAHpvCdqTwOBUxE8AkHgPLBTmnSp7xIivACAUbw4O8Eu/eHpOYQoAEh+uCSbwh/5BMeI3AAilwjeDvDHqHW2b8AUAobPQHeCFBv4MTMIZAJTjCnsHcI7W7ExESgAQejFWAyzhlBFPmDmEOQAI3YVBAQ7pf5upP8oHIMNXzi2um4Ex3ND1ohwr/D/i2CxaY5W8Lse578Ec/Hz3h7yu+UoNTLuFW+fJmyM82QIMwovxcXnzfrmj8W0X3/GVvFdNiXcXMAkf7Y8WyXMgsT2F8byAejflNzcirCuBUzjQGHZJvvpXa1M4A0DpeNJocSY51wC72EZ3VhwN6d20KLwBoKgZeXSGhnY3B8vYpPFmOsM++dO//DnWI2NMouj0O8vOwEQha/TwLaGjeVRLiosAUFqraRUH3Z9ZC7xTnupTI2nJXbzy/20v3IdG9XhBb/ip6MxYWDKiFNojfAvoaf306+4X9lPDqnnQHYLM8hygCT4qiNn+dLrrMnb/65fGwbFxFs9pD0O/2doBvGRO63UJtCWO+88321ycG1h5RQHt8qFHi5uAo0yoPy+Gvrp5S/47Hc/NwZHNghnMRomv/wyLx2hSbdKFUgbSnv72x8XVyaGjkpnMSIr+sNEHd+UO+Iz0zmeiarykeXjOjo7V3SRiNCtdEr4YZgxl0GreRWaC5i+TuBiLw7ODjY6WIma88RhdHaz+lqpW+14ylLLksJTlmJweHt3mNNPVKajoiut34PjXtJhzvoCpiuLfpe7VwvHp4V0vIeYkHxihC8Z/7k9Z7o5XQMDQztIvyfnx8QOiFKgBEl2cp/b7DRnPCspXRLub/WRdlfMAUNQPkUghkk46dVLT9QMabX8+Gq+YajFy9uzlIQAU1TdYrFhtUO7ldVZqNkhQbeCK85kKyiUO6S/v8rwEgKLa/1aMFEX85PC01uphftMJ++6XKixU0TEaBzjyFACKarIrDylBRtBSc5VuGer0cPZ/p4xCWVsM6dyHtwBQlMGKFKQUJTF7xhur4ndGDUZtuVGonDavXWmOoPAYAIrS+vGSGClJTqTHLwPrqYr1NXo57L2WrqwmZedH0W4t8xqAimGNLWmIBT5c2TOjp6BHDat0mrwl5BUbWqRuMGZwX74DUP6yG38NsURy8GbbjpWFZn2l1j+uPh1Xyo4E4rCx2ozuzn8Aymm9Ix2xRskzv1XWbQXRQNRqPmyRV2whe3VP22rCtAxEBICitId75yFWeR91aqODhQmR2xFoNu47ZdWx68mlrNY4/9RIBWpLSAAqBjwmBhcj1il7c8Nr7bT+TckYQqzfc8JSj7AXRezXszhoYjWFikROAMqp7RghRngoSbzmu2f5zyO7GXHeRtCs973FJNctx0OfFmCqXNl1B4WX1RMVgHKMFt/FlYF/Rkjiwv324s7CX65v9br4ILUUc31iXBopUVDSAlBOvSk+GYgbshJjw8+d3L9xidOkUQO7tTGsruiwknYt4+97DRlrP3/VjiN+FyOfvi/lpgKZv09rqJzaBAag4vfTc+2dMsQD4tyUuJhrl0LO+Pv8dsR9747N61cvWzh/tsO0SeOtrcfZ2v08a67L4uVrft2yc6/74ePevwecu3DjQWK6iJey3l3fW/mmDZkBqKCO7ck0BEibC/GZzM7wJ7kBqHgQdFsVWQZmf9Pmi1rTg7VvqIgOQAW1fvrtPXj+1aC318TabOpLfADK0eiy/GYpWI9Q6a0VXdme/RRCAD7PHY/zfKreb4OkY+MMMAgrlABUUH3AIv9kdfQ+5dzKoXUwiSqkAPw1SjB8TYga9Q4yL20Y3QinnoILwGeMbbZey1F173PDd/yEfzNFYQbgcx+x7VS3aJFqei+6s9+uHTe7ZQg3AH+tJuk669hjlWoclj484thFmzsFBR6Az+j1m7snOK5I6NYXvwjdN7c31ytZVCEAX14JxoNnbgt8lC885wsen90xy7I5P0sWVCcAf48aGfaz3+h3L1sIzmff99s03bwxryvbVS4Af1PXbNKak1EZZDqfHnVyzWSzuiTopLIB+IJ+l/HLj4bGJOeR4Hvhm/uXji4b14Wk7W9UPQD/ULWJqaXtvPUHT4c/SeNwYkGcGX/zzOFNLlOsuhnrkaiL2gTgX+2E2q37jJ6xdIfX+ZgkDI8G0dvYMJ+9K2eN7d+uPvHfs6tlAP5FlSadLcdPnTHHdemajTv2eRw/FRAcFh51/8mL1+8/FUh5VohFOenvkuL+jLl17cK5097HDu3dvmH1Upc5DpOHdW8mrA+UIACyqVS1Zr0mLdp27tFv8OB+PTu3a2nUwKCatgpVEAKg5kAAIAAQAAgABAACAAGAAEAAIAAQAAgABAACAAGAAEAAIAAQAAgABAACAAGAAEAAIAAQAAgABAACAAGAAEAAIAAQAAgABAACAAGAAEAAIAAQAAgABAAC8B8+gazC4ROGAKAWoKtQMEE4AjAfhBUK85UPwB/fXiIChBUKEd+6F8DwEju+vURZfVBWGNSXsMPaHobXsJPw+bQDSCsMHCSYN4fhNfQkbNl5EaQVBhe/9a6I8UEUByVseVcbtBUCtSUc1HeK8VXMJDxG3EFcIeAuwToL5pd5KWEPFTNQl3zMJJzQ90aBLYpXS8jRn1qgL+lo/SnBuI0KXKiFpH2UFoHApLNIkm+tFbnSTQkXyjcGhcnGWNK2ypEKXWqmpCidB4nJ5rwk12YqdCkDiec2bAONSWabxM1sayp2MX+J2ykuAZXJZYlEy3wVvFobyac1wIgwsThIPq6ks6LXWy/xemU2oDSZ2Eg+Zme7whes8kLiBYssQWsSsZT8xE6qpvglLSTvqpzXC9Qmj15Stki3UuaiPlLOw5kIepPGxALJXp1S6qr1P0nZPX+rJkhOEppbpR1SquQynpnSzk8IrQmqk0PNUGk+TVfyyhq3pV35+XegOyl891yaS+FKH17W5K3U49FGgvJkMFLqcXrvjZW/egepVxevhIYACa//lWKpJ1WbsnGDQcVSD1KK7gD6802HaOnH1rI0YDNJLP0WG6qABXxSZYP0nyeawtZdlsg4TS3eHFzgD/N4GdYsZe8+B2QdouihD0bwg76HWIYxbizeqdJZWUcqpliDF3xgnSLLlQBWW+i6N2WeqnmmFdjBNa3OyLTkBsuNs6p+Mm9X4tEYLOGSxh4lsn+S1di+o8ZGOWdob4fvhjij9vZC2W5swzFCY1cs+6bZK/XAGi7QW5kt24ni6Xhu3D9TzgHbafMqgz24qTwvTY4NmQOwtTteyDtjPdmuEliEk0p2yfI8eI6xRV47Qt7dUaILDAvg6/i7JMo14FotnCXQ8ZJbAJS7DzqFeB7A+3Llq++pjbkUDjQKIQ6xALvYxiJELF/5vFn4C2J8DdHgyUxd8Iw9dGc+oaN6RHMuCqPxSz6dwnzc3ASMY4cmmz/SUbxgPlfrM1reolMeVBI4RgfcU7rZNSawhJbctzlsemkuEtEqE8pw6w4WKkN3twx6SosWcrs8q+1dRJNnS+FVoOijf+kzuipHt+W6cFori+kWruzKVBgkZoze1CtldBUuWs7H+Nt3QYg2eV6DYQEpk3fsYK88+uqeb8dTMfvH0C8kendgCDQJ6TX7hhx4x0DYe4P4K6rGxGQGJUU5fpNqgb+yqTXJL4eJpkm2GryWt/KCT0yKi0quOTcHl6XR3PlaCSM5M135n3+ttbMIMePxhh4aYPY3T9MeGx4zFFK0zYCM3P6OmJLq8QNMGn6F/g8eqUw1FJ9oSkz5e1xmHAFUGr3ZEuYLytG13Bxdyly/C52JqkVn7xLmdUDFN9aaq/Uiosrma28UKyLciU7E1cVoZw5ShILLy3qq5RbEWj2XXS5QSLLsbWSuwa65+B1SjJwQ1y7a6mS+dhfXkBwFxXrtUoPcIYypj5CiFEbumdRKDXoHGq0m7YksVFimexMJf1wOvYKU4FPYhlENVdf8hqM2hH1SQh5xyEAB1LLzSRFSircBSwapXCdRf9CSgLfK6VLg2VYglTWYdQcpifiZ18JhTVXijaDRdNhCr2diZRW57SCoH0XbralIeXLvHHUdKuDlBE2Guh69k8uCEG83tRZc5SsN9y9CrJAdecTZspGwat/I0vlIZDY79S/0HSrQz21qzbmLWCPrloertakB6XU2MLV29biVxV6978wS9I6M3+/4gFglKzZw59wR7auRVtFq7UfM3RkYm8VubVO2tqWEjtZwzzTEPml3fDfPtGzJ+0By5ZaWMzf73sFRxfSjw1TkS0vNfjsTER7EGU+untq91H541yYcZqFyk67D7ZfuPnX1SYYYU8USd/ZTre9sO66ORZj5FBfut2/FjB96tKiLYfO6KnVb9Phhxop9fuFxn3DX5P4qldyA0Xh+eCniiOKMxAc3Qk4d2r5qvv3YIWbtmugzWpSqqd+kndmQsfbzV20/dCrkxoPEjGKuSl569ZemlMpSZ9q5QsQTpaLcT+kprxOfP3l4L+rm9bDQoEA/Hy8vH7/AoNCw6zej7j188jzxdUr6p1xRKV9lzA+YovKrJquNORCHAEmf0Oz/oSqlHjSacvw1GP6vxb2etoaUetHS0S8djP+8QNJnejNKLdHo6BKco97mZwbMaUupNVpmK67mq6f52ecXmMIHc5/njTrOOPygVJ28L47Zb9cWzP8Xun1cfBPUwHtx/Im5PWA/RWnjBFarQ9JU1/yUM8ss4LQ1+SOG47ZfU7kUfLiy2Ro21GZA3f6zD1xXiX5i2rX9TuZ1wFGFqDdgzoHwDKFanx5+YHb/uuCi0tQfOMc9QlAx+BjhPmdAPXCOVWp2GuOyN+hRLsnG5z4K2utibQrbYGDtKXSzWXQg9FkhScbnPQ52WzC2C5yZweU4ckOzicvcA2694HEwOSs+wn/fQptu8J7nlapNu4+YvnT3qSuP08u4eL8/vea7Z9n0Ed2MYDiHvEHlBh0sJjmv3u5xKjgiNiFNxIbhJZmvHt++ePrY3g2L7KxMG2mDygJCu7Zxh95Dx013XrXd3fM3H7/A4AtXwm/HxD6OS6hY+5NXVFZWlFexTigh7nFszO3wKxeCA/18fvN0377K+efxw/p2al5Xxc/G/R9KvRYCy/DovwAAAABJRU5ErkJggg==;" parent="1" vertex="1">
          <mxGeometry x="1936" y="1892.13" width="125" height="125" as="geometry" />
        </mxCell>
        <mxCell id="clCzWqrXpFwG12uI4jeE-10" value="&lt;font style=&quot;font-size: 14px;&quot;&gt;Completed Dataset&lt;br&gt;(n=10.503)&lt;/font&gt;" style="text;html=1;align=center;verticalAlign=middle;resizable=0;points=[];autosize=1;strokeColor=none;fillColor=none;fontSize=12;" parent="1" vertex="1">
          <mxGeometry x="1928.5" y="2019.13" width="140" height="50" as="geometry" />
        </mxCell>
        <mxCell id="clCzWqrXpFwG12uI4jeE-11" value="Clean" style="text;html=1;align=center;verticalAlign=middle;resizable=0;points=[];autosize=1;strokeColor=none;fillColor=none;fontSize=14;" parent="1" vertex="1">
          <mxGeometry x="1723" y="2101.38" width="60" height="30" as="geometry" />
        </mxCell>
        <mxCell id="clCzWqrXpFwG12uI4jeE-12" value="&lt;div style=&quot;text-align: left;&quot;&gt;&lt;span style=&quot;background-color: initial;&quot;&gt;Select samples&lt;/span&gt;&lt;/div&gt;&lt;div style=&quot;text-align: left;&quot;&gt;&lt;span style=&quot;background-color: initial;&quot;&gt;by country&lt;/span&gt;&lt;/div&gt;" style="text;html=1;align=center;verticalAlign=middle;resizable=0;points=[];autosize=1;strokeColor=none;fillColor=none;fontSize=14;" parent="1" vertex="1">
          <mxGeometry x="1722" y="2145.13" width="120" height="50" as="geometry" />
        </mxCell>
        <mxCell id="clCzWqrXpFwG12uI4jeE-13" value="&lt;div style=&quot;text-align: left;&quot;&gt;&lt;span style=&quot;background-color: initial;&quot;&gt;Select samples&lt;/span&gt;&lt;/div&gt;&lt;div style=&quot;text-align: left;&quot;&gt;&lt;span style=&quot;background-color: initial;&quot;&gt;by reputed identifier&lt;/span&gt;&lt;/div&gt;" style="text;html=1;align=center;verticalAlign=middle;resizable=0;points=[];autosize=1;strokeColor=none;fillColor=none;fontSize=14;" parent="1" vertex="1">
          <mxGeometry x="1719.8" y="2195.63" width="150" height="50" as="geometry" />
        </mxCell>
        <mxCell id="clCzWqrXpFwG12uI4jeE-14" value="&lt;div style=&quot;text-align: left;&quot;&gt;&lt;span style=&quot;background-color: initial;&quot;&gt;Download images&lt;/span&gt;&lt;/div&gt;&lt;div style=&quot;text-align: left;&quot;&gt;&lt;span style=&quot;background-color: initial;&quot;&gt;and metadata&lt;/span&gt;&lt;/div&gt;&lt;div style=&quot;text-align: left;&quot;&gt;&lt;span style=&quot;background-color: initial;&quot;&gt;of the Piperaceae&lt;/span&gt;&lt;/div&gt;" style="text;html=1;align=center;verticalAlign=middle;resizable=0;points=[];autosize=1;strokeColor=none;fillColor=none;fontSize=14;" parent="1" vertex="1">
          <mxGeometry x="1482.94" y="2086.88" width="130" height="60" as="geometry" />
        </mxCell>
        <mxCell id="clCzWqrXpFwG12uI4jeE-15" value="" style="rounded=1;whiteSpace=wrap;html=1;fontSize=14;fillColor=none;" parent="1" vertex="1">
          <mxGeometry x="1430" y="2086.38" width="180" height="60" as="geometry" />
        </mxCell>
        <mxCell id="clCzWqrXpFwG12uI4jeE-16" value="" style="rounded=1;whiteSpace=wrap;html=1;fontSize=14;fillColor=none;" parent="1" vertex="1">
          <mxGeometry x="1675" y="2086.38" width="190" height="165.62" as="geometry" />
        </mxCell>
        <mxCell id="clCzWqrXpFwG12uI4jeE-17" value="&lt;font style=&quot;font-size: 22px;&quot;&gt;Data collection&lt;/font&gt;" style="ellipse;whiteSpace=wrap;html=1;aspect=fixed;labelBorderColor=none;fontSize=10;fillColor=#A3C585;strokeColor=none;" parent="1" vertex="1">
          <mxGeometry x="1445" y="1882.3799999999999" width="150" height="150" as="geometry" />
        </mxCell>
        <mxCell id="clCzWqrXpFwG12uI4jeE-18" value="&lt;font style=&quot;font-size: 22px;&quot;&gt;Selection&lt;/font&gt;" style="ellipse;whiteSpace=wrap;html=1;aspect=fixed;labelBorderColor=none;fontSize=10;fillColor=#A3C585;strokeColor=none;" parent="1" vertex="1">
          <mxGeometry x="1695" y="1881.9999999999998" width="150" height="150" as="geometry" />
        </mxCell>
      </root>
    </mxGraphModel>
  </diagram>
</mxfile>
